  0
SECTION
  2
HEADER
  9
$ACADVER
  1
AC1018
  9
$ACADMAINTVER
 70
     0
  9
$DWGCODEPAGE
  3
ANSI_1252
  9
$EXTMIN
 10
567313.8431
 20
5937968.2018
 30
0.0
  9
$EXTMAX
 10
567405.407
 20
5938039.9744
 30
0.0
  9
$LIMMIN
 10
0.0
 20
0.0
  9
$LIMMAX
 10
12.0
 20
9.0
  9
$ORTHOMODE
 70
     0
  9
$REGENMODE
 70
     1
  9
$FILLMODE
 70
     1
  9
$QTEXTMODE
 70
     0
  9
$MIRRTEXT
 70
     1
  9
$LTSCALE
 40
1.0
  9
$ATTMODE
 70
     1
  9
$TEXTSIZE
 40
0.2
  9
$TRACEWID
 40
0.05
  9
$TEXTSTYLE
  7
Standard
  9
$CLAYER
  8
0
  9
$CELTYPE
  6
ByLayer
  9
$CECOLOR
 62
   256
  9
$CELTSCALE
 40
1.0
  9
$DISPSILH
 70
     0
  9
$LUNITS
 70
     2
  9
$LUPREC
 70
     4
  9
$SKETCHINC
 40
0.1
  9
$FILLETRAD
 40
0.5
  9
$AUNITS
 70
     0
  9
$AUPREC
 70
     0
  9
$MENU
  1
.
  9
$ELEVATION
 40
0.0
  9
$PELEVATION
 40
0.0
  9
$THICKNESS
 40
0.0
  9
$LIMCHECK
 70
     0
  9
$CHAMFERA
 40
0.5
  9
$CHAMFERB
 40
0.5
  9
$CHAMFERC
 40
1.0
  9
$CHAMFERD
 40
0.0
  9
$SKPOLY
 70
     0
  9
$TDCREATE
 40
2455343.56230316
  9
$TDUCREATE
 40
2455343.728969826
  9
$TDUPDATE
 40
2455343.562303171
  9
$TDUUPDATE
 40
2455343.728969838
  9
$TDINDWG
 40
0.0000000116
  9
$TDUSRTIMER
 40
0.0000000116
  9
$USRTIMER
 70
     1
  9
$ANGBASE
 50
0.0
  9
$ANGDIR
 70
     0
  9
$PDMODE
 70
     0
  9
$PDSIZE
 40
0.0
  9
$PLINEWID
 40
0.0
  9
$SPLFRAME
 70
     0
  9
$SPLINETYPE
 70
     6
  9
$SPLINESEGS
 70
     8
  9
$HANDSEED
  5
00020242
  9
$SURFTAB1
 70
     6
  9
$SURFTAB2
 70
     6
  9
$SURFTYPE
 70
     6
  9
$SURFU
 70
     6
  9
$SURFV
 70
     6
  9
$UCSBASE
  2

  9
$UCSNAME
  2

  9
$UCSORG
 10
0.0
 20
0.0
 30
0.0
  9
$UCSXDIR
 10
1.0
 20
0.0
 30
0.0
  9
$UCSYDIR
 10
0.0
 20
1.0
 30
0.0
  9
$UCSORTHOREF
  2

  9
$UCSORTHOVIEW
 70
     0
  9
$UCSORGTOP
 10
0.0
 20
0.0
 30
0.0
  9
$UCSORGBOTTOM
 10
0.0
 20
0.0
 30
0.0
  9
$UCSORGLEFT
 10
0.0
 20
0.0
 30
0.0
  9
$UCSORGRIGHT
 10
0.0
 20
0.0
 30
0.0
  9
$UCSORGFRONT
 10
0.0
 20
0.0
 30
0.0
  9
$UCSORGBACK
 10
0.0
 20
0.0
 30
0.0
  9
$PUCSBASE
  2

  9
$PUCSNAME
  2

  9
$PUCSORG
 10
0.0
 20
0.0
 30
0.0
  9
$PUCSXDIR
 10
1.0
 20
0.0
 30
0.0
  9
$PUCSYDIR
 10
0.0
 20
1.0
 30
0.0
  9
$PUCSORTHOREF
  2

  9
$PUCSORTHOVIEW
 70
     0
  9
$PUCSORGTOP
 10
0.0
 20
0.0
 30
0.0
  9
$PUCSORGBOTTOM
 10
0.0
 20
0.0
 30
0.0
  9
$PUCSORGLEFT
 10
0.0
 20
0.0
 30
0.0
  9
$PUCSORGRIGHT
 10
0.0
 20
0.0
 30
0.0
  9
$PUCSORGFRONT
 10
0.0
 20
0.0
 30
0.0
  9
$PUCSORGBACK
 10
0.0
 20
0.0
 30
0.0
  9
$WORLDVIEW
 70
     1
  9
$SHADEDGE
 70
     3
  9
$SHADEDIF
 70
    70
  9
$TILEMODE
 70
     1
  9
$MAXACTVP
 70
    64
  9
$PINSBASE
 10
0.0
 20
0.0
 30
0.0
  9
$PLIMCHECK
 70
     0
  9
$PEXTMIN
 10
1.000000000000000E+20
 20
1.000000000000000E+20
 30
1.000000000000000E+20
  9
$PEXTMAX
 10
-1.000000000000000E+20
 20
-1.000000000000000E+20
 30
-1.000000000000000E+20
  9
$PLIMMIN
 10
0.0
 20
0.0
  9
$PLIMMAX
 10
12.0
 20
9.0
  9
$UNITMODE
 70
     0
  9
$VISRETAIN
 70
     1
  9
$PLINEGEN
 70
     0
  9
$PSLTSCALE
 70
     1
  9
$TREEDEPTH
 70
  3020
  9
$CMLSTYLE
  2
Standard
  9
$CMLJUST
 70
     0
  9
$CMLSCALE
 40
1.0
  9
$PROXYGRAPHICS
 70
     1
  9
$MEASUREMENT
 70
     0
  9
$CELWEIGHT
370
    -1
  9
$ENDCAPS
280
     0
  9
$JOINSTYLE
280
     0
  9
$LWDISPLAY
290
     0
  9
$INSUNITS
 70
     1
  9
$HYPERLINKBASE
  1

  9
$STYLESHEET
  1

  9
$XEDIT
290
     1
  9
$CEPSNTYPE
380
     0
  9
$PSTYLEMODE
290
     1
  9
$FINGERPRINTGUID
  2
{E7F7769E-AACA-40AB-9EF3-61BBAFBCBA26}
  9
$VERSIONGUID
  2
{FAEB1C32-E019-11D5-929B-00C0DF256EC4}
  9
$EXTNAMES
290
     1
  9
$PSVPSCALE
 40
0.0
  9
$OLESTARTUP
290
     0
  9
$SORTENTS
280
   127
  9
$INDEXCTL
280
     0
  9
$HIDETEXT
280
     1
  9
$XCLIPFRAME
290
     0
  9
$HALOGAP
280
     0
  9
$OBSCOLOR
 70
   257
  9
$OBSLTYPE
280
     0
  9
$INTERSECTIONDISPLAY
280
     0
  9
$INTERSECTIONCOLOR
 70
   257
  9
$DIMASSOC
280
     2
  9
$PROJECTNAME
  1

  0
ENDSEC
  0
SECTION
  2
CLASSES
  0
CLASS
  1
ACDBDICTIONARYWDFLT
  2
AcDbDictionaryWithDefault
  3
ObjectDBX Classes
 90
        0
 91
        4
280
     0
281
     0
  0
CLASS
  1
VISUALSTYLE
  2
AcDbVisualStyle
  3
ObjectDBX Classes
 90
     4095
 91
        4
280
     0
281
     0
  0
ENDSEC
  0
SECTION
  2
TABLES
  0
TABLE
  2
VPORT
  5
8
330
0
100
AcDbSymbolTable
 70
     1
  0
VPORT
  5
29
330
8
100
AcDbSymbolTableRecord
100
AcDbViewportTableRecord
  2
*Active
 70
     0
 10
0.0
 20
0.0
 11
1.0
 21
1.0
 12
80.25
 22
106.4409457059851
 13
0.0
 23
0.0
 14
0.5
 24
0.5
 15
0.5
 25
0.5
 16
0.0
 26
0.0
 36
1.0
 17
0.0
 27
0.0
 37
0.0
 40
113.3818914119703
 41
0.8863849310366128
 42
50.0
 43
0.0
 44
0.0
 50
0.0
 51
0.0
 71
     0
 72
  1000
 73
     1
 74
     3
 75
     0
 76
     0
 77
     0
 78
     0
281
     0
 65
     1
110
0.0
120
0.0
130
0.0
111
1.0
121
0.0
131
0.0
112
0.0
122
1.0
132
0.0
 79
     0
146
0.0
  0
ENDTAB
  0
TABLE
  2
LTYPE
  5
5
330
0
100
AcDbSymbolTable
 70
     1
  0
LTYPE
  5
14
330
5
100
AcDbSymbolTableRecord
100
AcDbLinetypeTableRecord
  2
ByBlock
 70
     0
  3

 72
    65
 73
     0
 40
0.0
  0
LTYPE
  5
15
330
5
100
AcDbSymbolTableRecord
100
AcDbLinetypeTableRecord
  2
ByLayer
 70
     0
  3

 72
    65
 73
     0
 40
0.0
  0
LTYPE
  5
16
330
5
100
AcDbSymbolTableRecord
100
AcDbLinetypeTableRecord
  2
Continuous
 70
     0
  3
Solid line
 72
    65
 73
     0
 40
0.0
  0
ENDTAB
  0
TABLE
  2
LAYER
  5
2
330
0
100
AcDbSymbolTable
 70
     1
  0
LAYER
  5
10
330
2
100
AcDbSymbolTableRecord
100
AcDbLayerTableRecord
  2
0
 70
     0
 62
     7
  6
Continuous
370
    -3
390
F
  0
ENDTAB
  0
TABLE
  2
STYLE
  5
3
330
0
100
AcDbSymbolTable
 70
     1
  0
STYLE
  5
11
330
3
100
AcDbSymbolTableRecord
100
AcDbTextStyleTableRecord
  2
Standard
 70
     0
 40
0.0
 41
1.0
 50
0.0
 71
     0
 42
0.2
  3
txt
  4

  0
ENDTAB
  0
TABLE
  2
VIEW
  5
6
330
0
100
AcDbSymbolTable
 70
     0
  0
ENDTAB
  0
TABLE
  2
UCS
  5
7
330
0
100
AcDbSymbolTable
 70
     0
  0
ENDTAB
  0
TABLE
  2
APPID
  5
9
330
0
100
AcDbSymbolTable
 70
     1
  0
APPID
  5
12
330
9
100
AcDbSymbolTableRecord
100
AcDbRegAppTableRecord
  2
ACAD
 70
     0
  0
ENDTAB
  0
TABLE
  2
DIMSTYLE
  5
A
330
0
100
AcDbSymbolTable
 70
     1
100
AcDbDimStyleTable
  0
DIMSTYLE
105
27
330
A
100
AcDbSymbolTableRecord
100
AcDbDimStyleTableRecord
  2
Standard
 70
     0
340
11
  0
ENDTAB
  0
TABLE
  2
BLOCK_RECORD
  5
1
330
0
100
AcDbSymbolTable
 70
     1
  0
BLOCK_RECORD
  5
1F
330
1
100
AcDbSymbolTableRecord
100
AcDbBlockTableRecord
  2
*Model_Space
340
22
  0
BLOCK_RECORD
  5
1B
330
1
100
AcDbSymbolTableRecord
100
AcDbBlockTableRecord
  2
*Paper_Space
340
1E
  0
BLOCK_RECORD
  5
23
330
1
100
AcDbSymbolTableRecord
100
AcDbBlockTableRecord
  2
*Paper_Space0
340
26
  0
ENDTAB
  0
ENDSEC
  0
SECTION
  2
BLOCKS
  0
BLOCK
  5
20
330
1F
100
AcDbEntity
  8
0
100
AcDbBlockBegin
  2
*Model_Space
 70
     0
 10
0.0
 20
0.0
 30
0.0
  3
*Model_Space
  1

  0
ENDBLK
  5
21
330
1F
100
AcDbEntity
  8
0
100
AcDbBlockEnd
  0
BLOCK
  5
1C
330
1B
100
AcDbEntity
 67
     1
  8
0
100
AcDbBlockBegin
  2
*Paper_Space
 70
     0
 10
0.0
 20
0.0
 30
0.0
  3
*Paper_Space
  1

  0
ENDBLK
  5
1D
330
1B
100
AcDbEntity
 67
     1
  8
0
100
AcDbBlockEnd
  0
BLOCK
  5
24
330
23
100
AcDbEntity
  8
0
100
AcDbBlockBegin
  2
*Paper_Space0
 70
     0
 10
0.0
 20
0.0
 30
0.0
  3
*Paper_Space0
  1

  0
ENDBLK
  5
25
330
23
100
AcDbEntity
  8
0
100
AcDbBlockEnd
  0
ENDSEC
  0
SECTION
  2
ENTITIES
  0
LWPOLYLINE
  5
20000
  8
0
100
AcDbEntity
100
AcDbPolyline
 70
0
 90
4
 10
567363.5071
 20
5937988.3099
 10
567363.903
 20
5937986.3147
 10
567364.5989
 20
5937986.5937
 10
567363.5071
 20
5937988.3099
  0
LWPOLYLINE
  5
20001
  8
0
100
AcDbEntity
100
AcDbPolyline
 70
0
 90
4
 10
567348.1646
 20
5938012.3089
 10
567347.8204
 20
5938014.3136
 10
567347.1176
 20
5938014.0527
 10
567348.1646
 20
5938012.3089
  0
LWPOLYLINE
  5
20002
  8
0
100
AcDbEntity
100
AcDbPolyline
 70
0
 90
4
 10
567368.2947
 20
5938018.2401
 10
567370.2526
 20
5938017.6891
 10
567370.3193
 20
5938018.4358
 10
567368.2947
 20
5938018.2401
  0
LWPOLYLINE
  5
20003
  8
0
100
AcDbEntity
100
AcDbPolyline
 70
0
 90
4
 10
567319.8191
 20
5937968.2361
 10
567323.1735
 20
5937969.8905
 10
567336.9878
 20
5937979.1095
 10
567335.8569
 20
5937980.7913
  0
LWPOLYLINE
  5
20004
  8
0
100
AcDbEntity
100
AcDbPolyline
 70
0
 90
2
 10
567350.3369
 20
5937987.5327
 10
567350.6153
 20
5937987.6795
  0
LWPOLYLINE
  5
20005
  8
0
100
AcDbEntity
100
AcDbPolyline
 70
0
 90
2
 10
567358.4089
 20
5937968.2357
 10
567353.6767
 20
5937980.0791
  0
LWPOLYLINE
  5
20006
  8
0
100
AcDbEntity
100
AcDbPolyline
 70
0
 90
2
 10
567360.2433
 20
5937975.217
 10
567357.4454
 20
5937974.1041
  0
LWPOLYLINE
  5
20007
  8
0
100
AcDbEntity
100
AcDbPolyline
 70
0
 90
3
 10
567329.8596
 20
5937991.1623
 10
567327.6709
 20
5937989.8174
 10
567328.7367
 20
5937988.1757
  0
LWPOLYLINE
  5
20008
  8
0
100
AcDbEntity
100
AcDbPolyline
 70
0
 90
2
 10
567329.8596
 20
5937991.1623
 10
567330.8934
 20
5937989.5988
  0
LWPOLYLINE
  5
20009
  8
0
100
AcDbEntity
100
AcDbPolyline
 70
0
 90
2
 10
567340.2559
 20
5937995.7767
 10
567313.8432
 20
5937977.2196
  0
LWPOLYLINE
  5
2000A
  8
0
100
AcDbEntity
100
AcDbPolyline
 70
0
 90
3
 10
567313.8434
 20
5937982.5831
 10
567327.8117
 20
5937991.8995
 10
567337.3886
 20
5937998.2885
  0
LWPOLYLINE
  5
2000B
  8
0
100
AcDbEntity
100
AcDbPolyline
 70
0
 90
5
 10
567361.7144
 20
5937971.3889
 10
567359.9175
 20
5937970.7743
 10
567359.9675
 20
5937970.6273
 10
567360.6526
 20
5937968.7152
 10
567360.8466
 20
5937968.202
  0
LWPOLYLINE
  5
2000C
  8
0
100
AcDbEntity
100
AcDbPolyline
 70
0
 90
6
 10
567355.791
 20
5937968.2021
 10
567349.7121
 20
5937982.8498
 10
567346.703
 20
5937983.8607
 10
567346.4895
 20
5937983.9324
 10
567335.2919
 20
5937976.4635
 10
567323.0257
 20
5937968.2808
  0
LWPOLYLINE
  5
2000D
  8
0
100
AcDbEntity
100
AcDbPolyline
 70
0
 90
4
 10
567344.5017
 20
5937999.8706
 10
567345.6346
 20
5937998.1813
 10
567344.9457
 20
5937997.8856
 10
567344.5017
 20
5937999.8706
  0
LWPOLYLINE
  5
2000E
  8
0
100
AcDbEntity
100
AcDbPolyline
 70
0
 90
5
 10
567362.8486
 20
5938024.6431
 10
567361.6119
 20
5938027.2669
 10
567360.3492
 20
5938029.9426
 10
567357.7143
 20
5938035.5261
 10
567355.6153
 20
5938039.974
  0
LWPOLYLINE
  5
2000F
  8
0
100
AcDbEntity
100
AcDbPolyline
 70
0
 90
2
 10
567359.2321
 20
5938025.5673
 10
567352.5764
 20
5938039.8538
  0
LWPOLYLINE
  5
20010
  8
0
100
AcDbEntity
100
AcDbPolyline
 70
0
 90
2
 10
567364.1559
 20
5937988.757
 10
567365.3005
 20
5937985.7654
  0
LWPOLYLINE
  5
20011
  8
0
100
AcDbEntity
100
AcDbPolyline
 70
0
 90
2
 10
567363.5617
 20
5937990.31
 10
567363.8299
 20
5937989.609
  0
LWPOLYLINE
  5
20012
  8
0
100
AcDbEntity
100
AcDbPolyline
 70
0
 90
2
 10
567372.952
 20
5938006.9852
 10
567371.6723
 20
5938005.7634
  0
LWPOLYLINE
  5
20013
  8
0
100
AcDbEntity
100
AcDbPolyline
 70
0
 90
6
 10
567369.1023
 20
5938016.7055
 10
567369.8634
 20
5938016.639
 10
567370.6272
 20
5938016.6277
 10
567371.3899
 20
5938016.6716
 10
567372.1475
 20
5938016.7705
 10
567372.8959
 20
5938016.9239
  0
LWPOLYLINE
  5
20014
  8
0
100
AcDbEntity
100
AcDbPolyline
 70
0
 90
2
 10
567364.3948
 20
5938024.176
 10
567365.5944
 20
5938021.6309
  0
LWPOLYLINE
  5
20015
  8
0
100
AcDbEntity
100
AcDbPolyline
 70
0
 90
9
 10
567386.1235
 20
5938028.2803
 10
567386.0624
 20
5938028.255
 10
567386.037
 20
5938028.1938
 10
567386.0624
 20
5938028.1326
 10
567386.1235
 20
5938028.1073
 10
567386.1847
 20
5938028.1326
 10
567386.21
 20
5938028.1938
 10
567386.1847
 20
5938028.255
 10
567386.1235
 20
5938028.2803
  0
LWPOLYLINE
  5
20016
  8
0
100
AcDbEntity
100
AcDbPolyline
 70
0
 90
9
 10
567383.2896
 20
5938031.0116
 10
567383.2285
 20
5938030.9863
 10
567383.2032
 20
5938030.9251
 10
567383.2285
 20
5938030.864
 10
567383.2896
 20
5938030.8386
 10
567383.3508
 20
5938030.864
 10
567383.3761
 20
5938030.9251
 10
567383.3508
 20
5938030.9863
 10
567383.2896
 20
5938031.0116
  0
LWPOLYLINE
  5
20017
  8
0
100
AcDbEntity
100
AcDbPolyline
 70
0
 90
9
 10
567387.743
 20
5938027.4036
 10
567387.6818
 20
5938027.3783
 10
567387.6565
 20
5938027.3171
 10
567387.6818
 20
5938027.2559
 10
567387.7429
 20
5938027.2306
 10
567387.8041
 20
5938027.2559
 10
567387.8294
 20
5938027.3171
 10
567387.8041
 20
5938027.3782
 10
567387.743
 20
5938027.4036
  0
LWPOLYLINE
  5
20018
  8
0
100
AcDbEntity
100
AcDbPolyline
 70
0
 90
2
 10
567354.1386
 20
5938020.7068
 10
567355.4212
 20
5938017.6355
  0
LWPOLYLINE
  5
20019
  8
0
100
AcDbEntity
100
AcDbPolyline
 70
0
 90
2
 10
567352.4868
 20
5938019.3836
 10
567353.7223
 20
5938016.3769
  0
LWPOLYLINE
  5
2001A
  8
0
100
AcDbEntity
100
AcDbPolyline
 70
0
 90
2
 10
567334.9279
 20
5938030.3645
 10
567335.6458
 20
5938028.4952
  0
LWPOLYLINE
  5
2001B
  8
0
100
AcDbEntity
100
AcDbPolyline
 70
0
 90
9
 10
567335.6458
 20
5938028.5816
 10
567335.5846
 20
5938028.5563
 10
567335.5593
 20
5938028.4952
 10
567335.5846
 20
5938028.434
 10
567335.6458
 20
5938028.4087
 10
567335.7069
 20
5938028.434
 10
567335.7322
 20
5938028.4952
 10
567335.7069
 20
5938028.5563
 10
567335.6458
 20
5938028.5816
  0
LWPOLYLINE
  5
2001C
  8
0
100
AcDbEntity
100
AcDbPolyline
 70
0
 90
9
 10
567386.6726
 20
5937972.2499
 10
567386.6115
 20
5937972.2246
 10
567386.5861
 20
5937972.1635
 10
567386.6114
 20
5937972.1023
 10
567386.6726
 20
5937972.077
 10
567386.7338
 20
5937972.1023
 10
567386.7591
 20
5937972.1635
 10
567386.7338
 20
5937972.2246
 10
567386.6726
 20
5937972.2499
  0
LWPOLYLINE
  5
2001D
  8
0
100
AcDbEntity
100
AcDbPolyline
 70
0
 90
2
 10
567381.8462
 20
5937976.5442
 10
567382.5641
 20
5937974.6748
  0
LWPOLYLINE
  5
2001E
  8
0
100
AcDbEntity
100
AcDbPolyline
 70
0
 90
9
 10
567384.6119
 20
5937971.4166
 10
567384.5507
 20
5937971.3913
 10
567384.5254
 20
5937971.3302
 10
567384.5507
 20
5937971.269
 10
567384.6119
 20
5937971.2437
 10
567384.6731
 20
5937971.269
 10
567384.6984
 20
5937971.3302
 10
567384.6731
 20
5937971.3913
 10
567384.6119
 20
5937971.4166
  0
LWPOLYLINE
  5
2001F
  8
0
100
AcDbEntity
100
AcDbPolyline
 70
0
 90
9
 10
567384.2848
 20
5937970.5506
 10
567384.2236
 20
5937970.5253
 10
567384.1983
 20
5937970.4641
 10
567384.2236
 20
5937970.403
 10
567384.2848
 20
5937970.3777
 10
567384.3459
 20
5937970.403
 10
567384.3713
 20
5937970.4641
 10
567384.3459
 20
5937970.5253
 10
567384.2848
 20
5937970.5506
  0
LWPOLYLINE
  5
20020
  8
0
100
AcDbEntity
100
AcDbPolyline
 70
0
 90
9
 10
567381.8462
 20
5937976.6306
 10
567381.7851
 20
5937976.6053
 10
567381.7597
 20
5937976.5442
 10
567381.7851
 20
5937976.483
 10
567381.8462
 20
5937976.4577
 10
567381.9074
 20
5937976.483
 10
567381.9327
 20
5937976.5442
 10
567381.9074
 20
5937976.6053
 10
567381.8462
 20
5937976.6306
  0
LWPOLYLINE
  5
20021
  8
0
100
AcDbEntity
100
AcDbPolyline
 70
0
 90
2
 10
567365.9863
 20
5937983.9878
 10
567374.5682
 20
5937987.4352
  0
LWPOLYLINE
  5
20022
  8
0
100
AcDbEntity
100
AcDbPolyline
 70
0
 90
17
 10
567378.4483
 20
5937976.4401
 10
567377.6319
 20
5937976.1263
 10
567377.4943
 20
5937976.1066
 10
567377.3618
 20
5937976.1485
 10
567377.2605
 20
5937976.2438
 10
567377.2107
 20
5937976.3736
 10
567377.2221
 20
5937976.5121
 10
567377.2924
 20
5937976.632
 10
567377.4078
 20
5937976.7095
 10
567378.2243
 20
5937977.0232
 10
567378.3619
 20
5937977.043
 10
567378.4945
 20
5937977.001
 10
567378.5957
 20
5937976.9058
 10
567378.6455
 20
5937976.776
 10
567378.6342
 20
5937976.6374
 10
567378.5638
 20
5937976.5175
 10
567378.4483
 20
5937976.4401
  0
LWPOLYLINE
  5
20023
  8
0
100
AcDbEntity
100
AcDbPolyline
 70
0
 90
23
 10
567376.3384
 20
5937979.5546
 10
567376.5317
 20
5937979.0491
 10
567376.5439
 20
5937979.8565
 10
567375.9603
 20
5937980.5429
 10
567376.1972
 20
5937979.9236
 10
567376.1624
 20
5937979.9084
 10
567376.0885
 20
5937979.8554
 10
567376.0319
 20
5937979.7804
 10
567376.0103
 20
5937979.7267
 10
567375.9704
 20
5937979.6308
 10
567375.5917
 20
5937980.5625
 10
567375.7667
 20
5937980.6294
 10
567374.8192
 20
5937982.4074
 10
567375.2999
 20
5937980.4509
 10
567375.475
 20
5937980.5178
 10
567376.4879
 20
5937977.6946
 10
567376.7213
 20
5937977.7839
 10
567376.2144
 20
5937979.0307
 10
567376.1837
 20
5937979.257
 10
567376.1848
 20
5937979.3786
 10
567376.2279
 20
5937979.4752
 10
567376.316
 20
5937979.545
 10
567376.3384
 20
5937979.5546
  0
LWPOLYLINE
  5
20024
  8
0
100
AcDbEntity
100
AcDbPolyline
 70
0
 90
18
 10
567353.6508
 20
5938039.0524
 10
567353.3708
 20
5938038.9196
 10
567355.5119
 20
5938034.4035
 10
567355.7919
 20
5938034.5363
 10
567355.8707
 20
5938034.6108
 10
567355.8903
 20
5938034.7174
 10
567355.7935
 20
5938035.1721
 10
567355.6275
 20
5938035.6064
 10
567355.2905
 20
5938036.3171
 10
567355.1276
 20
5938036.6158
 10
567354.9318
 20
5938036.8941
 10
567354.8403
 20
5938037.2218
 10
567354.7122
 20
5938037.5371
 10
567354.3753
 20
5938038.2477
 10
567354.1441
 20
5938038.6512
 10
567353.8534
 20
5938039.014
 10
567353.7584
 20
5938039.0662
 10
567353.6508
 20
5938039.0524
  0
LWPOLYLINE
  5
20025
  8
0
100
AcDbEntity
100
AcDbPolyline
 70
0
 90
2
 10
567356.3374
 20
5938013.8296
 10
567355.6137
 20
5938013.4894
  0
LWPOLYLINE
  5
20026
  8
0
100
AcDbEntity
100
AcDbPolyline
 70
0
 90
17
 10
567335.3596
 20
5937989.6134
 10
567335.8623
 20
5937988.8977
 10
567335.9149
 20
5937988.769
 10
567335.9065
 20
5937988.6302
 10
567335.8387
 20
5937988.5089
 10
567335.7249
 20
5937988.4289
 10
567335.5878
 20
5937988.4063
 10
567335.4543
 20
5937988.4454
 10
567335.3511
 20
5937988.5385
 10
567334.8484
 20
5937989.2542
 10
567334.7958
 20
5937989.3829
 10
567334.8042
 20
5937989.5217
 10
567334.872
 20
5937989.643
 10
567334.9858
 20
5937989.723
 10
567335.1229
 20
5937989.7456
 10
567335.2564
 20
5937989.7065
 10
567335.3596
 20
5937989.6134
  0
LWPOLYLINE
  5
20027
  8
0
100
AcDbEntity
100
AcDbPolyline
 70
0
 90
5
 10
567358.6919
 20
5937972.9701
 10
567359.2946
 20
5937971.4456
 10
567360.1591
 20
5937971.7873
 10
567359.5564
 20
5937973.3119
 10
567358.6919
 20
5937972.9701
  0
LWPOLYLINE
  5
20028
  8
0
100
AcDbEntity
100
AcDbPolyline
 70
0
 90
75
 10
567360.832
 20
5937975.2041
 10
567363.2528
 20
5937975.0215
 10
567363.2478
 20
5937974.1661
 10
567362.923
 20
5937973.1117
 10
567362.4445
 20
5937972.1734
 10
567361.9046
 20
5937972.489
 10
567362.2421
 20
5937971.9781
 10
567361.8861
 20
5937971.482
 10
567361.1489
 20
5937970.8641
 10
567360.2093
 20
5937970.2663
 10
567360.069
 20
5937970.3366
 10
567359.8198
 20
5937970.7723
 10
567359.9224
 20
5937970.4017
 10
567359.8514
 20
5937970.2417
 10
567358.8075
 20
5937969.8538
 10
567356.9529
 20
5937970.0652
 10
567356.8894
 20
5937970.3667
 10
567357.1093
 20
5937970.983
 10
567356.688
 20
5937970.5239
 10
567356.1474
 20
5937970.5327
 10
567355.6299
 20
5937970.8224
 10
567354.7785
 20
5937971.4199
 10
567354.3938
 20
5937971.8561
 10
567354.3483
 20
5937971.9242
 10
567354.5327
 20
5937972.1553
 10
567355.7556
 20
5937972.9218
 10
567354.386
 20
5937972.2066
 10
567354.1937
 20
5937972.3259
 10
567353.8612
 20
5937972.8346
 10
567353.6177
 20
5937973.4673
 10
567353.4695
 20
5937973.8522
 10
567354.0388
 20
5937974.11
 10
567353.4417
 20
5937974.1578
 10
567353.3856
 20
5937974.5836
 10
567353.3629
 20
5937975.0983
 10
567353.3271
 20
5937975.2019
 10
567353.3438
 20
5937975.7469
 10
567353.5562
 20
5937976.1353
 10
567353.7
 20
5937976.2748
 10
567353.9248
 20
5937976.2109
 10
567353.6883
 20
5937976.3698
 10
567353.6083
 20
5937976.7105
 10
567353.831
 20
5937977.2119
 10
567354.1829
 20
5937977.7437
 10
567354.6371
 20
5937978.1064
 10
567354.8524
 20
5937978.1464
 10
567356.6631
 20
5937976.333
 10
567354.8318
 20
5937978.347
 10
567354.7921
 20
5937978.5002
 10
567355.1072
 20
5937978.7831
 10
567355.7717
 20
5937979.188
 10
567356.2741
 20
5937979.4615
 10
567356.9358
 20
5937979.7121
 10
567357.1367
 20
5937979.6568
 10
567357.2628
 20
5937979.2537
 10
567357.3327
 20
5937978.7061
 10
567357.3336
 20
5937979.687
 10
567357.4807
 20
5937979.879
 10
567357.8846
 20
5937979.9309
 10
567358.235
 20
5937980.0146
 10
567358.715
 20
5937979.9908
 10
567359.2615
 20
5937979.9057
 10
567359.7772
 20
5937979.6567
 10
567359.8279
 20
5937978.8504
 10
567360.1048
 20
5937979.6129
 10
567360.9578
 20
5937979.1582
 10
567361.8724
 20
5937978.5007
 10
567362.4009
 20
5937977.899
 10
567362.0612
 20
5937977.5652
 10
567362.5286
 20
5937977.6029
 10
567362.8796
 20
5937977.0461
 10
567363.1811
 20
5937976.0546
 10
567363.2959
 20
5937975.2397
 10
567362.6931
 20
5937975.2163
 10
567360.832
 20
5937975.2041
  0
LWPOLYLINE
  5
20029
  8
0
100
AcDbEntity
100
AcDbPolyline
 70
0
 90
2
 10
567354.667
 20
5938016.9022
 10
567353.859
 20
5938018.7307
  0
LWPOLYLINE
  5
2002A
  8
0
100
AcDbEntity
100
AcDbPolyline
 70
0
 90
2
 10
567348.1646
 20
5938012.3089
 10
567347.469
 20
5938014.1832
  0
LWPOLYLINE
  5
2002B
  8
0
100
AcDbEntity
100
AcDbPolyline
 70
0
 90
2
 10
567368.2947
 20
5938018.2401
 10
567370.2859
 20
5938018.0624
  0
LWPOLYLINE
  5
2002C
  8
0
100
AcDbEntity
100
AcDbPolyline
 70
0
 90
11
 10
567326.8226
 20
5937983.7391
 10
567326.6389
 20
5937983.5618
 10
567326.6235
 20
5937983.5177
 10
567326.6373
 20
5937983.4729
 10
567326.7009
 20
5937983.3832
 10
567327.8527
 20
5937984.1998
 10
567327.7891
 20
5937984.2895
 10
567327.7515
 20
5937984.3173
 10
567327.7047
 20
5937984.3174
 10
567327.4766
 20
5937984.2028
 10
567326.8288
 20
5937983.7435
  0
LWPOLYLINE
  5
2002D
  8
0
100
AcDbEntity
100
AcDbPolyline
 70
0
 90
20
 10
567325.4217
 20
5937983.9346
 10
567328.6528
 20
5937986.2251
 10
567329.0518
 20
5937986.4638
 10
567329.4829
 20
5937986.6379
 10
567329.5913
 20
5937986.6369
 10
567329.6783
 20
5937986.5723
 10
567329.7105
 20
5937986.4687
 10
567329.6755
 20
5937986.3661
 10
567329.3685
 20
5937986.017
 10
567329.0112
 20
5937985.7195
 10
567325.7801
 20
5937983.4289
 10
567325.6645
 20
5937983.592
 10
567328.9018
 20
5937985.887
 10
567329.0855
 20
5937986.0643
 10
567329.0995
 20
5937986.1242
 10
567329.0639
 20
5937986.1744
 10
567329.0027
 20
5937986.1811
 10
567328.7746
 20
5937986.0664
 10
567325.5374
 20
5937983.7714
 10
567325.4217
 20
5937983.9346
  0
LWPOLYLINE
  5
2002E
  8
0
100
AcDbEntity
100
AcDbPolyline
 70
0
 90
13
 10
567374.1201
 20
5938005.6459
 10
567373.9951
 20
5938005.6125
 10
567373.9037
 20
5938005.521
 10
567373.8702
 20
5938005.396
 10
567373.9037
 20
5938005.2711
 10
567373.9951
 20
5938005.1796
 10
567374.1201
 20
5938005.1461
 10
567374.245
 20
5938005.1796
 10
567374.3365
 20
5938005.2711
 10
567374.37
 20
5938005.396
 10
567374.3365
 20
5938005.521
 10
567374.245
 20
5938005.6125
 10
567374.1201
 20
5938005.6459
  0
LWPOLYLINE
  5
2002F
  8
0
100
AcDbEntity
100
AcDbPolyline
 70
0
 90
4
 10
567354.5489
 20
5938016.6397
 10
567352.7555
 20
5938015.68
 10
567353.2249
 20
5938015.0955
 10
567354.5489
 20
5938016.6397
  0
LWPOLYLINE
  5
20030
  8
0
100
AcDbEntity
100
AcDbPolyline
 70
0
 90
4
 10
567354.9784
 20
5938016.9599
 10
567356.2429
 20
5938018.5531
 10
567356.7342
 20
5938017.9868
 10
567354.9784
 20
5938016.9599
  0
LWPOLYLINE
  5
20031
  8
0
100
AcDbEntity
100
AcDbPolyline
 70
0
 90
4
 10
567356.6106
 20
5937985.8193
 10
567354.872
 20
5937984.7636
 10
567356.8749
 20
5937985.1178
 10
567356.6106
 20
5937985.8193
  0
LWPOLYLINE
  5
20032
  8
0
100
AcDbEntity
100
AcDbPolyline
 70
0
 90
17
 10
567358.3016
 20
5937975.4338
 10
567358.1359
 20
5937975.4009
 10
567357.9954
 20
5937975.307
 10
567357.9015
 20
5937975.1665
 10
567357.8686
 20
5937975.0009
 10
567357.9015
 20
5937974.8352
 10
567357.9954
 20
5937974.6947
 10
567358.1358
 20
5937974.6008
 10
567358.3015
 20
5937974.5679
 10
567358.4672
 20
5937974.6008
 10
567358.6077
 20
5937974.6947
 10
567358.7015
 20
5937974.8352
 10
567358.7345
 20
5937975.0008
 10
567358.7016
 20
5937975.1665
 10
567358.6077
 20
5937975.307
 10
567358.4673
 20
5937975.4009
 10
567358.3016
 20
5937975.4338
  0
LWPOLYLINE
  5
20033
  8
0
100
AcDbEntity
100
AcDbPolyline
 70
0
 90
13
 10
567344.4075
 20
5938011.191
 10
567344.2825
 20
5938011.1575
 10
567344.1911
 20
5938011.0661
 10
567344.1576
 20
5938010.9411
 10
567344.191
 20
5938010.8161
 10
567344.2825
 20
5938010.7247
 10
567344.4075
 20
5938010.6912
 10
567344.5324
 20
5938010.7247
 10
567344.6239
 20
5938010.8161
 10
567344.6574
 20
5938010.9411
 10
567344.6239
 20
5938011.066
 10
567344.5324
 20
5938011.1575
 10
567344.4075
 20
5938011.191
  0
LWPOLYLINE
  5
20034
  8
0
100
AcDbEntity
100
AcDbPolyline
 70
0
 90
2
 10
567373.5137
 20
5938017.094
 10
567376.6798
 20
5938010.0458
  0
LWPOLYLINE
  5
20035
  8
0
100
AcDbEntity
100
AcDbPolyline
 70
0
 90
4
 10
567355.7573
 20
5937985.5672
 10
567355.3461
 20
5937986.0239
 10
567354.9053
 20
5937986.452
 10
567354.4368
 20
5937986.8498
  0
LWPOLYLINE
  5
20036
  8
0
100
AcDbEntity
100
AcDbPolyline
 70
0
 90
2
 10
567340.0378
 20
5938005.8999
 10
567335.069
 20
5938017.8046
  0
LWPOLYLINE
  5
20037
  8
0
100
AcDbEntity
100
AcDbPolyline
 70
0
 90
2
 10
567340.8017
 20
5938016.0244
 10
567339.9311
 20
5938018.2598
  0
LWPOLYLINE
  5
20038
  8
0
100
AcDbEntity
100
AcDbPolyline
 70
0
 90
2
 10
567339.3606
 20
5938019.6633
 10
567338.4389
 20
5938021.8782
  0
LWPOLYLINE
  5
20039
  8
0
100
AcDbEntity
100
AcDbPolyline
 70
0
 90
3
 10
567351.4547
 20
5937988.2311
 10
567351.0559
 20
5937988.3117
 10
567350.6534
 20
5937988.372
  0
LWPOLYLINE
  5
2003A
  8
0
100
AcDbEntity
100
AcDbPolyline
 70
0
 90
5
 10
567354.2925
 20
5937986.9619
 10
567353.693
 20
5937987.3475
 10
567353.0616
 20
5937987.6782
 10
567352.4032
 20
5937987.9513
 10
567351.7231
 20
5937988.1648
  0
LWPOLYLINE
  5
2003B
  8
0
100
AcDbEntity
100
AcDbPolyline
 70
0
 90
2
 10
567341.7085
 20
5937997.2262
 10
567341.9304
 20
5937996.9054
  0
LWPOLYLINE
  5
2003C
  8
0
100
AcDbEntity
100
AcDbPolyline
 70
0
 90
3
 10
567341.1367
 20
5937988.2638
 10
567338.8409
 20
5937986.7171
 10
567336.5727
 20
5937985.1983
  0
LWPOLYLINE
  5
2003D
  8
0
100
AcDbEntity
100
AcDbPolyline
 70
0
 90
5
 10
567344.848
 20
5937990.9759
 10
567345.0511
 20
5937990.5192
 10
567344.9415
 20
5937990.4705
 10
567344.7384
 20
5937990.9272
 10
567344.848
 20
5937990.9759
  0
LWPOLYLINE
  5
2003E
  8
0
100
AcDbEntity
100
AcDbPolyline
 70
0
 90
5
 10
567344.5638
 20
5937991.6153
 10
567344.7668
 20
5937991.1586
 10
567344.6572
 20
5937991.1099
 10
567344.4542
 20
5937991.5666
 10
567344.5638
 20
5937991.6153
  0
LWPOLYLINE
  5
2003F
  8
0
100
AcDbEntity
100
AcDbPolyline
 70
0
 90
5
 10
567343.1425
 20
5937994.8122
 10
567343.3455
 20
5937994.3555
 10
567343.2359
 20
5937994.3067
 10
567343.0329
 20
5937994.7634
 10
567343.1425
 20
5937994.8122
  0
LWPOLYLINE
  5
20040
  8
0
100
AcDbEntity
100
AcDbPolyline
 70
0
 90
5
 10
567351.3246
 20
5937989.9282
 10
567351.527
 20
5937989.4712
 10
567351.2985
 20
5937989.37
 10
567351.0961
 20
5937989.8269
 10
567351.3246
 20
5937989.9282
  0
LWPOLYLINE
  5
20041
  8
0
100
AcDbEntity
100
AcDbPolyline
 70
0
 90
5
 10
567349.9079
 20
5937993.1271
 10
567350.1103
 20
5937992.6701
 10
567349.8818
 20
5937992.5689
 10
567349.6795
 20
5937993.0259
 10
567349.9079
 20
5937993.1271
  0
LWPOLYLINE
  5
20042
  8
0
100
AcDbEntity
100
AcDbPolyline
 70
0
 90
5
 10
567349.3413
 20
5937994.4066
 10
567349.5436
 20
5937993.9497
 10
567349.3152
 20
5937993.8484
 10
567349.1128
 20
5937994.3054
 10
567349.3413
 20
5937994.4066
  0
LWPOLYLINE
  5
20043
  8
0
100
AcDbEntity
100
AcDbPolyline
 70
0
 90
5
 10
567348.7746
 20
5937995.6862
 10
567348.977
 20
5937995.2292
 10
567348.7485
 20
5937995.128
 10
567348.5461
 20
5937995.585
 10
567348.7746
 20
5937995.6862
  0
LWPOLYLINE
  5
20044
  8
0
100
AcDbEntity
100
AcDbPolyline
 70
0
 90
5
 10
567347.9246
 20
5937997.6055
 10
567348.127
 20
5937997.1485
 10
567347.8985
 20
5937997.0474
 10
567347.6961
 20
5937997.5043
 10
567347.9246
 20
5937997.6055
  0
LWPOLYLINE
  5
20045
  8
0
100
AcDbEntity
100
AcDbPolyline
 70
0
 90
5
 10
567347.0746
 20
5937999.5249
 10
567347.277
 20
5937999.0679
 10
567347.0485
 20
5937998.9667
 10
567346.8461
 20
5937999.4237
 10
567347.0746
 20
5937999.5249
  0
LWPOLYLINE
  5
20046
  8
0
100
AcDbEntity
100
AcDbPolyline
 70
0
 90
5
 10
567346.7912
 20
5938000.1647
 10
567346.9936
 20
5937999.7077
 10
567346.7651
 20
5937999.6065
 10
567346.5627
 20
5938000.0635
 10
567346.7912
 20
5938000.1647
  0
LWPOLYLINE
  5
20047
  8
0
100
AcDbEntity
100
AcDbPolyline
 70
0
 90
5
 10
567348.3194
 20
5937992.3867
 10
567348.5216
 20
5937991.9296
 10
567348.2931
 20
5937991.8285
 10
567348.0909
 20
5937992.2855
 10
567348.3194
 20
5937992.3867
  0
LWPOLYLINE
  5
20048
  8
0
100
AcDbEntity
100
AcDbPolyline
 70
0
 90
5
 10
567348.0363
 20
5937993.0266
 10
567348.2385
 20
5937992.5695
 10
567348.01
 20
5937992.4684
 10
567347.8078
 20
5937992.9254
 10
567348.0363
 20
5937993.0266
  0
LWPOLYLINE
  5
20049
  8
0
100
AcDbEntity
100
AcDbPolyline
 70
0
 90
5
 10
567346.621
 20
5937996.226
 10
567346.8232
 20
5937995.769
 10
567346.5946
 20
5937995.6679
 10
567346.3924
 20
5937996.1249
 10
567346.621
 20
5937996.226
  0
LWPOLYLINE
  5
2004A
  8
0
100
AcDbEntity
100
AcDbPolyline
 70
0
 90
6
 10
567355.589
 20
5937985.7615
 10
567355.0197
 20
5937985.5274
 10
567354.7314
 20
5937985.3806
 10
567354.4706
 20
5937985.1892
 10
567354.244
 20
5937984.9582
 10
567354.0577
 20
5937984.6937
  0
LWPOLYLINE
  5
2004B
  8
0
100
AcDbEntity
100
AcDbPolyline
 70
0
 90
5
 10
567359.5324
 20
5937970.1902
 10
567359.5491
 20
5937970.2312
 10
567359.5081
 20
5937970.2478
 10
567359.4915
 20
5937970.2069
 10
567359.5324
 20
5937970.1902
  0
LWPOLYLINE
  5
2004C
  8
0
100
AcDbEntity
100
AcDbPolyline
 70
0
 90
5
 10
567358.5599
 20
5937972.4922
 10
567358.5765
 20
5937972.5332
 10
567358.5356
 20
5937972.5498
 10
567358.5189
 20
5937972.5088
 10
567358.5599
 20
5937972.4922
  0
LWPOLYLINE
  5
2004D
  8
0
100
AcDbEntity
100
AcDbPolyline
 70
0
 90
5
 10
567359.5516
 20
5937987.1207
 10
567359.0894
 20
5937986.9307
 10
567358.9943
 20
5937987.1618
 10
567359.4566
 20
5937987.3519
 10
567359.5516
 20
5937987.1207
  0
LWPOLYLINE
  5
2004E
  8
0
100
AcDbEntity
100
AcDbPolyline
 70
0
 90
5
 10
567360.1987
 20
5937987.3868
 10
567359.7365
 20
5937987.1967
 10
567359.6415
 20
5937987.4279
 10
567360.1037
 20
5937987.6179
 10
567360.1987
 20
5937987.3868
  0
LWPOLYLINE
  5
2004F
  8
0
100
AcDbEntity
100
AcDbPolyline
 70
0
 90
5
 10
567360.8459
 20
5937987.6529
 10
567360.3836
 20
5937987.4629
 10
567360.2886
 20
5937987.694
 10
567360.7508
 20
5937987.884
 10
567360.8459
 20
5937987.6529
  0
LWPOLYLINE
  5
20050
  8
0
100
AcDbEntity
100
AcDbPolyline
 70
0
 90
5
 10
567354.3186
 20
5937987.2429
 10
567354.7808
 20
5937987.4329
 10
567354.8759
 20
5937987.2018
 10
567354.4136
 20
5937987.0117
 10
567354.3186
 20
5937987.2429
  0
LWPOLYLINE
  5
20051
  8
0
100
AcDbEntity
100
AcDbPolyline
 70
0
 90
2
 10
567342.6281
 20
5938005.7227
 10
567344.8246
 20
5938000.8944
  0
LWPOLYLINE
  5
20052
  8
0
100
AcDbEntity
100
AcDbPolyline
 70
0
 90
5
 10
567338.4509
 20
5938021.8494
 10
567338.4678
 20
5938021.8902
 10
567338.4269
 20
5938021.907
 10
567338.4101
 20
5938021.8662
 10
567338.4509
 20
5938021.8494
  0
LWPOLYLINE
  5
20053
  8
0
100
AcDbEntity
100
AcDbPolyline
 70
0
 90
5
 10
567340.813
 20
5938015.9952
 10
567340.8308
 20
5938016.0357
 10
567340.7903
 20
5938016.0534
 10
567340.7726
 20
5938016.013
 10
567340.813
 20
5938015.9952
  0
LWPOLYLINE
  5
20054
  8
0
100
AcDbEntity
100
AcDbPolyline
 70
0
 90
6
 10
567343.0313
 20
5937985.6102
 10
567342.9914
 20
5937985.5867
 10
567332.9518
 20
5937978.8387
 10
567323.356
 20
5937972.3948
 10
567318.6812
 20
5937969.235
 10
567317.1922
 20
5937968.2361
  0
LWPOLYLINE
  5
20055
  8
0
100
AcDbEntity
100
AcDbPolyline
 70
0
 90
43
 10
567313.8435
 20
5937985.8406
 10
567314.3403
 20
5937986.0287
 10
567314.5813
 20
5937985.9624
 10
567314.7327
 20
5937985.4787
 10
567314.8165
 20
5937984.8216
 10
567314.8176
 20
5937985.9987
 10
567314.9941
 20
5937986.229
 10
567315.4789
 20
5937986.2913
 10
567315.8992
 20
5937986.3918
 10
567316.4753
 20
5937986.3633
 10
567317.1311
 20
5937986.2611
 10
567317.7499
 20
5937985.9623
 10
567317.8108
 20
5937984.9947
 10
567318.143
 20
5937985.9098
 10
567319.1667
 20
5937985.3641
 10
567320.2642
 20
5937984.5751
 10
567320.8984
 20
5937983.8531
 10
567320.4907
 20
5937983.4525
 10
567321.0517
 20
5937983.4978
 10
567321.4729
 20
5937982.8296
 10
567321.8347
 20
5937981.6398
 10
567321.9724
 20
5937980.6619
 10
567321.2491
 20
5937980.6338
 10
567319.0157
 20
5937980.6192
 10
567321.9207
 20
5937980.4001
 10
567321.9147
 20
5937979.3736
 10
567321.525
 20
5937978.1083
 10
567320.9507
 20
5937976.9824
 10
567320.3028
 20
5937977.3611
 10
567320.7078
 20
5937976.748
 10
567320.2807
 20
5937976.1527
 10
567319.3961
 20
5937975.4112
 10
567318.2685
 20
5937974.6938
 10
567318.1001
 20
5937974.7781
 10
567317.8011
 20
5937975.3011
 10
567317.9242
 20
5937974.8563
 10
567317.839
 20
5937974.6644
 10
567316.5863
 20
5937974.1988
 10
567314.3608
 20
5937974.4525
 10
567314.2846
 20
5937974.8143
 10
567314.5485
 20
5937975.5539
 10
567314.0429
 20
5937975.003
 10
567313.8431
 20
5937975.0062
  0
LWPOLYLINE
  5
20056
  8
0
100
AcDbEntity
100
AcDbPolyline
 70
0
 90
2
 10
567360.52
 20
5938001.3727
 10
567359.2401
 20
5938002.2293
  0
LWPOLYLINE
  5
20057
  8
0
100
AcDbEntity
100
AcDbPolyline
 70
0
 90
5
 10
567369.0453
 20
5938002.9707
 10
567369.6217
 20
5938001.5865
 10
567369.391
 20
5938001.4904
 10
567368.8146
 20
5938002.8746
 10
567369.0453
 20
5938002.9707
  0
LWPOLYLINE
  5
20058
  8
0
100
AcDbEntity
100
AcDbPolyline
 70
0
 90
2
 10
567373.8461
 20
5937992.1605
 10
567374.3908
 20
5937990.2369
  0
LWPOLYLINE
  5
20059
  8
0
100
AcDbEntity
100
AcDbPolyline
 70
0
 90
5
 10
567372.584
 20
5937988.1893
 10
567372.5393
 20
5937988.3006
 10
567372.0755
 20
5937988.1143
 10
567372.1202
 20
5937988.003
 10
567372.584
 20
5937988.1893
  0
LWPOLYLINE
  5
2005A
  8
0
100
AcDbEntity
100
AcDbPolyline
 70
0
 90
5
 10
567365.399
 20
5937991.7897
 10
567365.8628
 20
5937991.976
 10
567365.9559
 20
5937991.7441
 10
567365.4921
 20
5937991.5578
 10
567365.399
 20
5937991.7897
  0
LWPOLYLINE
  5
2005B
  8
0
100
AcDbEntity
100
AcDbPolyline
 70
0
 90
5
 10
567366.0483
 20
5937992.0505
 10
567366.5121
 20
5937992.2368
 10
567366.6052
 20
5937992.0049
 10
567366.1414
 20
5937991.8186
 10
567366.0483
 20
5937992.0505
  0
LWPOLYLINE
  5
2005C
  8
0
100
AcDbEntity
100
AcDbPolyline
 70
0
 90
5
 10
567363.4511
 20
5937991.0072
 10
567363.9149
 20
5937991.1935
 10
567364.0081
 20
5937990.9616
 10
567363.5443
 20
5937990.7754
 10
567363.4511
 20
5937991.0072
  0
LWPOLYLINE
  5
2005D
  8
0
100
AcDbEntity
100
AcDbPolyline
 70
0
 90
5
 10
567364.1004
 20
5937991.2681
 10
567364.5642
 20
5937991.4544
 10
567364.6573
 20
5937991.2225
 10
567364.1936
 20
5937991.0362
 10
567364.1004
 20
5937991.2681
  0
LWPOLYLINE
  5
2005E
  8
0
100
AcDbEntity
100
AcDbPolyline
 70
0
 90
5
 10
567366.0683
 20
5937989.9894
 10
567366.5321
 20
5937990.1757
 10
567366.6252
 20
5937989.9438
 10
567366.1614
 20
5937989.7575
 10
567366.0683
 20
5937989.9894
  0
LWPOLYLINE
  5
2005F
  8
0
100
AcDbEntity
100
AcDbPolyline
 70
0
 90
5
 10
567366.6976
 20
5937992.3113
 10
567367.1614
 20
5937992.4976
 10
567367.2545
 20
5937992.2657
 10
567366.7907
 20
5937992.0794
 10
567366.6976
 20
5937992.3113
  0
LWPOLYLINE
  5
20060
  8
0
100
AcDbEntity
100
AcDbPolyline
 70
0
 90
5
 10
567369.3376
 20
5937986.8852
 10
567369.2929
 20
5937986.9965
 10
567368.8291
 20
5937986.8102
 10
567368.8738
 20
5937986.6989
 10
567369.3376
 20
5937986.8852
  0
LWPOLYLINE
  5
20061
  8
0
100
AcDbEntity
100
AcDbPolyline
 70
0
 90
5
 10
567368.9567
 20
5937985.1337
 10
567368.7232
 20
5937985.0447
 10
567369.7902
 20
5937982.2422
 10
567370.0238
 20
5937982.3311
 10
567368.9567
 20
5937985.1337
  0
LWPOLYLINE
  5
20062
  8
0
100
AcDbEntity
100
AcDbPolyline
 70
0
 90
5
 10
567366.7404
 20
5937985.842
 10
567366.6957
 20
5937985.9533
 10
567366.2319
 20
5937985.767
 10
567366.2766
 20
5937985.6557
 10
567366.7404
 20
5937985.842
  0
LWPOLYLINE
  5
20063
  8
0
100
AcDbEntity
100
AcDbPolyline
 70
0
 90
5
 10
567370.6361
 20
5937987.4069
 10
567370.5914
 20
5937987.5182
 10
567370.1277
 20
5937987.3319
 10
567370.1724
 20
5937987.2206
 10
567370.6361
 20
5937987.4069
  0
LWPOLYLINE
  5
20064
  8
0
100
AcDbEntity
100
AcDbPolyline
 70
0
 90
2
 10
567369.9642
 20
5937991.0291
 10
567370.6661
 20
5937989.1571
  0
LWPOLYLINE
  5
20065
  8
0
100
AcDbEntity
100
AcDbPolyline
 70
0
 90
5
 10
567346.353
 20
5938014.6141
 10
567346.2763
 20
5938014.7063
 10
567345.8921
 20
5938014.3866
 10
567345.9688
 20
5938014.2944
 10
567346.353
 20
5938014.6141
  0
LWPOLYLINE
  5
20066
  8
0
100
AcDbEntity
100
AcDbPolyline
 70
0
 90
5
 10
567346.861
 20
5938010.3503
 10
567347.2452
 20
5938010.67
 10
567347.405
 20
5938010.4779
 10
567347.0208
 20
5938010.1582
 10
567346.861
 20
5938010.3503
  0
LWPOLYLINE
  5
20067
  8
0
100
AcDbEntity
100
AcDbPolyline
 70
0
 90
5
 10
567347.4045
 20
5938010.7992
 10
567347.7887
 20
5938011.1189
 10
567347.9486
 20
5938010.9268
 10
567347.5644
 20
5938010.6071
 10
567347.4045
 20
5938010.7992
  0
LWPOLYLINE
  5
20068
  8
0
100
AcDbEntity
100
AcDbPolyline
 70
0
 90
5
 10
567332.1643
 20
5938039.9743
 10
567335.2579
 20
5938032.0262
 10
567337.0376
 20
5938027.4433
 10
567341.3544
 20
5938016.3083
 10
567343.2026
 20
5938017.06
  0
LWPOLYLINE
  5
20069
  8
0
100
AcDbEntity
100
AcDbPolyline
 70
0
 90
5
 10
567350.3508
 20
5938029.0718
 10
567350.005
 20
5938025.7483
 10
567350.2135
 20
5938025.3376
 10
567350.5563
 20
5938028.6319
 10
567350.3508
 20
5938029.0718
  0
LWPOLYLINE
  5
2006A
  8
0
100
AcDbEntity
100
AcDbPolyline
 70
0
 90
2
 10
567350.2877
 20
5938024.8303
 10
567344.3848
 20
5938039.9741
  0
LWPOLYLINE
  5
2006B
  8
0
100
AcDbEntity
100
AcDbPolyline
 70
0
 90
5
 10
567362.2785
 20
5938002.6368
 10
567362.0455
 20
5938002.5466
 10
567362.5868
 20
5938001.1483
 10
567362.8198
 20
5938001.2385
 10
567362.2785
 20
5938002.6368
  0
LWPOLYLINE
  5
2006C
  8
0
100
AcDbEntity
100
AcDbPolyline
 70
0
 90
5
 10
567349.8125
 20
5938000.9807
 10
567349.5818
 20
5938000.8849
 10
567350.1569
 20
5937999.5002
 10
567350.3876
 20
5937999.596
 10
567349.8125
 20
5938000.9807
  0
LWPOLYLINE
  5
2006D
  8
0
100
AcDbEntity
100
AcDbPolyline
 70
0
 90
5
 10
567352.1106
 20
5937995.4407
 10
567351.8797
 20
5937995.3452
 10
567352.4531
 20
5937993.9598
 10
567352.684
 20
5937994.0553
 10
567352.1106
 20
5937995.4407
  0
LWPOLYLINE
  5
2006E
  8
0
100
AcDbEntity
100
AcDbPolyline
 70
0
 90
5
 10
567362.1259
 20
5937983.9858
 10
567362.0834
 20
5937984.098
 10
567361.616
 20
5937983.9208
 10
567361.6586
 20
5937983.8086
 10
567362.1259
 20
5937983.9858
  0
LWPOLYLINE
  5
2006F
  8
0
100
AcDbEntity
100
AcDbPolyline
 70
0
 90
5
 10
567360.8138
 20
5937983.488
 10
567360.7713
 20
5937983.6002
 10
567360.3039
 20
5937983.423
 10
567360.3464
 20
5937983.3109
 10
567360.8138
 20
5937983.488
  0
LWPOLYLINE
  5
20070
  8
0
100
AcDbEntity
100
AcDbPolyline
 70
0
 90
5
 10
567353.2564
 20
5937992.6694
 10
567353.0254
 20
5937992.574
 10
567353.5975
 20
5937991.188
 10
567353.8285
 20
5937991.2834
 10
567353.2564
 20
5937992.6694
  0
LWPOLYLINE
  5
20071
  8
0
100
AcDbEntity
100
AcDbPolyline
 70
0
 90
2
 10
567360.8636
 20
5937982.299
 10
567362.0381
 20
5937979.5398
  0
LWPOLYLINE
  5
20072
  8
0
100
AcDbEntity
100
AcDbPolyline
 70
0
 90
2
 10
567362.9246
 20
5938009.3537
 10
567364.0036
 20
5938006.5561
  0
LWPOLYLINE
  5
20073
  8
0
100
AcDbEntity
100
AcDbPolyline
 70
0
 90
5
 10
567358.8061
 20
5938020.1659
 10
567359.1903
 20
5938020.4856
 10
567359.3501
 20
5938020.2935
 10
567358.966
 20
5938019.9738
 10
567358.8061
 20
5938020.1659
  0
LWPOLYLINE
  5
20074
  8
0
100
AcDbEntity
100
AcDbPolyline
 70
0
 90
5
 10
567354.5287
 20
5938021.3735
 10
567354.452
 20
5938021.4657
 10
567354.0679
 20
5938021.1459
 10
567354.1446
 20
5938021.0537
 10
567354.5287
 20
5938021.3735
  0
LWPOLYLINE
  5
20075
  8
0
100
AcDbEntity
100
AcDbPolyline
 70
0
 90
5
 10
567352.2625
 20
5938019.537
 10
567352.1857
 20
5938019.6292
 10
567351.8015
 20
5938019.3095
 10
567351.8783
 20
5938019.2173
 10
567352.2625
 20
5938019.537
  0
LWPOLYLINE
  5
20076
  8
0
100
AcDbEntity
100
AcDbPolyline
 70
0
 90
5
 10
567351.1868
 20
5938018.6418
 10
567351.11
 20
5938018.734
 10
567350.7259
 20
5938018.4143
 10
567350.8026
 20
5938018.3221
 10
567351.1868
 20
5938018.6418
  0
LWPOLYLINE
  5
20077
  8
0
100
AcDbEntity
100
AcDbPolyline
 70
0
 90
5
 10
567349.5732
 20
5938017.2991
 10
567349.4965
 20
5938017.3912
 10
567349.1123
 20
5938017.0715
 10
567349.189
 20
5938016.9793
 10
567349.5732
 20
5938017.2991
  0
LWPOLYLINE
  5
20078
  8
0
100
AcDbEntity
100
AcDbPolyline
 70
0
 90
5
 10
567351.7246
 20
5938019.0894
 10
567351.6479
 20
5938019.1816
 10
567351.2637
 20
5938018.8619
 10
567351.3404
 20
5938018.7697
 10
567351.7246
 20
5938019.0894
  0
LWPOLYLINE
  5
20079
  8
0
100
AcDbEntity
100
AcDbPolyline
 70
0
 90
5
 10
567349.1419
 20
5938019.0858
 10
567348.9089
 20
5938018.9956
 10
567347.8277
 20
5938021.7928
 10
567348.0608
 20
5938021.8829
 10
567349.1419
 20
5938019.0858
  0
LWPOLYLINE
  5
2007A
  8
0
100
AcDbEntity
100
AcDbPolyline
 70
0
 90
5
 10
567357.3825
 20
5938013.5848
 10
567357.6089
 20
5938013.6906
 10
567358.2434
 20
5938012.332
 10
567358.0169
 20
5938012.2263
 10
567357.3825
 20
5938013.5848
  0
LWPOLYLINE
  5
2007B
  8
0
100
AcDbEntity
100
AcDbPolyline
 70
0
 90
5
 10
567351.7016
 20
5938014.3786
 10
567352.0858
 20
5938014.6983
 10
567352.2457
 20
5938014.5062
 10
567351.8615
 20
5938014.1865
 10
567351.7016
 20
5938014.3786
  0
LWPOLYLINE
  5
2007C
  8
0
100
AcDbEntity
100
AcDbPolyline
 70
0
 90
5
 10
567352.8518
 20
5938013.0165
 10
567353.236
 20
5938013.3362
 10
567353.3959
 20
5938013.1442
 10
567353.0117
 20
5938012.8245
 10
567352.8518
 20
5938013.0165
  0
LWPOLYLINE
  5
2007D
  8
0
100
AcDbEntity
100
AcDbPolyline
 70
0
 90
5
 10
567352.314
 20
5938012.5689
 10
567352.6982
 20
5938012.8887
 10
567352.858
 20
5938012.6966
 10
567352.4738
 20
5938012.3769
 10
567352.314
 20
5938012.5689
  0
LWPOLYLINE
  5
2007E
  8
0
100
AcDbEntity
100
AcDbPolyline
 70
0
 90
5
 10
567350.0881
 20
5938013.0358
 10
567350.4723
 20
5938013.3555
 10
567350.6321
 20
5938013.1634
 10
567350.2479
 20
5938012.8437
 10
567350.0881
 20
5938013.0358
  0
LWPOLYLINE
  5
2007F
  8
0
100
AcDbEntity
100
AcDbPolyline
 70
0
 90
5
 10
567349.6248
 20
5938010.331
 10
567350.0089
 20
5938010.6507
 10
567350.1688
 20
5938010.4586
 10
567349.7846
 20
5938010.1389
 10
567349.6248
 20
5938010.331
  0
LWPOLYLINE
  5
20080
  8
0
100
AcDbEntity
100
AcDbPolyline
 70
0
 90
5
 10
567349.0124
 20
5938012.1407
 10
567349.3966
 20
5938012.4603
 10
567349.5564
 20
5938012.2683
 10
567349.1722
 20
5938011.9486
 10
567349.0124
 20
5938012.1407
  0
LWPOLYLINE
  5
20081
  8
0
100
AcDbEntity
100
AcDbPolyline
 70
0
 90
5
 10
567349.5502
 20
5938012.5882
 10
567349.9344
 20
5938012.9079
 10
567350.0943
 20
5938012.7158
 10
567349.7101
 20
5938012.3961
 10
567349.5502
 20
5938012.5882
  0
LWPOLYLINE
  5
20082
  8
0
100
AcDbEntity
100
AcDbPolyline
 70
0
 90
5
 10
567349.0869
 20
5938009.8834
 10
567349.4711
 20
5938010.2031
 10
567349.6309
 20
5938010.0111
 10
567349.2467
 20
5938009.6914
 10
567349.0869
 20
5938009.8834
  0
LWPOLYLINE
  5
20083
  8
0
100
AcDbEntity
100
AcDbPolyline
 70
0
 90
5
 10
567353.022
 20
5938009.9915
 10
567352.7911
 20
5938009.8958
 10
567353.3658
 20
5938008.5109
 10
567353.5966
 20
5938008.6067
 10
567353.022
 20
5938009.9915
  0
LWPOLYLINE
  5
20084
  8
0
100
AcDbEntity
100
AcDbPolyline
 70
0
 90
2
 10
567364.8925
 20
5938024.9372
 10
567364.1591
 20
5938024.6183
  0
LWPOLYLINE
  5
20085
  8
0
100
AcDbEntity
100
AcDbPolyline
 70
0
 90
5
 10
567366.3962
 20
5938016.9372
 10
567366.5988
 20
5938016.4803
 10
567366.3703
 20
5938016.379
 10
567366.1677
 20
5938016.8359
 10
567366.3962
 20
5938016.9372
  0
LWPOLYLINE
  5
20086
  8
0
100
AcDbEntity
100
AcDbPolyline
 70
0
 90
5
 10
567375.1293
 20
5938013.1697
 10
567375.2387
 20
5938013.2187
 10
567375.4429
 20
5938012.7625
 10
567375.3334
 20
5938012.7135
 10
567375.1293
 20
5938013.1697
  0
LWPOLYLINE
  5
20087
  8
0
100
AcDbEntity
100
AcDbPolyline
 70
0
 90
5
 10
567374.5577
 20
5938014.4471
 10
567374.6671
 20
5938014.4961
 10
567374.8713
 20
5938014.0399
 10
567374.7618
 20
5938013.9909
 10
567374.5577
 20
5938014.4471
  0
LWPOLYLINE
  5
20088
  8
0
100
AcDbEntity
100
AcDbPolyline
 70
0
 90
5
 10
567372.515
 20
5938006.8818
 10
567372.3025
 20
5938007.3342
 10
567372.5287
 20
5938007.4404
 10
567372.7412
 20
5938006.988
 10
567372.515
 20
5938006.8818
  0
LWPOLYLINE
  5
20089
  8
0
100
AcDbEntity
100
AcDbPolyline
 70
0
 90
2
 10
567374.3052
 20
5938005.5884
 10
567375.4106
 20
5938007.2542
  0
LWPOLYLINE
  5
2008A
  8
0
100
AcDbEntity
100
AcDbPolyline
 70
0
 90
5
 10
567369.5409
 20
5938013.2154
 10
567369.3284
 20
5938013.6678
 10
567369.5546
 20
5938013.774
 10
567369.7671
 20
5938013.3216
 10
567369.5409
 20
5938013.2154
  0
LWPOLYLINE
  5
2008B
  8
0
100
AcDbEntity
100
AcDbPolyline
 70
0
 90
5
 10
567369.2435
 20
5938013.8488
 10
567369.031
 20
5938014.3012
 10
567369.2572
 20
5938014.4074
 10
567369.4697
 20
5938013.955
 10
567369.2435
 20
5938013.8488
  0
LWPOLYLINE
  5
2008C
  8
0
100
AcDbEntity
100
AcDbPolyline
 70
0
 90
5
 10
567368.9461
 20
5938014.4821
 10
567368.7336
 20
5938014.9345
 10
567368.9598
 20
5938015.0408
 10
567369.1722
 20
5938014.5884
 10
567368.9461
 20
5938014.4821
  0
LWPOLYLINE
  5
2008D
  8
0
100
AcDbEntity
100
AcDbPolyline
 70
0
 90
5
 10
567370.7305
 20
5938010.682
 10
567370.5181
 20
5938011.1344
 10
567370.7443
 20
5938011.2406
 10
567370.9567
 20
5938010.7882
 10
567370.7305
 20
5938010.682
  0
LWPOLYLINE
  5
2008E
  8
0
100
AcDbEntity
100
AcDbPolyline
 70
0
 90
5
 10
567368.6652
 20
5938011.82
 10
567368.8678
 20
5938011.3631
 10
567368.6394
 20
5938011.2618
 10
567368.4368
 20
5938011.7187
 10
567368.6652
 20
5938011.82
  0
LWPOLYLINE
  5
2008F
  8
0
100
AcDbEntity
100
AcDbPolyline
 70
0
 90
5
 10
567369.2325
 20
5938010.5407
 10
567369.4351
 20
5938010.0838
 10
567369.2066
 20
5938009.9825
 10
567369.0041
 20
5938010.4394
 10
567369.2325
 20
5938010.5407
  0
LWPOLYLINE
  5
20090
  8
0
100
AcDbEntity
100
AcDbPolyline
 70
0
 90
5
 10
567365.5867
 20
5938011.2756
 10
567366.1631
 20
5938009.8914
 10
567365.9324
 20
5938009.7954
 10
567365.356
 20
5938011.1795
 10
567365.5867
 20
5938011.2756
  0
LWPOLYLINE
  5
20091
  8
0
100
AcDbEntity
100
AcDbPolyline
 70
0
 90
5
 10
567367.247
 20
5938015.0182
 10
567367.4496
 20
5938014.5613
 10
567367.2212
 20
5938014.46
 10
567367.0186
 20
5938014.9169
 10
567367.247
 20
5938015.0182
  0
LWPOLYLINE
  5
20092
  8
0
100
AcDbEntity
100
AcDbPolyline
 70
0
 90
5
 10
567370.367
 20
5938007.9821
 10
567370.5696
 20
5938007.5252
 10
567370.3412
 20
5938007.4239
 10
567370.1386
 20
5938007.8808
 10
567370.367
 20
5938007.9821
  0
LWPOLYLINE
  5
20093
  8
0
100
AcDbEntity
100
AcDbPolyline
 70
0
 90
5
 10
567367.8924
 20
5938005.739
 10
567368.4688
 20
5938004.3548
 10
567368.2381
 20
5938004.2587
 10
567367.6617
 20
5938005.6429
 10
567367.8924
 20
5938005.739
  0
LWPOLYLINE
  5
20094
  8
0
100
AcDbEntity
100
AcDbPolyline
 70
0
 90
5
 10
567369.5161
 20
5938009.901
 10
567369.7187
 20
5938009.4441
 10
567369.4903
 20
5938009.3428
 10
567369.2877
 20
5938009.7997
 10
567369.5161
 20
5938009.901
  0
LWPOLYLINE
  5
20095
  8
0
100
AcDbEntity
100
AcDbPolyline
 70
0
 90
5
 10
567370.9343
 20
5938006.7028
 10
567371.1369
 20
5938006.2459
 10
567370.9084
 20
5938006.1446
 10
567370.7058
 20
5938006.6015
 10
567370.9343
 20
5938006.7028
  0
LWPOLYLINE
  5
20096
  8
0
100
AcDbEntity
100
AcDbPolyline
 70
0
 90
2
 10
567381.2776
 20
5937970.0072
 10
567381.9738
 20
5937968.2018
  0
LWPOLYLINE
  5
20097
  8
0
100
AcDbEntity
100
AcDbPolyline
 70
0
 90
2
 10
567373.8676
 20
5937980.6572
 10
567374.9336
 20
5937977.8543
  0
LWPOLYLINE
  5
20098
  8
0
100
AcDbEntity
100
AcDbPolyline
 70
0
 90
5
 10
567366.226
 20
5937980.4264
 10
567366.1501
 20
5937978.6734
 10
567366.3772
 20
5937978.1405
 10
567366.4849
 20
5937980.6293
 10
567366.226
 20
5937980.4264
  0
LWPOLYLINE
  5
20099
  8
0
100
AcDbEntity
100
AcDbPolyline
 70
0
 90
5
 10
567367.9993
 20
5937978.3547
 10
567367.8413
 20
5937974.7044
 10
567368.0684
 20
5937974.1715
 10
567368.2239
 20
5937977.7644
 10
567367.9993
 20
5937978.3547
  0
LWPOLYLINE
  5
2009A
  8
0
100
AcDbEntity
100
AcDbPolyline
 70
0
 90
5
 10
567370.5083
 20
5937971.7594
 10
567370.378
 20
5937968.751
 10
567370.6051
 20
5937968.2181
 10
567370.7328
 20
5937971.169
 10
567370.5083
 20
5937971.7594
  0
LWPOLYLINE
  5
2009B
  8
0
100
AcDbEntity
100
AcDbPolyline
 70
0
 90
5
 10
567369.6719
 20
5937973.9578
 10
567369.5325
 20
5937970.7354
 10
567369.7595
 20
5937970.2026
 10
567369.8965
 20
5937973.3675
 10
567369.6719
 20
5937973.9578
  0
LWPOLYLINE
  5
2009C
  8
0
100
AcDbEntity
100
AcDbPolyline
 70
0
 90
5
 10
567349.5857
 20
5938030.7101
 10
567349.2666
 20
5938027.6441
 10
567349.4649
 20
5938027.135
 10
567349.7911
 20
5938030.2702
 10
567349.5857
 20
5938030.7101
  0
LWPOLYLINE
  5
2009D
  8
0
100
AcDbEntity
100
AcDbPolyline
 70
0
 90
5
 10
567361.495
 20
5938022.4042
 10
567361.8791
 20
5938022.724
 10
567362.039
 20
5938022.5319
 10
567361.6549
 20
5938022.2122
 10
567361.495
 20
5938022.4042
  0
LWPOLYLINE
  5
2009E
  8
0
100
AcDbEntity
100
AcDbPolyline
 70
0
 90
5
 10
567359.1649
 20
5938025.2261
 10
567359.0882
 20
5938025.3183
 10
567358.704
 20
5938024.9985
 10
567358.7808
 20
5938024.9063
 10
567359.1649
 20
5938025.2261
  0
LWPOLYLINE
  5
2009F
  8
0
100
AcDbEntity
100
AcDbPolyline
 70
0
 90
5
 10
567357.0138
 20
5938023.4354
 10
567356.9371
 20
5938023.5276
 10
567356.5529
 20
5938023.2078
 10
567356.6297
 20
5938023.1156
 10
567357.0138
 20
5938023.4354
  0
LWPOLYLINE
  5
200A0
  8
0
100
AcDbEntity
100
AcDbPolyline
 70
0
 90
5
 10
567356.476
 20
5938022.9877
 10
567356.3993
 20
5938023.0799
 10
567356.0151
 20
5938022.7601
 10
567356.0919
 20
5938022.668
 10
567356.476
 20
5938022.9877
  0
LWPOLYLINE
  5
200A1
  8
0
100
AcDbEntity
100
AcDbPolyline
 70
0
 90
5
 10
567357.5516
 20
5938023.8831
 10
567357.4748
 20
5938023.9753
 10
567357.0907
 20
5938023.6555
 10
567357.1674
 20
5938023.5633
 10
567357.5516
 20
5938023.8831
  0
LWPOLYLINE
  5
200A2
  8
0
100
AcDbEntity
100
AcDbPolyline
 70
0
 90
5
 10
567361.7763
 20
5938020.3436
 10
567362.1604
 20
5938020.6634
 10
567362.3203
 20
5938020.4713
 10
567361.9361
 20
5938020.1515
 10
567361.7763
 20
5938020.3436
  0
LWPOLYLINE
  5
200A3
  8
0
100
AcDbEntity
100
AcDbPolyline
 70
0
 90
5
 10
567359.6252
 20
5938018.5529
 10
567360.0093
 20
5938018.8727
 10
567360.1692
 20
5938018.6806
 10
567359.785
 20
5938018.3608
 10
567359.6252
 20
5938018.5529
  0
LWPOLYLINE
  5
200A4
  8
0
100
AcDbEntity
100
AcDbPolyline
 70
0
 90
5
 10
567360.1629
 20
5938019.0006
 10
567360.5471
 20
5938019.3203
 10
567360.7069
 20
5938019.1283
 10
567360.3228
 20
5938018.8085
 10
567360.1629
 20
5938019.0006
  0
LWPOLYLINE
  5
200A5
  8
0
100
AcDbEntity
100
AcDbPolyline
 70
0
 90
5
 10
567361.2385
 20
5938019.8959
 10
567361.6226
 20
5938020.2157
 10
567361.7825
 20
5938020.0236
 10
567361.3984
 20
5938019.7039
 10
567361.2385
 20
5938019.8959
  0
LWPOLYLINE
  5
200A6
  8
0
100
AcDbEntity
100
AcDbPolyline
 70
0
 90
5
 10
567357.1928
 20
5938018.8228
 10
567357.5769
 20
5938019.1426
 10
567357.7368
 20
5938018.9505
 10
567357.3527
 20
5938018.6308
 10
567357.1928
 20
5938018.8228
  0
LWPOLYLINE
  5
200A7
  8
0
100
AcDbEntity
100
AcDbPolyline
 70
0
 90
5
 10
567358.5496
 20
5938017.6576
 10
567358.9337
 20
5938017.9773
 10
567359.0936
 20
5938017.7853
 10
567358.7095
 20
5938017.4655
 10
567358.5496
 20
5938017.6576
  0
LWPOLYLINE
  5
200A8
  8
0
100
AcDbEntity
100
AcDbPolyline
 70
0
 90
5
 10
567373.4147
 20
5938016.9969
 10
567373.5242
 20
5938017.046
 10
567373.7283
 20
5938016.5898
 10
567373.6188
 20
5938016.5407
 10
567373.4147
 20
5938016.9969
  0
LWPOLYLINE
  5
200A9
  8
0
100
AcDbEntity
100
AcDbPolyline
 70
0
 90
4
 10
567344.5595
 20
5938011.6885
 10
567345.8847
 20
5938013.2317
 10
567346.3537
 20
5938012.6468
 10
567344.5595
 20
5938011.6885
  0
LWPOLYLINE
  5
200AA
  8
0
100
AcDbEntity
100
AcDbPolyline
 70
0
 90
2
 10
567332.0654
 20
5938035.9914
 10
567334.6278
 20
5938037.1176
  0
LWPOLYLINE
  5
200AB
  8
0
100
AcDbEntity
100
AcDbPolyline
 70
0
 90
13
 10
567373.7184
 20
5937992.6546
 10
567373.5935
 20
5937992.6212
 10
567373.502
 20
5937992.5297
 10
567373.4685
 20
5937992.4047
 10
567373.502
 20
5937992.2798
 10
567373.5935
 20
5937992.1883
 10
567373.7184
 20
5937992.1548
 10
567373.8434
 20
5937992.1883
 10
567373.9349
 20
5937992.2798
 10
567373.9683
 20
5937992.4047
 10
567373.9349
 20
5937992.5297
 10
567373.8434
 20
5937992.6212
 10
567373.7184
 20
5937992.6546
  0
LWPOLYLINE
  5
200AC
  8
0
100
AcDbEntity
100
AcDbPolyline
 70
0
 90
3
 10
567373.3584
 20
5938017.0474
 10
567373.8027
 20
5938017.1876
 10
567374.2404
 20
5938017.3472
  0
LWPOLYLINE
  5
200AD
  8
0
100
AcDbEntity
100
AcDbPolyline
 70
0
 90
5
 10
567361.1895
 20
5938005.4313
 10
567360.9567
 20
5938005.3403
 10
567361.5028
 20
5938003.9439
 10
567361.7355
 20
5938004.0349
 10
567361.1895
 20
5938005.4313
  0
LWPOLYLINE
  5
200AE
  8
0
100
AcDbEntity
100
AcDbPolyline
 70
0
 90
2
 10
567324.1141
 20
5937976.8554
 10
567321.6224
 20
5937975.1868
  0
LWPOLYLINE
  5
200AF
  8
0
100
AcDbEntity
100
AcDbPolyline
 70
0
 90
5
 10
567371.0909
 20
5937979.5286
 10
567370.8573
 20
5937979.4397
 10
567371.9244
 20
5937976.6372
 10
567372.1579
 20
5937976.7261
 10
567371.0909
 20
5937979.5286
  0
LWPOLYLINE
  5
200B0
  8
0
100
AcDbEntity
100
AcDbPolyline
 70
0
 90
4
 10
567371.5359
 20
5937968.2019
 10
567371.5691
 20
5937968.9706
 10
567371.3446
 20
5937969.5609
 10
567371.2857
 20
5937968.2019
  0
LWPOLYLINE
  5
200B1
  8
0
100
AcDbEntity
100
AcDbPolyline
 70
0
 90
9
 10
567386.3096
 20
5937968.2018
 10
567385.5063
 20
5937970.037
 10
567384.7768
 20
5937971.7282
 10
567380.8173
 20
5937981.0311
 10
567380.6939
 20
5937981.3286
 10
567379.7209
 20
5937983.8412
 10
567377.1308
 20
5937990.7137
 10
567375.8847
 20
5937993.9068
 10
567373.6124
 20
5937993.0053
  0
LWPOLYLINE
  5
200B2
  8
0
100
AcDbEntity
100
AcDbPolyline
 70
0
 90
4
 10
567374.7531
 20
5937986.9548
 10
567379.1504
 20
5937975.5283
 10
567379.9643
 20
5937973.4146
 10
567383.5978
 20
5937974.4968
  0
LWPOLYLINE
  5
200B3
  8
0
100
AcDbEntity
100
AcDbPolyline
 70
0
 90
5
 10
567345.7599
 20
5938038.9013
 10
567345.5749
 20
5938037.1231
 10
567345.7732
 20
5938036.614
 10
567345.9654
 20
5938038.4613
 10
567345.7599
 20
5938038.9013
  0
LWPOLYLINE
  5
200B4
  8
0
100
AcDbEntity
100
AcDbPolyline
 70
0
 90
5
 10
567360.4195
 20
5938021.5089
 10
567360.8036
 20
5938021.8286
 10
567360.9634
 20
5938021.6366
 10
567360.5793
 20
5938021.3168
 10
567360.4195
 20
5938021.5089
  0
LWPOLYLINE
  5
200B5
  8
0
100
AcDbEntity
100
AcDbPolyline
 70
0
 90
5
 10
567351.7761
 20
5938012.1214
 10
567352.1603
 20
5938012.4411
 10
567352.3201
 20
5938012.249
 10
567351.936
 20
5938011.9293
 10
567351.7761
 20
5938012.1214
  0
LWPOLYLINE
  5
200B6
  8
0
100
AcDbEntity
100
AcDbPolyline
 70
0
 90
5
 10
567365.419
 20
5937989.7286
 10
567365.8828
 20
5937989.9149
 10
567365.9759
 20
5937989.683
 10
567365.5122
 20
5937989.4967
 10
567365.419
 20
5937989.7286
  0
LWPOLYLINE
  5
200B7
  8
0
100
AcDbEntity
100
AcDbPolyline
 70
0
 90
2
 10
567349.7126
 20
5937987.718
 10
567349.9095
 20
5937986.943
  0
LWPOLYLINE
  5
200B8
  8
0
100
AcDbEntity
100
AcDbPolyline
 70
0
 90
2
 10
567381.2405
 20
5937977.8476
 10
567378.6279
 20
5937976.8437
  0
LWPOLYLINE
  5
200B9
  8
0
100
AcDbEntity
100
AcDbPolyline
 70
0
 90
5
 10
567347.6412
 20
5937998.2453
 10
567347.8436
 20
5937997.7883
 10
567347.6152
 20
5937997.6871
 10
567347.4128
 20
5937998.1441
 10
567347.6412
 20
5937998.2453
  0
LWPOLYLINE
  5
200BA
  8
0
100
AcDbEntity
100
AcDbPolyline
 70
0
 90
5
 10
567348.6025
 20
5937991.7467
 10
567348.8047
 20
5937991.2897
 10
567348.5761
 20
5937991.1886
 10
567348.3739
 20
5937991.6456
 10
567348.6025
 20
5937991.7467
  0
LWPOLYLINE
  5
200BB
  8
0
100
AcDbEntity
100
AcDbPolyline
 70
0
 90
5
 10
567347.1871
 20
5937994.9463
 10
567347.3893
 20
5937994.4892
 10
567347.1608
 20
5937994.3881
 10
567346.9586
 20
5937994.8451
 10
567347.1871
 20
5937994.9463
  0
LWPOLYLINE
  5
200BC
  8
0
100
AcDbEntity
100
AcDbPolyline
 70
0
 90
5
 10
567348.0112
 20
5938008.9883
 10
567348.3954
 20
5938009.308
 10
567348.5552
 20
5938009.1159
 10
567348.171
 20
5938008.7962
 10
567348.0112
 20
5938008.9883
  0
LWPOLYLINE
  5
200BD
  8
0
100
AcDbEntity
100
AcDbPolyline
 70
0
 90
5
 10
567376.2724
 20
5938010.615
 10
567376.3819
 20
5938010.664
 10
567376.5861
 20
5938010.2078
 10
567376.4766
 20
5938010.1588
 10
567376.2724
 20
5938010.615
  0
LWPOLYLINE
  5
200BE
  8
0
100
AcDbEntity
100
AcDbPolyline
 70
0
 90
5
 10
567367.5307
 20
5938014.3786
 10
567367.7333
 20
5938013.9217
 10
567367.5048
 20
5938013.8204
 10
567367.3022
 20
5938014.2773
 10
567367.5307
 20
5938014.3786
  0
LWPOLYLINE
  5
200BF
  8
0
100
AcDbEntity
100
AcDbPolyline
 70
0
 90
5
 10
567356.8535
 20
5937981.9179
 10
567355.6775
 20
5937981.44
 10
567355.749
 20
5937981.264
 10
567356.925
 20
5937981.742
 10
567356.8535
 20
5937981.9179
  0
LWPOLYLINE
  5
200C0
  8
0
100
AcDbEntity
100
AcDbPolyline
 70
0
 90
2
 10
567369.9642
 20
5937991.0291
 10
567373.618
 20
5937992.6335
  0
LWPOLYLINE
  5
200C1
  8
0
100
AcDbEntity
100
AcDbPolyline
 70
0
 90
2
 10
567385.9968
 20
5937972.2401
 10
567388.3426
 20
5937973.1233
  0
LWPOLYLINE
  5
200C2
  8
0
100
AcDbEntity
100
AcDbPolyline
 70
0
 90
2
 10
567351.0325
 20
5938005.9894
 10
567352.1828
 20
5938003.2201
  0
LWPOLYLINE
  5
200C3
  8
0
100
AcDbEntity
100
AcDbPolyline
 70
0
 90
5
 10
567342.574
 20
5937996.0909
 10
567342.777
 20
5937995.6342
 10
567342.6674
 20
5937995.5855
 10
567342.4644
 20
5937996.0422
 10
567342.574
 20
5937996.0909
  0
LWPOLYLINE
  5
200C4
  8
0
100
AcDbEntity
100
AcDbPolyline
 70
0
 90
5
 10
567342.2897
 20
5937996.7303
 10
567342.4928
 20
5937996.2736
 10
567342.3831
 20
5937996.2248
 10
567342.1801
 20
5937996.6815
 10
567342.2897
 20
5937996.7303
  0
LWPOLYLINE
  5
200C5
  8
0
100
AcDbEntity
100
AcDbPolyline
 70
0
 90
5
 10
567374.2719
 20
5938015.0858
 10
567374.3813
 20
5938015.1348
 10
567374.5855
 20
5938014.6786
 10
567374.476
 20
5938014.6296
 10
567374.2719
 20
5938015.0858
  0
LWPOLYLINE
  5
200C6
  8
0
100
AcDbEntity
100
AcDbPolyline
 70
0
 90
23
 10
567348.7222
 20
5938024.803
 10
567348.3568
 20
5938025.7869
 10
567348.2825
 20
5938025.7741
 10
567348.1836
 20
5938025.7963
 10
567348.0753
 20
5938025.8806
 10
567347.998
 20
5938025.9684
 10
567347.8995
 20
5938026.1088
 10
567347.7972
 20
5938026.2952
 10
567347.6964
 20
5938026.5546
 10
567346.5939
 20
5938029.3441
 10
567346.711
 20
5938029.3876
 10
567346.8281
 20
5938029.4311
 10
567347.3209
 20
5938028.0146
 10
567347.8136
 20
5938026.5981
 10
567347.8686
 20
5938026.4859
 10
567347.926
 20
5938026.3984
 10
567347.9939
 20
5938026.3194
 10
567348.0698
 20
5938026.2615
 10
567348.1455
 20
5938026.2466
 10
567348.1828
 20
5938026.2554
 10
567347.887
 20
5938027.0519
 10
567348.5335
 20
5938026.1725
 10
567348.7222
 20
5938024.803
  0
LWPOLYLINE
  5
200C7
  8
0
100
AcDbEntity
100
AcDbPolyline
 70
0
 90
23
 10
567354.6671
 20
5938017.7768
 10
567354.4207
 20
5938017.7414
 10
567354.1942
 20
5938017.6379
 10
567354.0061
 20
5938017.4749
 10
567353.8715
 20
5938017.2655
 10
567353.8013
 20
5938017.0266
 10
567353.8013
 20
5938016.7777
 10
567353.8714
 20
5938016.5388
 10
567354.006
 20
5938016.3294
 10
567354.1942
 20
5938016.1663
 10
567354.4206
 20
5938016.0629
 10
567354.667
 20
5938016.0275
 10
567354.9134
 20
5938016.0629
 10
567355.1399
 20
5938016.1663
 10
567355.328
 20
5938016.3293
 10
567355.4626
 20
5938016.5388
 10
567355.5328
 20
5938016.7777
 10
567355.5328
 20
5938017.0266
 10
567355.4626
 20
5938017.2655
 10
567355.3281
 20
5938017.4749
 10
567355.1399
 20
5938017.6379
 10
567354.9135
 20
5938017.7414
 10
567354.6671
 20
5938017.7768
  0
LWPOLYLINE
  5
200C8
  8
0
100
AcDbEntity
100
AcDbPolyline
 70
0
 90
2
 10
567372.9398
 20
5937991.7514
 10
567374.5539
 20
5937987.4294
  0
LWPOLYLINE
  5
200C9
  8
0
100
AcDbEntity
100
AcDbPolyline
 70
0
 90
4
 10
567359.4682
 20
5938025.0669
 10
567360.0508
 20
5938023.9226
 10
567360.681
 20
5938022.8037
 10
567361.3577
 20
5938021.7123
  0
LWPOLYLINE
  5
200CA
  8
0
100
AcDbEntity
100
AcDbPolyline
 70
0
 90
2
 10
567334.081
 20
5937983.5297
 10
567331.5893
 20
5937981.8611
  0
LWPOLYLINE
  5
200CB
  8
0
100
AcDbEntity
100
AcDbPolyline
 70
0
 90
5
 10
567347.3579
 20
5937998.8851
 10
567347.5603
 20
5937998.4281
 10
567347.3318
 20
5937998.3269
 10
567347.1294
 20
5937998.7839
 10
567347.3579
 20
5937998.8851
  0
LWPOLYLINE
  5
200CC
  8
0
100
AcDbEntity
100
AcDbPolyline
 70
0
 90
5
 10
567342.655
 20
5938035.8684
 10
567342.4219
 20
5938035.7783
 10
567341.3407
 20
5938038.5754
 10
567341.5738
 20
5938038.6655
 10
567342.655
 20
5938035.8684
  0
LWPOLYLINE
  5
200CD
  8
0
100
AcDbEntity
100
AcDbPolyline
 70
0
 90
5
 10
567369.964
 20
5937991.5543
 10
567370.4278
 20
5937991.7406
 10
567370.5209
 20
5937991.5087
 10
567370.0572
 20
5937991.3224
 10
567369.964
 20
5937991.5543
  0
LWPOLYLINE
  5
200CE
  8
0
100
AcDbEntity
100
AcDbPolyline
 70
0
 90
2
 10
567374.9415
 20
5937987.2233
 10
567376.6237
 20
5937987.196
  0
LWPOLYLINE
  5
200CF
  8
0
100
AcDbEntity
100
AcDbPolyline
 70
0
 90
5
 10
567346.0548
 20
5937997.5059
 10
567346.257
 20
5937997.0488
 10
567346.0285
 20
5937996.9477
 10
567345.8263
 20
5937997.4047
 10
567346.0548
 20
5937997.5059
  0
LWPOLYLINE
  5
200D0
  8
0
100
AcDbEntity
100
AcDbPolyline
 70
0
 90
5
 10
567370.0834
 20
5938008.6217
 10
567370.286
 20
5938008.1649
 10
567370.0576
 20
5938008.0636
 10
567369.855
 20
5938008.5204
 10
567370.0834
 20
5938008.6217
  0
LWPOLYLINE
  5
200D1
  8
0
100
AcDbEntity
100
AcDbPolyline
 70
0
 90
5
 10
567371.0279
 20
5938010.0486
 10
567370.8155
 20
5938010.501
 10
567371.0417
 20
5938010.6072
 10
567371.2541
 20
5938010.1548
 10
567371.0279
 20
5938010.0486
  0
LWPOLYLINE
  5
200D2
  8
0
100
AcDbEntity
100
AcDbPolyline
 70
0
 90
4
 10
567344.6622
 20
5937999.2098
 10
567345.1119
 20
5937999.7863
 10
567345.5184
 20
5938000.3942
 10
567345.8792
 20
5938001.0301
  0
LWPOLYLINE
  5
200D3
  8
0
100
AcDbEntity
100
AcDbPolyline
 70
0
 90
3
 10
567337.738
 20
5937982.0557
 10
567338.8799
 20
5937980.3574
 10
567339.7161
 20
5937980.9078
  0
LWPOLYLINE
  5
200D4
  8
0
100
AcDbEntity
100
AcDbPolyline
 70
0
 90
2
 10
567373.3903
 20
5937993.0876
 10
567373.6325
 20
5937992.6394
  0
LWPOLYLINE
  5
200D5
  8
0
100
AcDbEntity
100
AcDbPolyline
 70
0
 90
9
 10
567376.6237
 20
5937987.2825
 10
567376.5626
 20
5937987.2571
 10
567376.5372
 20
5937987.196
 10
567376.5625
 20
5937987.1348
 10
567376.6237
 20
5937987.1095
 10
567376.6849
 20
5937987.1348
 10
567376.7102
 20
5937987.196
 10
567376.6849
 20
5937987.2571
 10
567376.6237
 20
5937987.2825
  0
LWPOLYLINE
  5
200D6
  8
0
100
AcDbEntity
100
AcDbPolyline
 70
0
 90
2
 10
567376.2338
 20
5938009.7098
 10
567373.9433
 20
5938007.8596
  0
LWPOLYLINE
  5
200D7
  8
0
100
AcDbEntity
100
AcDbPolyline
 70
0
 90
9
 10
567382.5641
 20
5937974.7613
 10
567382.5029
 20
5937974.736
 10
567382.4776
 20
5937974.6748
 10
567382.5029
 20
5937974.6137
 10
567382.5641
 20
5937974.5883
 10
567382.6252
 20
5937974.6137
 10
567382.6506
 20
5937974.6748
 10
567382.6253
 20
5937974.736
 10
567382.5641
 20
5937974.7613
  0
LWPOLYLINE
  5
200D8
  8
0
100
AcDbEntity
100
AcDbPolyline
 70
0
 90
9
 10
567380.6257
 20
5937979.6101
 10
567380.5646
 20
5937979.5848
 10
567380.5392
 20
5937979.5236
 10
567380.5646
 20
5937979.4625
 10
567380.6257
 20
5937979.4371
 10
567380.6869
 20
5937979.4625
 10
567380.7122
 20
5937979.5236
 10
567380.6869
 20
5937979.5848
 10
567380.6257
 20
5937979.6101
  0
LWPOLYLINE
  5
200D9
  8
0
100
AcDbEntity
100
AcDbPolyline
 70
0
 90
2
 10
567329.0976
 20
5937980.1926
 10
567326.6058
 20
5937978.524
  0
LWPOLYLINE
  5
200DA
  8
0
100
AcDbEntity
100
AcDbPolyline
 70
0
 90
5
 10
567374.8435
 20
5938013.8084
 10
567374.9529
 20
5938013.8574
 10
567375.1571
 20
5938013.4012
 10
567375.0476
 20
5938013.3522
 10
567374.8435
 20
5938013.8084
  0
LWPOLYLINE
  5
200DB
  8
0
100
AcDbEntity
100
AcDbPolyline
 70
0
 90
2
 10
567346.5344
 20
5938016.8439
 10
567344.2462
 20
5938022.7323
  0
LWPOLYLINE
  5
200DC
  8
0
100
AcDbEntity
100
AcDbPolyline
 70
0
 90
13
 10
567350.1145
 20
5937987.6688
 10
567349.9895
 20
5937987.6353
 10
567349.898
 20
5937987.5438
 10
567349.8646
 20
5937987.4189
 10
567349.898
 20
5937987.2939
 10
567349.9895
 20
5937987.2024
 10
567350.1144
 20
5937987.169
 10
567350.2394
 20
5937987.2024
 10
567350.3309
 20
5937987.2939
 10
567350.3643
 20
5937987.4189
 10
567350.3309
 20
5937987.5438
 10
567350.2394
 20
5937987.6353
 10
567350.1145
 20
5937987.6688
  0
LWPOLYLINE
  5
200DD
  8
0
100
AcDbEntity
100
AcDbPolyline
 70
0
 90
16
 10
567328.4256
 20
5938039.8243
 10
567331.6949
 20
5938031.9519
 10
567334.3331
 20
5938025.604
 10
567336.4178
 20
5938020.5923
 10
567338.0269
 20
5938016.7287
 10
567339.2379
 20
5938013.8252
 10
567340.1286
 20
5938011.6934
 10
567340.7767
 20
5938010.1454
 10
567341.2599
 20
5938008.9929
 10
567341.6446
 20
5938008.0751
 10
567341.9523
 20
5938007.3407
 10
567342.193
 20
5938006.7654
 10
567342.377
 20
5938006.3251
 10
567342.5144
 20
5938005.9959
 10
567342.6153
 20
5938005.7535
 10
567342.6277
 20
5938005.7236
  0
LWPOLYLINE
  5
200DE
  8
0
100
AcDbEntity
100
AcDbPolyline
 70
0
 90
5
 10
567363.513
 20
5937984.4816
 10
567363.4704
 20
5937984.5938
 10
567363.0031
 20
5937984.4166
 10
567363.0456
 20
5937984.3045
 10
567363.513
 20
5937984.4816
  0
LWPOLYLINE
  5
200DF
  8
0
100
AcDbEntity
100
AcDbPolyline
 70
0
 90
5
 10
567345.9851
 20
5937988.4184
 10
567346.1881
 20
5937987.9618
 10
567346.0785
 20
5937987.913
 10
567345.8755
 20
5937988.3697
 10
567345.9851
 20
5937988.4184
  0
LWPOLYLINE
  5
200E0
  8
0
100
AcDbEntity
100
AcDbPolyline
 70
0
 90
5
 10
567373.225
 20
5937973.9236
 10
567372.9915
 20
5937973.8347
 10
567374.0585
 20
5937971.0322
 10
567374.2921
 20
5937971.1212
 10
567373.225
 20
5937973.9236
  0
LWPOLYLINE
  5
200E1
  8
0
100
AcDbEntity
100
AcDbPolyline
 70
0
 90
5
 10
567370.5933
 20
5937993.8762
 10
567371.0571
 20
5937994.0625
 10
567371.1502
 20
5937993.8306
 10
567370.6864
 20
5937993.6443
 10
567370.5933
 20
5937993.8762
  0
LWPOLYLINE
  5
200E2
  8
0
100
AcDbEntity
100
AcDbPolyline
 70
0
 90
5
 10
567346.9355
 20
5938008.0931
 10
567347.3197
 20
5938008.4128
 10
567347.4795
 20
5938008.2207
 10
567347.0953
 20
5938007.901
 10
567346.9355
 20
5938008.0931
  0
LWPOLYLINE
  5
200E3
  8
0
100
AcDbEntity
100
AcDbPolyline
 70
0
 90
3
 10
567357.5319
 20
5937982.2707
 10
567357.5531
 20
5937982.2174
 10
567361.7144
 20
5937971.3889
  0
LWPOLYLINE
  5
200E4
  8
0
100
AcDbEntity
100
AcDbPolyline
 70
0
 90
2
 10
567372.2238
 20
5937993.6684
 10
567372.4149
 20
5937993.1568
  0
LWPOLYLINE
  5
200E5
  8
0
100
AcDbEntity
100
AcDbPolyline
 70
0
 90
2
 10
567378.3039
 20
5937985.5381
 10
567379.0218
 20
5937983.6688
  0
LWPOLYLINE
  5
200E6
  8
0
100
AcDbEntity
100
AcDbPolyline
 70
0
 90
5
 10
567360.9572
 20
5938021.9565
 10
567361.3414
 20
5938022.2763
 10
567361.5012
 20
5938022.0842
 10
567361.1171
 20
5938021.7645
 10
567360.9572
 20
5938021.9565
  0
LWPOLYLINE
  5
200E7
  8
0
100
AcDbEntity
100
AcDbPolyline
 70
0
 90
5
 10
567350.1111
 20
5938017.7466
 10
567350.0343
 20
5938017.8388
 10
567349.6502
 20
5938017.5191
 10
567349.7269
 20
5938017.4269
 10
567350.1111
 20
5938017.7466
  0
LWPOLYLINE
  5
200E8
  8
0
100
AcDbEntity
100
AcDbPolyline
 70
0
 90
5
 10
567368.3512
 20
5938015.7488
 10
567368.1388
 20
5938016.2012
 10
567368.365
 20
5938016.3075
 10
567368.5774
 20
5938015.8551
 10
567368.3512
 20
5938015.7488
  0
LWPOLYLINE
  5
200E9
  8
0
100
AcDbEntity
100
AcDbPolyline
 70
0
 90
5
 10
567367.3469
 20
5937992.5721
 10
567367.8106
 20
5937992.7584
 10
567367.9038
 20
5937992.5265
 10
567367.44
 20
5937992.3403
 10
567367.3469
 20
5937992.5721
  0
LWPOLYLINE
  5
200EA
  8
0
100
AcDbEntity
100
AcDbPolyline
 70
0
 90
5
 10
567366.7176
 20
5937990.2502
 10
567367.1814
 20
5937990.4365
 10
567367.2745
 20
5937990.2046
 10
567366.8107
 20
5937990.0183
 10
567366.7176
 20
5937990.2502
  0
LWPOLYLINE
  5
200EB
  8
0
100
AcDbEntity
100
AcDbPolyline
 70
0
 90
5
 10
567351.116
 20
5938027.4336
 10
567350.9674
 20
5938026.0056
 10
567351.2132
 20
5938025.9541
 10
567351.3214
 20
5938026.9937
 10
567351.116
 20
5938027.4336
  0
LWPOLYLINE
  5
200EC
  8
0
100
AcDbEntity
100
AcDbPolyline
 70
0
 90
5
 10
567358.7859
 20
5937996.1506
 10
567358.5556
 20
5937996.0535
 10
567359.1383
 20
5937994.6719
 10
567359.3686
 20
5937994.769
 10
567358.7859
 20
5937996.1506
  0
LWPOLYLINE
  5
200ED
  8
0
100
AcDbEntity
100
AcDbPolyline
 70
0
 90
2
 10
567346.6222
 20
5937992.2935
 10
567344.9731
 20
5937991.1633
  0
LWPOLYLINE
  5
200EE
  8
0
100
AcDbEntity
100
AcDbPolyline
 70
0
 90
2
 10
567341.3373
 20
5937998.1199
 10
567341.6346
 20
5937997.3776
  0
LWPOLYLINE
  5
200EF
  8
0
100
AcDbEntity
100
AcDbPolyline
 70
0
 90
17
 10
567315.9792
 20
5937980.8948
 10
567315.7804
 20
5937980.8553
 10
567315.6118
 20
5937980.7427
 10
567315.4992
 20
5937980.5741
 10
567315.4596
 20
5937980.3753
 10
567315.4992
 20
5937980.1765
 10
567315.6118
 20
5937980.0079
 10
567315.7803
 20
5937979.8953
 10
567315.9792
 20
5937979.8557
 10
567316.178
 20
5937979.8953
 10
567316.3465
 20
5937980.0079
 10
567316.4592
 20
5937980.1764
 10
567316.4987
 20
5937980.3753
 10
567316.4592
 20
5937980.5741
 10
567316.3466
 20
5937980.7427
 10
567316.178
 20
5937980.8553
 10
567315.9792
 20
5937980.8948
  0
LWPOLYLINE
  5
200F0
  8
0
100
AcDbEntity
100
AcDbPolyline
 70
0
 90
5
 10
567343.4267
 20
5937994.1728
 10
567343.6298
 20
5937993.7161
 10
567343.5202
 20
5937993.6674
 10
567343.3171
 20
5937994.124
 10
567343.4267
 20
5937994.1728
  0
LWPOLYLINE
  5
200F1
  8
0
100
AcDbEntity
100
AcDbPolyline
 70
0
 90
2
 10
567351.1758
 20
5938035.2524
 10
567349.9141
 20
5938037.9728
  0
LWPOLYLINE
  5
200F2
  8
0
100
AcDbEntity
100
AcDbPolyline
 70
0
 90
66
 10
567363.4021
 20
5937990.7279
 10
567363.4102
 20
5937990.7059
 10
567361.456
 20
5937989.8966
 10
567361.4409
 20
5937989.9349
 10
567361.3873
 20
5937990.0729
 10
567361.3391
 20
5937990.1986
 10
567361.2965
 20
5937990.3126
 10
567361.2592
 20
5937990.4156
 10
567361.2273
 20
5937990.5084
 10
567361.2005
 20
5937990.5916
 10
567361.1789
 20
5937990.666
 10
567361.1621
 20
5937990.733
 10
567361.1502
 20
5937990.7942
 10
567361.1428
 20
5937990.8509
 10
567361.1399
 20
5937990.9047
 10
567361.1412
 20
5937990.957
 10
567361.1466
 20
5937991.0095
 10
567361.1559
 20
5937991.0635
 10
567361.1688
 20
5937991.1202
 10
567361.1855
 20
5937991.1792
 10
567361.2056
 20
5937991.2397
 10
567361.2293
 20
5937991.3011
 10
567361.2563
 20
5937991.3627
 10
567361.2866
 20
5937991.4235
 10
567361.3201
 20
5937991.483
 10
567361.3568
 20
5937991.5404
 10
567361.3965
 20
5937991.595
 10
567361.4391
 20
5937991.6466
 10
567361.4845
 20
5937991.6947
 10
567361.5325
 20
5937991.7393
 10
567361.5831
 20
5937991.7802
 10
567361.6359
 20
5937991.817
 10
567361.6911
 20
5937991.8495
 10
567361.7483
 20
5937991.8775
 10
567361.8075
 20
5937991.9009
 10
567361.8684
 20
5937991.9195
 10
567361.9308
 20
5937991.9335
 10
567361.9944
 20
5937991.9429
 10
567362.0591
 20
5937991.9477
 10
567362.1246
 20
5937991.9481
 10
567362.1907
 20
5937991.9439
 10
567362.2572
 20
5937991.9353
 10
567362.3237
 20
5937991.9224
 10
567362.3898
 20
5937991.9055
 10
567362.455
 20
5937991.885
 10
567362.5188
 20
5937991.8611
 10
567362.5807
 20
5937991.8344
 10
567362.6403
 20
5937991.805
 10
567362.6969
 20
5937991.7735
 10
567362.7501
 20
5937991.7402
 10
567362.7996
 20
5937991.7052
 10
567362.8457
 20
5937991.6682
 10
567362.8892
 20
5937991.6287
 10
567362.9304
 20
5937991.5862
 10
567362.97
 20
5937991.5402
 10
567363.0086
 20
5937991.49
 10
567363.0467
 20
5937991.4352
 10
567363.085
 20
5937991.3753
 10
567363.1239
 20
5937991.3098
 10
567363.1633
 20
5937991.2392
 10
567363.2031
 20
5937991.1637
 10
567363.2431
 20
5937991.0837
 10
567363.2832
 20
5937990.9998
 10
567363.3231
 20
5937990.9122
 10
567363.3629
 20
5937990.8214
 10
567363.4021
 20
5937990.7279
  0
LWPOLYLINE
  5
200F3
  8
0
100
AcDbEntity
100
AcDbPolyline
 70
0
 90
5
 10
567345.2704
 20
5938013.7184
 10
567345.1937
 20
5938013.8106
 10
567344.8095
 20
5938013.4908
 10
567344.8863
 20
5938013.3987
 10
567345.2704
 20
5938013.7184
  0
LWPOLYLINE
  5
200F4
  8
0
100
AcDbEntity
100
AcDbPolyline
 70
0
 90
5
 10
567345.8083
 20
5938014.1659
 10
567345.7315
 20
5938014.2581
 10
567345.3474
 20
5938013.9384
 10
567345.4241
 20
5938013.8462
 10
567345.8083
 20
5938014.1659
  0
LWPOLYLINE
  5
200F5
  8
0
100
AcDbEntity
100
AcDbPolyline
 70
0
 90
17
 10
567337.9988
 20
5938001.1706
 10
567338.4368
 20
5938001.4091
 10
567339.0986
 20
5938001.6596
 10
567339.2994
 20
5938001.6043
 10
567339.4255
 20
5938001.2013
 10
567339.4954
 20
5938000.6537
 10
567339.4963
 20
5938001.6346
 10
567339.6434
 20
5938001.8265
 10
567340.0474
 20
5938001.8784
 10
567340.3977
 20
5938001.9622
 10
567340.8777
 20
5938001.9384
 10
567341.4242
 20
5938001.8532
 10
567341.9399
 20
5938001.6042
 10
567341.9906
 20
5938000.7979
 10
567342.2675
 20
5938001.5605
 10
567343.1205
 20
5938001.1058
 10
567343.397
 20
5938000.907
  0
LWPOLYLINE
  5
200F6
  8
0
100
AcDbEntity
100
AcDbPolyline
 70
0
 90
5
 10
567348.9671
 20
5937988.4015
 10
567348.3135
 20
5937988.3164
 10
567347.6691
 20
5937988.1779
 10
567347.0383
 20
5937987.9867
 10
567346.4255
 20
5937987.7442
  0
LWPOLYLINE
  5
200F7
  8
0
100
AcDbEntity
100
AcDbPolyline
 70
0
 90
10
 10
567361.5827
 20
5938021.3709
 10
567362.1136
 20
5938020.6371
 10
567362.7053
 20
5938019.9515
 10
567363.3536
 20
5938019.3191
 10
567364.0537
 20
5938018.7445
 10
567364.8003
 20
5938018.232
 10
567365.5881
 20
5938017.7852
 10
567366.4113
 20
5938017.4076
 10
567367.2638
 20
5938017.1019
 10
567368.1394
 20
5938016.8703
  0
LWPOLYLINE
  5
200F8
  8
0
100
AcDbEntity
100
AcDbPolyline
 70
0
 90
2
 10
567404.6964
 20
5938039.9734
 10
567388.8698
 20
5938027.3817
  0
LWPOLYLINE
  5
200F9
  8
0
100
AcDbEntity
100
AcDbPolyline
 70
0
 90
5
 10
567345.4166
 20
5937989.6972
 10
567345.6196
 20
5937989.2405
 10
567345.51
 20
5937989.1918
 10
567345.307
 20
5937989.6485
 10
567345.4166
 20
5937989.6972
  0
LWPOLYLINE
  5
200FA
  8
0
100
AcDbEntity
100
AcDbPolyline
 70
0
 90
5
 10
567369.8383
 20
5938012.582
 10
567369.6259
 20
5938013.0344
 10
567369.852
 20
5938013.1407
 10
567370.0645
 20
5938012.6883
 10
567369.8383
 20
5938012.582
  0
LWPOLYLINE
  5
200FB
  8
0
100
AcDbEntity
100
AcDbPolyline
 70
0
 90
2
 10
567367.2071
 20
5937998.1496
 10
567368.2892
 20
5937995.3528
  0
LWPOLYLINE
  5
200FC
  8
0
100
AcDbEntity
100
AcDbPolyline
 70
0
 90
5
 10
567347.9597
 20
5938015.9563
 10
567347.8829
 20
5938016.0485
 10
567347.4988
 20
5938015.7288
 10
567347.5755
 20
5938015.6366
 10
567347.9597
 20
5938015.9563
  0
LWPOLYLINE
  5
200FD
  8
0
100
AcDbEntity
100
AcDbPolyline
 70
0
 90
2
 10
567380.1055
 20
5937973.0482
 10
567381.1646
 20
5937970.3005
  0
LWPOLYLINE
  5
200FE
  8
0
100
AcDbEntity
100
AcDbPolyline
 70
0
 90
40
 10
567345.3325
 20
5937995.8605
 10
567345.0858
 20
5937995.0592
 10
567344.6072
 20
5937994.121
 10
567344.0673
 20
5937994.4366
 10
567344.4048
 20
5937993.9257
 10
567344.0488
 20
5937993.4296
 10
567343.3117
 20
5937992.8117
 10
567342.372
 20
5937992.2138
 10
567342.2317
 20
5937992.2841
 10
567341.9825
 20
5937992.7199
 10
567342.0851
 20
5937992.3492
 10
567342.0141
 20
5937992.1893
 10
567340.9702
 20
5937991.8013
 10
567339.1156
 20
5937992.0128
 10
567339.0521
 20
5937992.3142
 10
567339.272
 20
5937992.9306
 10
567338.8507
 20
5937992.4715
 10
567338.3101
 20
5937992.4802
 10
567337.7926
 20
5937992.7699
 10
567336.9412
 20
5937993.3675
 10
567336.5565
 20
5937993.8036
 10
567336.511
 20
5937993.8717
 10
567336.6955
 20
5937994.1029
 10
567337.9183
 20
5937994.8694
 10
567336.5487
 20
5937994.1541
 10
567336.3564
 20
5937994.2735
 10
567336.0239
 20
5937994.7821
 10
567335.7804
 20
5937995.4148
 10
567335.6323
 20
5937995.7998
 10
567336.2015
 20
5937996.0575
 10
567335.6044
 20
5937996.1053
 10
567335.5483
 20
5937996.5311
 10
567335.5256
 20
5937997.0458
 10
567335.4898
 20
5937997.1495
 10
567335.5066
 20
5937997.6945
 10
567335.7189
 20
5937998.0828
 10
567335.8627
 20
5937998.2224
 10
567336.0876
 20
5937998.1584
 10
567335.851
 20
5937998.3173
 10
567335.8092
 20
5937998.4951
  0
LWPOLYLINE
  5
200FF
  8
0
100
AcDbEntity
100
AcDbPolyline
 70
0
 90
2
 10
567375.9996
 20
5937975.0514
 10
567377.0656
 20
5937972.2485
  0
LWPOLYLINE
  5
20100
  8
0
100
AcDbEntity
100
AcDbPolyline
 70
0
 90
5
 10
567344.8173
 20
5938030.2742
 10
567344.5842
 20
5938030.1841
 10
567343.503
 20
5938032.9812
 10
567343.7361
 20
5938033.0713
 10
567344.8173
 20
5938030.2742
  0
LWPOLYLINE
  5
20101
  8
0
100
AcDbEntity
100
AcDbPolyline
 70
0
 90
5
 10
567355.0665
 20
5938021.8212
 10
567354.9898
 20
5938021.9134
 10
567354.6056
 20
5938021.5936
 10
567354.6824
 20
5938021.5014
 10
567355.0665
 20
5938021.8212
  0
LWPOLYLINE
  5
20102
  8
0
100
AcDbEntity
100
AcDbPolyline
 70
0
 90
5
 10
567368.9489
 20
5938011.1804
 10
567369.1515
 20
5938010.7235
 10
567368.923
 20
5938010.6221
 10
567368.7204
 20
5938011.079
 10
567368.9489
 20
5938011.1804
  0
LWPOLYLINE
  5
20103
  8
0
100
AcDbEntity
100
AcDbPolyline
 70
0
 90
11
 10
567354.1914
 20
5938038.1689
 10
567354.0485
 20
5938038.3806
 10
567354.0077
 20
5938038.4034
 10
567353.9613
 20
5938038.3976
 10
567353.8619
 20
5938038.3504
 10
567354.4668
 20
5938037.0746
 10
567354.5661
 20
5938037.1217
 10
567354.6
 20
5938037.154
 10
567354.6082
 20
5938037.2
 10
567354.5348
 20
5938037.4446
 10
567354.1946
 20
5938038.1621
  0
LWPOLYLINE
  5
20104
  8
0
100
AcDbEntity
100
AcDbPolyline
 70
0
 90
4
 10
567374.3052
 20
5938005.5884
 10
567375.7229
 20
5938007.0469
 10
567375.0983
 20
5938007.4614
 10
567374.3052
 20
5938005.5884
  0
LWPOLYLINE
  5
20105
  8
0
100
AcDbEntity
100
AcDbPolyline
 70
0
 90
5
 10
567348.8856
 20
5937991.1069
 10
567349.0877
 20
5937990.6498
 10
567348.8592
 20
5937990.5487
 10
567348.657
 20
5937991.0058
 10
567348.8856
 20
5937991.1069
  0
LWPOLYLINE
  5
20106
  8
0
100
AcDbEntity
100
AcDbPolyline
 70
0
 90
5
 10
567362.1281
 20
5938019.5806
 10
567362.7045
 20
5938018.1964
 10
567362.4738
 20
5938018.1003
 10
567361.8974
 20
5938019.4845
 10
567362.1281
 20
5938019.5806
  0
LWPOLYLINE
  5
20107
  8
0
100
AcDbEntity
100
AcDbPolyline
 70
0
 90
5
 10
567371.2854
 20
5937987.6677
 10
567371.2407
 20
5937987.779
 10
567370.7769
 20
5937987.5927
 10
567370.8216
 20
5937987.4814
 10
567371.2854
 20
5937987.6677
  0
LWPOLYLINE
  5
20108
  8
0
100
AcDbEntity
100
AcDbPolyline
 70
0
 90
5
 10
567358.2573
 20
5937986.5885
 10
567357.7951
 20
5937986.3984
 10
567357.7
 20
5937986.6296
 10
567358.1623
 20
5937986.8197
 10
567358.2573
 20
5937986.5885
  0
LWPOLYLINE
  5
20109
  8
0
100
AcDbEntity
100
AcDbPolyline
 70
0
 90
5
 10
567358.9045
 20
5937986.8546
 10
567358.4422
 20
5937986.6646
 10
567358.3472
 20
5937986.8957
 10
567358.8094
 20
5937987.0857
 10
567358.9045
 20
5937986.8546
  0
LWPOLYLINE
  5
2010A
  8
0
100
AcDbEntity
100
AcDbPolyline
 70
0
 90
5
 10
567405.1249
 20
5938033.1045
 10
567404.9698
 20
5938030.0017
 10
567401.0593
 20
5938026.904
 10
567379.7965
 20
5938009.824
 10
567377.9825
 20
5938010.2564
  0
LWPOLYLINE
  5
2010B
  8
0
100
AcDbEntity
100
AcDbPolyline
 70
0
 90
5
 10
567344.2795
 20
5937992.2547
 10
567344.4826
 20
5937991.798
 10
567344.373
 20
5937991.7492
 10
567344.1699
 20
5937992.2059
 10
567344.2795
 20
5937992.2547
  0
LWPOLYLINE
  5
2010C
  8
0
100
AcDbEntity
100
AcDbPolyline
 70
0
 90
5
 10
567349.6246
 20
5937993.7668
 10
567349.827
 20
5937993.3099
 10
567349.5985
 20
5937993.2087
 10
567349.3961
 20
5937993.6656
 10
567349.6246
 20
5937993.7668
  0
LWPOLYLINE
  5
2010D
  8
0
100
AcDbEntity
100
AcDbPolyline
 70
0
 90
5
 10
567345.7717
 20
5937998.1458
 10
567345.9739
 20
5937997.6887
 10
567345.7454
 20
5937997.5876
 10
567345.5432
 20
5937998.0446
 10
567345.7717
 20
5937998.1458
  0
LWPOLYLINE
  5
2010E
  8
0
100
AcDbEntity
100
AcDbPolyline
 70
0
 90
5
 10
567366.9634
 20
5938015.6579
 10
567367.166
 20
5938015.201
 10
567366.9376
 20
5938015.0997
 10
567366.735
 20
5938015.5566
 10
567366.9634
 20
5938015.6579
  0
LWPOLYLINE
  5
2010F
  8
0
100
AcDbEntity
100
AcDbPolyline
 70
0
 90
13
 10
567344.3847
 20
5938000.3465
 10
567344.2598
 20
5938000.313
 10
567344.1683
 20
5938000.2216
 10
567344.1348
 20
5938000.0966
 10
567344.1683
 20
5937999.9717
 10
567344.2597
 20
5937999.8802
 10
567344.3847
 20
5937999.8467
 10
567344.5096
 20
5937999.8802
 10
567344.6011
 20
5937999.9717
 10
567344.6346
 20
5938000.0966
 10
567344.6011
 20
5938000.2216
 10
567344.5097
 20
5938000.313
 10
567344.3847
 20
5938000.3465
  0
LWPOLYLINE
  5
20110
  8
0
100
AcDbEntity
100
AcDbPolyline
 70
0
 90
57
 10
567355.9912
 20
5938038.5027
 10
567355.8105
 20
5938038.417
 10
567355.7414
 20
5938038.5629
 10
567355.611
 20
5938038.8079
 10
567355.4586
 20
5938039.0398
 10
567355.3993
 20
5938039.0707
 10
567355.339
 20
5938039.0421
 10
567355.3254
 20
5938038.9766
 10
567355.4085
 20
5938038.7118
 10
567355.5156
 20
5938038.4558
 10
567355.6802
 20
5938038.1086
 10
567355.8015
 20
5938037.9271
 10
567355.9698
 20
5938037.7882
 10
567356.0885
 20
5938037.7164
 10
567356.3223
 20
5938037.542
 10
567356.5178
 20
5938037.3257
 10
567356.6678
 20
5938037.0755
 10
567357.0261
 20
5938036.3198
 10
567357.1498
 20
5938036.0171
 10
567357.2399
 20
5938035.7027
 10
567357.2952
 20
5938035.3804
 10
567357.2744
 20
5938035.2754
 10
567357.1964
 20
5938035.2022
 10
567357.0903
 20
5938035.1881
 10
567356.9959
 20
5938035.2385
 10
567356.7814
 20
5938035.4853
 10
567356.595
 20
5938035.754
 10
567356.439
 20
5938036.0415
 10
567356.2605
 20
5938036.4178
 10
567356.4412
 20
5938036.5035
 10
567356.5103
 20
5938036.3576
 10
567356.6407
 20
5938036.1126
 10
567356.7931
 20
5938035.8807
 10
567356.8524
 20
5938035.8498
 10
567356.9128
 20
5938035.8785
 10
567356.9263
 20
5938035.9439
 10
567356.8433
 20
5938036.2087
 10
567356.7361
 20
5938036.4647
 10
567356.5715
 20
5938036.8119
 10
567356.4503
 20
5938036.9934
 10
567356.2819
 20
5938037.1323
 10
567356.1632
 20
5938037.2041
 10
567355.9294
 20
5938037.3785
 10
567355.7339
 20
5938037.5949
 10
567355.5839
 20
5938037.845
 10
567355.2257
 20
5938038.6007
 10
567355.1019
 20
5938038.9034
 10
567355.0118
 20
5938039.2178
 10
567354.9565
 20
5938039.5401
 10
567354.9773
 20
5938039.6451
 10
567355.0553
 20
5938039.7183
 10
567355.1614
 20
5938039.7324
 10
567355.2559
 20
5938039.682
 10
567355.4704
 20
5938039.4352
 10
567355.6567
 20
5938039.1665
 10
567355.8128
 20
5938038.879
 10
567355.9912
 20
5938038.5027
  0
LWPOLYLINE
  5
20111
  8
0
100
AcDbEntity
100
AcDbPolyline
 70
0
 90
2
 10
567384.2848
 20
5937970.4641
 10
567385.0026
 20
5937968.5948
  0
LWPOLYLINE
  5
20112
  8
0
100
AcDbEntity
100
AcDbPolyline
 70
0
 90
5
 10
567345.7008
 20
5937989.0578
 10
567345.9039
 20
5937988.6011
 10
567345.7942
 20
5937988.5524
 10
567345.5912
 20
5937989.0091
 10
567345.7008
 20
5937989.0578
  0
LWPOLYLINE
  5
20113
  8
0
100
AcDbEntity
100
AcDbPolyline
 70
0
 90
5
 10
567351.608
 20
5937989.2884
 10
567351.8103
 20
5937988.8314
 10
567351.5819
 20
5937988.7302
 10
567351.3795
 20
5937989.1872
 10
567351.608
 20
5937989.2884
  0
LWPOLYLINE
  5
20114
  8
0
100
AcDbEntity
100
AcDbPolyline
 70
0
 90
5
 10
567346.904
 20
5937995.5861
 10
567347.1062
 20
5937995.1291
 10
567346.8777
 20
5937995.028
 10
567346.6755
 20
5937995.485
 10
567346.904
 20
5937995.5861
  0
LWPOLYLINE
  5
20115
  8
0
100
AcDbEntity
100
AcDbPolyline
 70
0
 90
4
 10
567345.0686
 20
5937999.7274
 10
567345.0396
 20
5938000.1262
 10
567344.9578
 20
5938000.5175
 10
567344.8246
 20
5938000.8945
  0
LWPOLYLINE
  5
20116
  8
0
100
AcDbEntity
100
AcDbPolyline
 70
0
 90
3
 10
567356.4771
 20
5938039.974
 10
567358.7506
 20
5938034.5247
 10
567358.2944
 20
5938034.2968
  0
LWPOLYLINE
  5
20117
  8
0
100
AcDbEntity
100
AcDbPolyline
 70
0
 90
9
 10
567387.981
 20
5937972.7075
 10
567387.9198
 20
5937972.6821
 10
567387.8945
 20
5937972.621
 10
567387.9198
 20
5937972.5598
 10
567387.981
 20
5937972.5345
 10
567388.0421
 20
5937972.5598
 10
567388.0675
 20
5937972.621
 10
567388.0421
 20
5937972.6821
 10
567387.981
 20
5937972.7075
  0
LWPOLYLINE
  5
20118
  8
0
100
AcDbEntity
100
AcDbPolyline
 70
0
 90
5
 10
567348.4745
 20
5938011.6931
 10
567348.8587
 20
5938012.0128
 10
567349.0186
 20
5938011.8207
 10
567348.6344
 20
5938011.501
 10
567348.4745
 20
5938011.6931
  0
LWPOLYLINE
  5
20119
  8
0
100
AcDbEntity
100
AcDbPolyline
 70
0
 90
5
 10
567369.7998
 20
5938009.2614
 10
567370.0024
 20
5938008.8045
 10
567369.7739
 20
5938008.7032
 10
567369.5713
 20
5938009.1601
 10
567369.7998
 20
5938009.2614
  0
LWPOLYLINE
  5
2011A
  8
0
100
AcDbEntity
100
AcDbPolyline
 70
0
 90
5
 10
567364.7497
 20
5937991.5289
 10
567365.2135
 20
5937991.7152
 10
567365.3066
 20
5937991.4833
 10
567364.8428
 20
5937991.297
 10
567364.7497
 20
5937991.5289
  0
LWPOLYLINE
  5
2011B
  8
0
100
AcDbEntity
100
AcDbPolyline
 70
0
 90
4
 10
567343.1414
 20
5938017.2296
 10
567338.9016
 20
5938028.166
 10
567337.1211
 20
5938032.751
 10
567335.5272
 20
5938036.8473
  0
LWPOLYLINE
  5
2011C
  8
0
100
AcDbEntity
100
AcDbPolyline
 70
0
 90
5
 10
567346.9796
 20
5938024.68
 10
567346.7465
 20
5938024.5899
 10
567345.6654
 20
5938027.387
 10
567345.8984
 20
5938027.4771
 10
567346.9796
 20
5938024.68
  0
LWPOLYLINE
  5
2011D
  8
0
100
AcDbEntity
100
AcDbPolyline
 70
0
 90
2
 10
567355.6338
 20
5937994.9119
 10
567356.7841
 20
5937992.1426
  0
LWPOLYLINE
  5
2011E
  8
0
100
AcDbEntity
100
AcDbPolyline
 70
0
 90
5
 10
567358.2015
 20
5937988.8394
 10
567358.6637
 20
5937989.0295
 10
567358.7587
 20
5937988.7984
 10
567358.2965
 20
5937988.6083
 10
567358.2015
 20
5937988.8394
  0
LWPOLYLINE
  5
2011F
  8
0
100
AcDbEntity
100
AcDbPolyline
 70
0
 90
5
 10
567356.9072
 20
5937988.3072
 10
567357.3694
 20
5937988.4973
 10
567357.4645
 20
5937988.2662
 10
567357.0022
 20
5937988.0761
 10
567356.9072
 20
5937988.3072
  0
LWPOLYLINE
  5
20120
  8
0
100
AcDbEntity
100
AcDbPolyline
 70
0
 90
3
 10
567339.7161
 20
5937980.9078
 10
567342.8852
 20
5937983.068
 10
567341.7518
 20
5937984.7536
  0
LWPOLYLINE
  5
20121
  8
0
100
AcDbEntity
100
AcDbPolyline
 70
0
 90
2
 10
567377.1552
 20
5938010.4541
 10
567376.9519
 20
5938010.29
  0
LWPOLYLINE
  5
20122
  8
0
100
AcDbEntity
100
AcDbPolyline
 70
0
 90
17
 10
567337.5605
 20
5937981.1166
 10
567337.3616
 20
5937981.077
 10
567337.1931
 20
5937980.9644
 10
567337.0804
 20
5937980.7958
 10
567337.0409
 20
5937980.597
 10
567337.0804
 20
5937980.3982
 10
567337.1931
 20
5937980.2296
 10
567337.3616
 20
5937980.117
 10
567337.5604
 20
5937980.0774
 10
567337.7593
 20
5937980.117
 10
567337.9278
 20
5937980.2296
 10
567338.0404
 20
5937980.3982
 10
567338.08
 20
5937980.597
 10
567338.0404
 20
5937980.7958
 10
567337.9278
 20
5937980.9644
 10
567337.7593
 20
5937981.077
 10
567337.5605
 20
5937981.1166
  0
LWPOLYLINE
  5
20123
  8
0
100
AcDbEntity
100
AcDbPolyline
 70
0
 90
5
 10
567360.7007
 20
5938019.4483
 10
567361.0848
 20
5938019.768
 10
567361.2447
 20
5938019.576
 10
567360.8606
 20
5938019.2562
 10
567360.7007
 20
5938019.4483
  0
LWPOLYLINE
  5
20124
  8
0
100
AcDbEntity
100
AcDbPolyline
 70
0
 90
2
 10
567360.5545
 20
5938014.8627
 10
567361.7631
 20
5938012.1184
  0
LWPOLYLINE
  5
20125
  8
0
100
AcDbEntity
100
AcDbPolyline
 70
0
 90
5
 10
567358.1181
 20
5937982.4962
 10
567358.0756
 20
5937982.6083
 10
567357.6083
 20
5937982.4312
 10
567357.6508
 20
5937982.319
 10
567358.1181
 20
5937982.4962
  0
LWPOLYLINE
  5
20126
  8
0
100
AcDbEntity
100
AcDbPolyline
 70
0
 90
5
 10
567356.963
 20
5937986.0563
 10
567356.5008
 20
5937985.8663
 10
567356.4058
 20
5937986.0974
 10
567356.868
 20
5937986.2875
 10
567356.963
 20
5937986.0563
  0
LWPOLYLINE
  5
20127
  8
0
100
AcDbEntity
100
AcDbPolyline
 70
0
 90
10
 10
567379.1928
 20
5938024.2187
 10
567380.131
 20
5938024.7053
 10
567381.0971
 20
5938025.1338
 10
567382.0876
 20
5938025.5026
 10
567383.0986
 20
5938025.8102
 10
567384.1266
 20
5938026.0557
 10
567385.1676
 20
5938026.238
 10
567386.2177
 20
5938026.3565
 10
567387.2732
 20
5938026.4107
 10
567386.6964
 20
5938026.0577
  0
LWPOLYLINE
  5
20128
  8
0
100
AcDbEntity
100
AcDbPolyline
 70
0
 90
5
 10
567343.9953
 20
5937992.894
 10
567344.1983
 20
5937992.4373
 10
567344.0887
 20
5937992.3886
 10
567343.8857
 20
5937992.8453
 10
567343.9953
 20
5937992.894
  0
LWPOLYLINE
  5
20129
  8
0
100
AcDbEntity
100
AcDbPolyline
 70
0
 90
5
 10
567346.5079
 20
5938000.8045
 10
567346.7103
 20
5938000.3475
 10
567346.4818
 20
5938000.2463
 10
567346.2794
 20
5938000.7032
 10
567346.5079
 20
5938000.8045
  0
LWPOLYLINE
  5
2012A
  8
0
100
AcDbEntity
100
AcDbPolyline
 70
0
 90
5
 10
567348.4975
 20
5938016.4039
 10
567348.4208
 20
5938016.4961
 10
567348.0366
 20
5938016.1764
 10
567348.1133
 20
5938016.0842
 10
567348.4975
 20
5938016.4039
  0
LWPOLYLINE
  5
2012B
  8
0
100
AcDbEntity
100
AcDbPolyline
 70
0
 90
5
 10
567371.6227
 20
5938008.7819
 10
567371.4103
 20
5938009.2343
 10
567371.6365
 20
5938009.3405
 10
567371.8489
 20
5938008.8881
 10
567371.6227
 20
5938008.7819
  0
LWPOLYLINE
  5
2012C
  8
0
100
AcDbEntity
100
AcDbPolyline
 70
0
 90
139
 10
567374.2404
 20
5938017.3472
 10
567374.7347
 20
5938017.5781
 10
567375.1421
 20
5938017.775
 10
567375.4748
 20
5938017.9432
 10
567375.7453
 20
5938018.0878
 10
567375.9658
 20
5938018.2141
 10
567376.1487
 20
5938018.3274
 10
567376.3064
 20
5938018.4328
 10
567376.4512
 20
5938018.5356
 10
567376.5933
 20
5938018.6401
 10
567376.7351
 20
5938018.747
 10
567376.8767
 20
5938018.856
 10
567377.0183
 20
5938018.967
 10
567377.1601
 20
5938019.0797
 10
567377.3024
 20
5938019.194
 10
567377.4453
 20
5938019.3095
 10
567377.5891
 20
5938019.4262
 10
567377.7338
 20
5938019.5437
 10
567377.8795
 20
5938019.662
 10
567378.0261
 20
5938019.7808
 10
567378.1734
 20
5938019.9001
 10
567378.3213
 20
5938020.0196
 10
567378.4697
 20
5938020.1392
 10
567378.6187
 20
5938020.2588
 10
567378.7679
 20
5938020.3781
 10
567378.9173
 20
5938020.4971
 10
567379.0666
 20
5938020.6156
 10
567379.2155
 20
5938020.7333
 10
567379.3636
 20
5938020.85
 10
567379.5105
 20
5938020.9657
 10
567379.656
 20
5938021.08
 10
567379.7997
 20
5938021.1927
 10
567379.9412
 20
5938021.3038
 10
567380.0804
 20
5938021.413
 10
567380.2177
 20
5938021.521
 10
567380.3538
 20
5938021.6282
 10
567380.4894
 20
5938021.7352
 10
567380.6223
 20
5938021.8405
 10
567380.674
 20
5938022.8017
 10
567380.6678
 20
5938022.8879
 10
567380.6549
 20
5938022.9558
 10
567380.6362
 20
5938023.0077
 10
567380.6131
 20
5938023.0459
 10
567380.5866
 20
5938023.0728
 10
567380.5578
 20
5938023.0905
 10
567380.5279
 20
5938023.1015
 10
567380.498
 20
5938023.108
 10
567380.469
 20
5938023.1121
 10
567380.4408
 20
5938023.1141
 10
567380.4129
 20
5938023.114
 10
567380.3849
 20
5938023.112
 10
567380.3565
 20
5938023.1081
 10
567380.3273
 20
5938023.1023
 10
567380.2969
 20
5938023.0947
 10
567380.265
 20
5938023.0854
 10
567380.2307
 20
5938023.074
 10
567380.1923
 20
5938023.0591
 10
567380.1477
 20
5938023.0388
 10
567380.0947
 20
5938023.0112
 10
567380.0313
 20
5938022.9746
 10
567379.9552
 20
5938022.9271
 10
567379.8644
 20
5938022.8668
 10
567379.7568
 20
5938022.7919
 10
567379.6308
 20
5938022.7012
 10
567379.4874
 20
5938022.5959
 10
567379.3281
 20
5938022.4779
 10
567379.1546
 20
5938022.349
 10
567378.9685
 20
5938022.2111
 10
567378.7713
 20
5938022.0662
 10
567378.5646
 20
5938021.9159
 10
567378.3499
 20
5938021.7623
 10
567378.1284
 20
5938021.6069
 10
567377.8991
 20
5938021.4499
 10
567377.6604
 20
5938021.2914
 10
567377.411
 20
5938021.1314
 10
567377.1492
 20
5938020.9698
 10
567376.8736
 20
5938020.8067
 10
567376.5827
 20
5938020.6421
 10
567376.275
 20
5938020.4758
 10
567375.9502
 20
5938020.3085
 10
567375.6128
 20
5938020.1418
 10
567375.2683
 20
5938019.9782
 10
567374.9224
 20
5938019.8198
 10
567374.5806
 20
5938019.6691
 10
567374.2486
 20
5938019.5282
 10
567373.932
 20
5938019.3995
 10
567373.6364
 20
5938019.2853
 10
567373.3658
 20
5938019.1871
 10
567373.1175
 20
5938019.1039
 10
567372.8874
 20
5938019.0339
 10
567372.6711
 20
5938018.9752
 10
567372.4644
 20
5938018.9262
 10
567372.2631
 20
5938018.8849
 10
567372.0629
 20
5938018.8497
 10
567371.8596
 20
5938018.8187
 10
567371.6498
 20
5938018.7906
 10
567371.4335
 20
5938018.7654
 10
567371.2118
 20
5938018.7434
 10
567370.9854
 20
5938018.7252
 10
567370.7553
 20
5938018.7113
 10
567370.5225
 20
5938018.702
 10
567369.2654
 20
5938018.7452
 10
567369.1302
 20
5938018.7586
 10
567368.9144
 20
5938018.7848
 10
567368.7084
 20
5938018.8147
 10
567368.5142
 20
5938018.8477
 10
567368.3337
 20
5938018.8833
 10
567368.1684
 20
5938018.921
 10
567368.0179
 20
5938018.96
 10
567367.8815
 20
5938018.9991
 10
567367.7581
 20
5938019.0375
 10
567367.647
 20
5938019.0741
 10
567367.5472
 20
5938019.1081
 10
567367.458
 20
5938019.1382
 10
567367.3784
 20
5938019.1637
 10
567367.3076
 20
5938019.1837
 10
567367.245
 20
5938019.1986
 10
567367.1897
 20
5938019.2087
 10
567367.1411
 20
5938019.2147
 10
567367.0985
 20
5938019.2171
 10
567367.0612
 20
5938019.2164
 10
567367.0284
 20
5938019.213
 10
567366.9995
 20
5938019.2076
 10
567366.9739
 20
5938019.2004
 10
567366.9513
 20
5938019.1913
 10
567366.9315
 20
5938019.1799
 10
567366.9144
 20
5938019.1661
 10
567366.8997
 20
5938019.1493
 10
567366.8874
 20
5938019.1293
 10
567366.8773
 20
5938019.1058
 10
567366.8691
 20
5938019.0784
 10
567366.8646
 20
5938019.0434
 10
567366.8729
 20
5938018.9837
 10
567366.9049
 20
5938018.8785
 10
567366.9717
 20
5938018.7074
 10
567367.0843
 20
5938018.4495
 10
567367.2536
 20
5938018.0845
 10
567367.4906
 20
5938017.5916
 10
567367.8062
 20
5938016.9502
  0
LWPOLYLINE
  5
2012D
  8
0
100
AcDbEntity
100
AcDbPolyline
 70
0
 90
5
 10
567358.7724
 20
5937982.7442
 10
567358.7299
 20
5937982.8563
 10
567358.2626
 20
5937982.6792
 10
567358.3051
 20
5937982.567
 10
567358.7724
 20
5937982.7442
  0
LWPOLYLINE
  5
2012E
  8
0
100
AcDbEntity
100
AcDbPolyline
 70
0
 90
5
 10
567370.6133
 20
5937991.8151
 10
567371.0771
 20
5937992.0014
 10
567371.1702
 20
5937991.7695
 10
567370.7065
 20
5937991.5832
 10
567370.6133
 20
5937991.8151
  0
LWPOLYLINE
  5
2012F
  8
0
100
AcDbEntity
100
AcDbPolyline
 70
0
 90
11
 10
567331.8824
 20
5938036.1109
 10
567331.7649
 20
5938036.0727
 10
567331.6923
 20
5938035.9728
 10
567331.6923
 20
5938035.8492
 10
567331.7649
 20
5938035.7492
 10
567331.8824
 20
5938035.7111
 10
567331.9999
 20
5938035.7492
 10
567332.0726
 20
5938035.8492
 10
567332.0726
 20
5938035.9728
 10
567331.9999
 20
5938036.0727
 10
567331.8824
 20
5938036.1109
  0
LWPOLYLINE
  5
20130
  8
0
100
AcDbEntity
100
AcDbPolyline
 70
0
 90
5
 10
567363.3606
 20
5937999.84
 10
567363.1276
 20
5937999.7499
 10
567363.6684
 20
5937998.3514
 10
567363.9014
 20
5937998.4415
 10
567363.3606
 20
5937999.84
  0
LWPOLYLINE
  5
20131
  8
0
100
AcDbEntity
100
AcDbPolyline
 70
0
 90
2
 10
567383.0713
 20
5937970.9129
 10
567384.1179
 20
5937968.2018
  0
LWPOLYLINE
  5
20132
  8
0
100
AcDbEntity
100
AcDbPolyline
 70
0
 90
2
 10
567365.5615
 20
5937971.2621
 10
567366.736
 20
5937968.5029
  0
LWPOLYLINE
  5
20133
  8
0
100
AcDbEntity
100
AcDbPolyline
 70
0
 90
5
 10
567356.655
 20
5938018.3752
 10
567357.0391
 20
5938018.6949
 10
567357.199
 20
5938018.5028
 10
567356.8149
 20
5938018.1831
 10
567356.655
 20
5938018.3752
  0
LWPOLYLINE
  5
20134
  8
0
100
AcDbEntity
100
AcDbPolyline
 70
0
 90
2
 10
567365.0615
 20
5938003.7501
 10
567366.1251
 20
5938000.9463
  0
LWPOLYLINE
  5
20135
  8
0
100
AcDbEntity
100
AcDbPolyline
 70
0
 90
5
 10
567368.6655
 20
5937991.0327
 10
567369.1292
 20
5937991.2189
 10
567369.2224
 20
5937990.9871
 10
567368.7586
 20
5937990.8008
 10
567368.6655
 20
5937991.0327
  0
LWPOLYLINE
  5
20136
  8
0
100
AcDbEntity
100
AcDbPolyline
 70
0
 90
2
 10
567362.8484
 20
5937987.7886
 10
567363.4496
 20
5937989.4313
  0
LWPOLYLINE
  5
20137
  8
0
100
AcDbEntity
100
AcDbPolyline
 70
0
 90
11
 10
567333.2007
 20
5937992.3431
 10
567333.0832
 20
5937992.3049
 10
567333.0105
 20
5937992.205
 10
567333.0105
 20
5937992.0814
 10
567333.0831
 20
5937991.9815
 10
567333.2006
 20
5937991.9433
 10
567333.3181
 20
5937991.9815
 10
567333.3908
 20
5937992.0814
 10
567333.3908
 20
5937992.205
 10
567333.3182
 20
5937992.3049
 10
567333.2007
 20
5937992.3431
  0
LWPOLYLINE
  5
20138
  8
0
100
AcDbEntity
100
AcDbPolyline
 70
0
 90
5
 10
567357.7306
 20
5938019.2705
 10
567358.1147
 20
5938019.5903
 10
567358.2746
 20
5938019.3982
 10
567357.8904
 20
5938019.0784
 10
567357.7306
 20
5938019.2705
  0
LWPOLYLINE
  5
20139
  8
0
100
AcDbEntity
100
AcDbPolyline
 70
0
 90
2
 10
567343.9284
 20
5938011.1037
 10
567344.6823
 20
5938011.3704
  0
LWPOLYLINE
  5
2013A
  8
0
100
AcDbEntity
100
AcDbPolyline
 70
0
 90
6
 10
567341.5775
 20
5938015.6611
 10
567342.1729
 20
5938014.1767
 10
567342.6368
 20
5938014.3628
 10
567342.0414
 20
5938015.8472
 10
567341.5775
 20
5938015.6611
 10
567341.8862
 20
5938016.0542
  0
LWPOLYLINE
  5
2013B
  8
0
100
AcDbEntity
100
AcDbPolyline
 70
0
 90
2
 10
567339.5438
 20
5937999.1796
 10
567341.3004
 20
5937998.2223
  0
LWPOLYLINE
  5
2013C
  8
0
100
AcDbEntity
100
AcDbPolyline
 70
0
 90
80
 10
567354.5151
 20
5938014.4472
 10
567356.2297
 20
5938015.6996
 10
567356.2594
 20
5938015.627
 10
567356.3118
 20
5938015.4985
 10
567356.3692
 20
5938015.357
 10
567356.4288
 20
5938015.2096
 10
567356.4877
 20
5938015.0634
 10
567356.543
 20
5938014.9252
 10
567356.5918
 20
5938014.8022
 10
567356.6319
 20
5938014.6997
 10
567356.6638
 20
5938014.6162
 10
567356.6887
 20
5938014.5485
 10
567356.7078
 20
5938014.4935
 10
567356.7221
 20
5938014.4479
 10
567356.733
 20
5938014.4087
 10
567356.7415
 20
5938014.3724
 10
567356.7489
 20
5938014.3361
 10
567356.756
 20
5938014.2972
 10
567356.763
 20
5938014.2556
 10
567356.7695
 20
5938014.2118
 10
567356.7755
 20
5938014.1665
 10
567356.7806
 20
5938014.1203
 10
567356.7846
 20
5938014.0737
 10
567356.7875
 20
5938014.0273
 10
567356.7889
 20
5938013.9816
 10
567356.7886
 20
5938013.9372
 10
567356.7864
 20
5938013.8937
 10
567356.7822
 20
5938013.8508
 10
567356.7756
 20
5938013.808
 10
567356.7665
 20
5938013.765
 10
567356.7546
 20
5938013.7214
 10
567356.7397
 20
5938013.6767
 10
567356.7217
 20
5938013.6306
 10
567356.7003
 20
5938013.5828
 10
567356.6755
 20
5938013.5337
 10
567356.6476
 20
5938013.4838
 10
567356.6166
 20
5938013.4336
 10
567356.5826
 20
5938013.3836
 10
567356.5458
 20
5938013.3344
 10
567356.5063
 20
5938013.2865
 10
567356.4641
 20
5938013.2404
 10
567356.4194
 20
5938013.1965
 10
567356.3726
 20
5938013.1552
 10
567356.3237
 20
5938013.1167
 10
567356.2732
 20
5938013.0814
 10
567356.2213
 20
5938013.0495
 10
567356.1682
 20
5938013.0213
 10
567356.1143
 20
5938012.9969
 10
567356.0598
 20
5938012.9768
 10
567356.0049
 20
5938012.9611
 10
567355.9497
 20
5938012.9499
 10
567355.8943
 20
5938012.9429
 10
567355.8387
 20
5938012.9402
 10
567355.7829
 20
5938012.9417
 10
567355.7269
 20
5938012.9473
 10
567355.6708
 20
5938012.957
 10
567355.6146
 20
5938012.9705
 10
567355.5584
 20
5938012.9879
 10
567355.5025
 20
5938013.0089
 10
567355.4474
 20
5938013.0331
 10
567355.3935
 20
5938013.0602
 10
567355.3411
 20
5938013.0899
 10
567355.2906
 20
5938013.1218
 10
567355.2425
 20
5938013.1556
 10
567355.1972
 20
5938013.191
 10
567355.1548
 20
5938013.2279
 10
567355.1148
 20
5938013.2672
 10
567355.0765
 20
5938013.3102
 10
567355.0391
 20
5938013.3579
 10
567355.0018
 20
5938013.4117
 10
567354.9639
 20
5938013.4726
 10
567354.9246
 20
5938013.5418
 10
567354.8832
 20
5938013.6206
 10
567354.839
 20
5938013.7098
 10
567354.792
 20
5938013.8092
 10
567354.7423
 20
5938013.9182
 10
567354.69
 20
5938014.0364
 10
567354.6351
 20
5938014.1631
 10
567354.5778
 20
5938014.2979
 10
567354.5151
 20
5938014.4472
  0
LWPOLYLINE
  5
2013D
  8
0
100
AcDbEntity
100
AcDbPolyline
 70
0
 90
2
 10
567352.36
 20
5938020.2643
 10
567352.7123
 20
5938020.6653
  0
LWPOLYLINE
  5
2013E
  8
0
100
AcDbEntity
100
AcDbPolyline
 70
0
 90
4
 10
567369.9642
 20
5937991.0291
 10
567370.3151
 20
5937989.0255
 10
567371.0171
 20
5937989.2888
 10
567369.9642
 20
5937991.0291
  0
LWPOLYLINE
  5
2013F
  8
0
100
AcDbEntity
100
AcDbPolyline
 70
0
 90
10
 10
567346.7031
 20
5938008.0884
 10
567345.1703
 20
5938006.7351
 10
567344.9244
 20
5938006.4754
 10
567344.7288
 20
5938006.176
 10
567344.5896
 20
5938005.8466
 10
567344.5114
 20
5938005.4976
 10
567344.4965
 20
5938005.1404
 10
567344.5455
 20
5938004.7861
 10
567344.6569
 20
5938004.4463
 10
567346.0076
 20
5938001.3066
  0
LWPOLYLINE
  5
20140
  8
0
100
AcDbEntity
100
AcDbPolyline
 70
0
 90
5
 10
567350.1626
 20
5938010.7786
 10
567350.5468
 20
5938011.0983
 10
567350.7066
 20
5938010.9062
 10
567350.3224
 20
5938010.5865
 10
567350.1626
 20
5938010.7786
  0
LWPOLYLINE
  5
20141
  8
0
100
AcDbEntity
100
AcDbPolyline
 70
0
 90
5
 10
567366.6798
 20
5938016.2975
 10
567366.8824
 20
5938015.8406
 10
567366.654
 20
5938015.7393
 10
567366.4513
 20
5938016.1962
 10
567366.6798
 20
5938016.2975
  0
LWPOLYLINE
  5
20142
  8
0
100
AcDbEntity
100
AcDbPolyline
 70
0
 90
5
 10
567370.6506
 20
5938007.3425
 10
567370.8532
 20
5938006.8856
 10
567370.6248
 20
5938006.7843
 10
567370.4222
 20
5938007.2412
 10
567370.6506
 20
5938007.3425
  0
LWPOLYLINE
  5
20143
  8
0
100
AcDbEntity
100
AcDbPolyline
 70
0
 90
5
 10
567366.7395
 20
5938008.5073
 10
567367.316
 20
5938007.1231
 10
567367.0853
 20
5938007.0271
 10
567366.5088
 20
5938008.4112
 10
567366.7395
 20
5938008.5073
  0
LWPOLYLINE
  5
20144
  8
0
100
AcDbEntity
100
AcDbPolyline
 70
0
 90
5
 10
567368.6454
 20
5937993.0938
 10
567369.1092
 20
5937993.2801
 10
567369.2023
 20
5937993.0482
 10
567368.7386
 20
5937992.8619
 10
567368.6454
 20
5937993.0938
  0
LWPOLYLINE
  5
20145
  8
0
100
AcDbEntity
100
AcDbPolyline
 70
0
 90
5
 10
567364.4424
 20
5937997.0432
 10
567364.2094
 20
5937996.953
 10
567364.7506
 20
5937995.5547
 10
567364.9837
 20
5937995.6449
 10
567364.4424
 20
5937997.0432
  0
LWPOLYLINE
  5
20146
  8
0
100
AcDbEntity
100
AcDbPolyline
 70
0
 90
5
 10
567356.4779
 20
5938001.6856
 10
567356.2471
 20
5938001.5896
 10
567356.8232
 20
5938000.2053
 10
567357.0539
 20
5938000.3013
 10
567356.4779
 20
5938001.6856
  0
LWPOLYLINE
  5
20147
  8
0
100
AcDbEntity
100
AcDbPolyline
 70
0
 90
11
 10
567329.2135
 20
5937985.4341
 10
567328.5657
 20
5937984.9748
 10
567328.3819
 20
5937984.7975
 10
567328.3666
 20
5937984.7533
 10
567328.3803
 20
5937984.7086
 10
567328.4439
 20
5937984.6189
 10
567329.5958
 20
5937985.4355
 10
567329.5322
 20
5937985.5252
 10
567329.4946
 20
5937985.553
 10
567329.4478
 20
5937985.5531
 10
567329.2197
 20
5937985.4384
  0
LWPOLYLINE
  5
20148
  8
0
100
AcDbEntity
100
AcDbPolyline
 70
0
 90
2
 10
567359.5203
 20
5937970.219
 10
567358.5477
 20
5937972.521
  0
LWPOLYLINE
  5
20149
  8
0
100
AcDbEntity
100
AcDbPolyline
 70
0
 90
4
 10
567339.9872
 20
5938006.0289
 10
567341.7553
 20
5938001.7915
 10
567341.4993
 20
5938001.0308
 10
567340.0608
 20
5938000.0711
  0
LWPOLYLINE
  5
2014A
  8
0
100
AcDbEntity
100
AcDbPolyline
 70
0
 90
9
 10
567372.5984
 20
5938006.6559
 10
567373.5618
 20
5938004.116
 10
567374.651
 20
5938001.2757
 10
567379.4584
 20
5937988.6643
 10
567380.9625
 20
5937984.7329
 10
567381.0734
 20
5937984.4512
 10
567386.0276
 20
5937972.1638
 10
567386.6217
 20
5937970.7102
 10
567387.6629
 20
5937968.2018
  0
LWPOLYLINE
  5
2014B
  8
0
100
AcDbEntity
100
AcDbPolyline
 70
0
 90
2
 10
567335.1049
 20
5938037.932
 10
567334.3097
 20
5938039.9743
  0
LWPOLYLINE
  5
2014C
  8
0
100
AcDbEntity
100
AcDbPolyline
 70
0
 90
2
 10
567341.1009
 20
5938030.8224
 10
567340.0147
 20
5938033.6176
  0
LWPOLYLINE
  5
2014D
  8
0
100
AcDbEntity
100
AcDbPolyline
 70
0
 90
5
 10
567368.6486
 20
5938015.1155
 10
567368.4362
 20
5938015.5679
 10
567368.6624
 20
5938015.6741
 10
567368.8748
 20
5938015.2217
 10
567368.6486
 20
5938015.1155
  0
LWPOLYLINE
  5
2014E
  8
0
100
AcDbEntity
100
AcDbPolyline
 70
0
 90
5
 10
567369.3147
 20
5937991.2935
 10
567369.7785
 20
5937991.4798
 10
567369.8717
 20
5937991.2479
 10
567369.4079
 20
5937991.0616
 10
567369.3147
 20
5937991.2935
  0
LWPOLYLINE
  5
2014F
  8
0
100
AcDbEntity
100
AcDbPolyline
 70
0
 90
5
 10
567358.8486
 20
5937989.1055
 10
567359.3109
 20
5937989.2956
 10
567359.4059
 20
5937989.0645
 10
567358.9436
 20
5937988.8744
 10
567358.8486
 20
5937989.1055
  0
LWPOLYLINE
  5
20150
  8
0
100
AcDbEntity
100
AcDbPolyline
 70
0
 90
13
 10
567366.0166
 20
5937981.4919
 10
567365.8917
 20
5937981.4585
 10
567365.8002
 20
5937981.367
 10
567365.7667
 20
5937981.242
 10
567365.8002
 20
5937981.1171
 10
567365.8916
 20
5937981.0256
 10
567366.0166
 20
5937980.9921
 10
567366.1415
 20
5937981.0256
 10
567366.233
 20
5937981.1171
 10
567366.2665
 20
5937981.242
 10
567366.233
 20
5937981.367
 10
567366.1416
 20
5937981.4585
 10
567366.0166
 20
5937981.4919
  0
LWPOLYLINE
  5
20151
  8
0
100
AcDbEntity
100
AcDbPolyline
 70
0
 90
2
 10
567354.58
 20
5938016.0318
 10
567354.7541
 20
5938017.7725
  0
LWPOLYLINE
  5
20152
  8
0
100
AcDbEntity
100
AcDbPolyline
 70
0
 90
3
 10
567363.149
 20
5937988.6099
 10
567363.5071
 20
5937988.3099
 10
567364.2509
 20
5937986.4542
  0
LWPOLYLINE
  5
20153
  8
0
100
AcDbEntity
100
AcDbPolyline
 70
0
 90
2
 10
567339.7161
 20
5937980.9078
 10
567340.404
 20
5937979.8733
  0
LWPOLYLINE
  5
20154
  8
0
100
AcDbEntity
100
AcDbPolyline
 70
0
 90
3
 10
567339.9872
 20
5938006.0289
 10
567335.0198
 20
5938017.9343
 10
567325.823
 20
5938039.9744
  0
LWPOLYLINE
  5
20155
  8
0
100
AcDbEntity
100
AcDbPolyline
 70
0
 90
5
 10
567345.1323
 20
5937990.3366
 10
567345.3354
 20
5937989.8799
 10
567345.2257
 20
5937989.8311
 10
567345.0227
 20
5937990.2878
 10
567345.1323
 20
5937990.3366
  0
LWPOLYLINE
  5
20156
  8
0
100
AcDbEntity
100
AcDbPolyline
 70
0
 90
5
 10
567342.8582
 20
5937995.4515
 10
567343.0613
 20
5937994.9948
 10
567342.9517
 20
5937994.9461
 10
567342.7486
 20
5937995.4028
 10
567342.8582
 20
5937995.4515
  0
LWPOLYLINE
  5
20157
  8
0
100
AcDbEntity
100
AcDbPolyline
 70
0
 90
2
 10
567378.2927
 20
5938015.5023
 10
567381.652
 20
5938018.2419
  0
LWPOLYLINE
  5
20158
  8
0
100
AcDbEntity
100
AcDbPolyline
 70
0
 90
5
 10
567359.7262
 20
5937993.2914
 10
567359.9556
 20
5937993.3905
 10
567360.5502
 20
5937992.0141
 10
567360.3208
 20
5937991.915
 10
567359.7262
 20
5937993.2914
  0
LWPOLYLINE
  5
20159
  8
0
100
AcDbEntity
100
AcDbPolyline
 70
0
 90
5
 10
567336.9354
 20
5938025.5256
 10
567336.9523
 20
5938025.5665
 10
567336.9114
 20
5938025.5833
 10
567336.8946
 20
5938025.5425
 10
567336.9354
 20
5938025.5256
  0
LWPOLYLINE
  5
2015A
  8
0
100
AcDbEntity
100
AcDbPolyline
 70
0
 90
11
 10
567341.5991
 20
5937996.6631
 10
567342.0965
 20
5937995.8661
 10
567340.7823
 20
5937994.3488
 10
567339.4181
 20
5937992.8764
 10
567338.0053
 20
5937991.4504
 10
567336.5457
 20
5937990.0725
 10
567335.0407
 20
5937988.7442
 10
567333.4922
 20
5937987.467
 10
567331.9018
 20
5937986.2424
 10
567314.931
 20
5937974.315
 10
567313.8431
 20
5937975.9398
  0
LWPOLYLINE
  5
2015B
  8
0
100
AcDbEntity
100
AcDbPolyline
 70
0
 90
13
 10
567367.9996
 20
5938018.5098
 10
567367.8746
 20
5938018.4764
 10
567367.7832
 20
5938018.3849
 10
567367.7497
 20
5938018.2599
 10
567367.7832
 20
5938018.135
 10
567367.8746
 20
5938018.0435
 10
567367.9996
 20
5938018.01
 10
567368.1245
 20
5938018.0435
 10
567368.216
 20
5938018.135
 10
567368.2495
 20
5938018.2599
 10
567368.216
 20
5938018.3849
 10
567368.1245
 20
5938018.4764
 10
567367.9996
 20
5938018.5098
  0
LWPOLYLINE
  5
2015C
  8
0
100
AcDbEntity
100
AcDbPolyline
 70
0
 90
2
 10
567354.6592
 20
5937981.0559
 10
567359.7794
 20
5937968.2357
  0
LWPOLYLINE
  5
2015D
  8
0
100
AcDbEntity
100
AcDbPolyline
 70
0
 90
2
 10
567405.1249
 20
5938033.1045
 10
567405.407
 20
5938033.3317
  0
LWPOLYLINE
  5
2015E
  8
0
100
AcDbEntity
100
AcDbPolyline
 70
0
 90
3
 10
567343.6828
 20
5938013.07
 10
567344.3368
 20
5938011.1808
 10
567348.1646
 20
5938012.3089
  0
LWPOLYLINE
  5
2015F
  8
0
100
AcDbEntity
100
AcDbPolyline
 70
0
 90
5
 10
567351.8913
 20
5937988.6486
 10
567352.0937
 20
5937988.1916
 10
567351.8652
 20
5937988.0904
 10
567351.6628
 20
5937988.5474
 10
567351.8913
 20
5937988.6486
  0
LWPOLYLINE
  5
20160
  8
0
100
AcDbEntity
100
AcDbPolyline
 70
0
 90
5
 10
567348.2079
 20
5937996.9658
 10
567348.4103
 20
5937996.5088
 10
567348.1818
 20
5937996.4076
 10
567347.9794
 20
5937996.8646
 10
567348.2079
 20
5937996.9658
  0
LWPOLYLINE
  5
20161
  8
0
100
AcDbEntity
100
AcDbPolyline
 70
0
 90
21
 10
567363.5528
 20
5937984.6285
 10
567363.7087
 20
5937984.2371
 10
567364.5955
 20
5937981.9381
 10
567365.0419
 20
5937980.8186
 10
567365.1147
 20
5937980.7019
 10
567365.22
 20
5937980.6133
 10
567365.4315
 20
5937980.5104
 10
567365.6581
 20
5937980.4468
 10
567365.8601
 20
5937980.4323
 10
567366.0604
 20
5937980.4631
 10
567366.2457
 20
5937980.5368
 10
567366.4097
 20
5937980.6504
 10
567366.5572
 20
5937980.8018
 10
567366.6794
 20
5937980.9742
 10
567366.7435
 20
5937981.1141
 10
567366.7761
 20
5937981.2644
 10
567366.7868
 20
5937981.624
 10
567366.7494
 20
5937981.8487
 10
567366.459
 20
5937982.7282
 10
567365.4455
 20
5937985.3863
 10
567363.5475
 20
5937984.6263
  0
LWPOLYLINE
  5
20162
  8
0
100
AcDbEntity
100
AcDbPolyline
 70
0
 90
2
 10
567374.1977
 20
5937992.2215
 10
567373.4344
 20
5937991.983
  0
LWPOLYLINE
  5
20163
  8
0
100
AcDbEntity
100
AcDbPolyline
 70
0
 90
2
 10
567337.8451
 20
5938023.3396
 10
567336.9234
 20
5938025.5545
  0
LWPOLYLINE
  5
20164
  8
0
100
AcDbEntity
100
AcDbPolyline
 70
0
 90
2
 10
567334.1953
 20
5937975.7319
 10
567333.5276
 20
5937976.8004
  0
LWPOLYLINE
  5
20165
  8
0
100
AcDbEntity
100
AcDbPolyline
 70
0
 90
2
 10
567318.2743
 20
5937968.2361
 10
567317.9398
 20
5937968.7376
  0
LWPOLYLINE
  5
20166
  8
0
100
AcDbEntity
100
AcDbPolyline
 70
0
 90
55
 10
567353.8722
 20
5938020.9018
 10
567354.011
 20
5938021.0124
 10
567353.9381
 20
5938021.1859
 10
567352.9634
 20
5938023.5086
 10
567352.6184
 20
5938024.4089
 10
567352.2993
 20
5938025.2347
 10
567352.1878
 20
5938025.351
 10
567352.0748
 20
5938025.4477
 10
567351.9611
 20
5938025.5265
 10
567351.8477
 20
5938025.5893
 10
567351.7354
 20
5938025.6377
 10
567351.625
 20
5938025.6737
 10
567351.5174
 20
5938025.699
 10
567351.4133
 20
5938025.7153
 10
567351.3137
 20
5938025.7242
 10
567351.2186
 20
5938025.7264
 10
567351.1284
 20
5938025.722
 10
567351.0432
 20
5938025.7116
 10
567350.9631
 20
5938025.6955
 10
567350.8884
 20
5938025.6739
 10
567350.8192
 20
5938025.6474
 10
567350.7557
 20
5938025.6162
 10
567350.698
 20
5938025.5807
 10
567350.646
 20
5938025.5414
 10
567350.5994
 20
5938025.4987
 10
567350.5579
 20
5938025.453
 10
567350.5214
 20
5938025.4048
 10
567350.4896
 20
5938025.3545
 10
567350.4622
 20
5938025.3025
 10
567350.4391
 20
5938025.2494
 10
567350.4199
 20
5938025.1956
 10
567350.4044
 20
5938025.1414
 10
567350.3922
 20
5938025.0874
 10
567350.3831
 20
5938025.0339
 10
567350.3767
 20
5938024.9814
 10
567350.3728
 20
5938024.9304
 10
567350.3709
 20
5938024.8812
 10
567350.3708
 20
5938024.8342
 10
567350.3723
 20
5938024.7896
 10
567350.3759
 20
5938024.7456
 10
567350.3822
 20
5938024.7002
 10
567350.3917
 20
5938024.6513
 10
567350.4051
 20
5938024.5967
 10
567350.423
 20
5938024.5345
 10
567350.446
 20
5938024.4624
 10
567350.4747
 20
5938024.3785
 10
567350.5124
 20
5938024.274
 10
567350.5737
 20
5938024.1132
 10
567350.6756
 20
5938023.854
 10
567350.8354
 20
5938023.454
 10
567351.0702
 20
5938022.8709
 10
567351.3973
 20
5938022.0626
 10
567351.8339
 20
5938020.9867
 10
567352.3588
 20
5938019.695
 10
567352.8396
 20
5938020.0784
  0
LWPOLYLINE
  5
20167
  8
0
100
AcDbEntity
100
AcDbPolyline
 70
0
 90
9
 10
567334.0791
 20
5938032.6653
 10
567334.018
 20
5938032.64
 10
567333.9926
 20
5938032.5789
 10
567334.018
 20
5938032.5177
 10
567334.0791
 20
5938032.4924
 10
567334.1403
 20
5938032.5177
 10
567334.1656
 20
5938032.5789
 10
567334.1403
 20
5938032.64
 10
567334.0791
 20
5938032.6653
  0
LWPOLYLINE
  5
20168
  8
0
100
AcDbEntity
100
AcDbPolyline
 70
0
 90
5
 10
567367.9961
 20
5937992.833
 10
567368.4599
 20
5937993.0192
 10
567368.5531
 20
5937992.7874
 10
567368.0893
 20
5937992.6011
 10
567367.9961
 20
5937992.833
  0
LWPOLYLINE
  5
20169
  8
0
100
AcDbEntity
100
AcDbPolyline
 70
0
 90
5
 10
567362.0328
 20
5938022.8519
 10
567362.4169
 20
5938023.1717
 10
567362.5768
 20
5938022.9796
 10
567362.1926
 20
5938022.6598
 10
567362.0328
 20
5938022.8519
  0
LWPOLYLINE
  5
2016A
  8
0
100
AcDbEntity
100
AcDbPolyline
 70
0
 90
5
 10
567354.9657
 20
5937987.5089
 10
567355.428
 20
5937987.699
 10
567355.523
 20
5937987.4679
 10
567355.0608
 20
5937987.2778
 10
567354.9657
 20
5937987.5089
  0
LWPOLYLINE
  5
2016B
  8
0
100
AcDbEntity
100
AcDbPolyline
 70
0
 90
2
 10
567344.4826
 20
5937999.6249
 10
567343.8507
 20
5938000.115
  0
LWPOLYLINE
  5
2016C
  8
0
100
AcDbEntity
100
AcDbPolyline
 70
0
 90
13
 10
567354.6574
 20
5937984.874
 10
567354.5325
 20
5937984.8405
 10
567354.441
 20
5937984.749
 10
567354.4075
 20
5937984.6241
 10
567354.441
 20
5937984.4991
 10
567354.5325
 20
5937984.4077
 10
567354.6574
 20
5937984.3742
 10
567354.7824
 20
5937984.4077
 10
567354.8739
 20
5937984.4991
 10
567354.9073
 20
5937984.6241
 10
567354.8739
 20
5937984.749
 10
567354.7824
 20
5937984.8405
 10
567354.6574
 20
5937984.874
  0
LWPOLYLINE
  5
2016D
  8
0
100
AcDbEntity
100
AcDbPolyline
 70
0
 90
13
 10
567364.4068
 20
5938025.3209
 10
567364.2818
 20
5938025.2875
 10
567364.1904
 20
5938025.196
 10
567364.1569
 20
5938025.071
 10
567364.1904
 20
5938024.9461
 10
567364.2818
 20
5938024.8546
 10
567364.4068
 20
5938024.8211
 10
567364.5317
 20
5938024.8546
 10
567364.6232
 20
5938024.9461
 10
567364.6567
 20
5938025.071
 10
567364.6232
 20
5938025.196
 10
567364.5317
 20
5938025.2875
 10
567364.4068
 20
5938025.3209
  0
LWPOLYLINE
  5
2016E
  8
0
100
AcDbEntity
100
AcDbPolyline
 70
0
 90
2
 10
567319.1307
 20
5937973.5182
 10
567316.6389
 20
5937971.8497
  0
LWPOLYLINE
  5
2016F
  8
0
100
AcDbEntity
100
AcDbPolyline
 70
0
 90
5
 10
567350.4746
 20
5937991.8475
 10
567350.677
 20
5937991.3905
 10
567350.4485
 20
5937991.2893
 10
567350.2461
 20
5937991.7463
 10
567350.4746
 20
5937991.8475
  0
LWPOLYLINE
  5
20170
  8
0
100
AcDbEntity
100
AcDbPolyline
 70
0
 90
5
 10
567359.8817
 20
5938021.0612
 10
567360.2658
 20
5938021.381
 10
567360.4257
 20
5938021.1889
 10
567360.0415
 20
5938020.8691
 10
567359.8817
 20
5938021.0612
  0
LWPOLYLINE
  5
20171
  8
0
100
AcDbEntity
100
AcDbPolyline
 70
0
 90
5
 10
567359.0874
 20
5938018.1052
 10
567359.4715
 20
5938018.425
 10
567359.6314
 20
5938018.2329
 10
567359.2472
 20
5938017.9132
 10
567359.0874
 20
5938018.1052
  0
LWPOLYLINE
  5
20172
  8
0
100
AcDbEntity
100
AcDbPolyline
 70
0
 90
5
 10
567353.3897
 20
5938013.4641
 10
567353.7739
 20
5938013.7838
 10
567353.9337
 20
5938013.5918
 10
567353.5495
 20
5938013.272
 10
567353.3897
 20
5938013.4641
  0
LWPOLYLINE
  5
20173
  8
0
100
AcDbEntity
100
AcDbPolyline
 70
0
 90
5
 10
567373.7005
 20
5938016.3583
 10
567373.81
 20
5938016.4073
 10
567374.0141
 20
5938015.9511
 10
567373.9046
 20
5938015.9021
 10
567373.7005
 20
5938016.3583
  0
LWPOLYLINE
  5
20174
  8
0
100
AcDbEntity
100
AcDbPolyline
 70
0
 90
5
 10
567372.2175
 20
5938007.5152
 10
567372.0051
 20
5938007.9676
 10
567372.2313
 20
5938008.0738
 10
567372.4437
 20
5938007.6214
 10
567372.2175
 20
5938007.5152
  0
LWPOLYLINE
  5
20175
  8
0
100
AcDbEntity
100
AcDbPolyline
 70
0
 90
5
 10
567371.9201
 20
5938008.1485
 10
567371.7077
 20
5938008.6009
 10
567371.9339
 20
5938008.7072
 10
567372.1463
 20
5938008.2547
 10
567371.9201
 20
5938008.1485
  0
LWPOLYLINE
  5
20176
  8
0
100
AcDbEntity
100
AcDbPolyline
 70
0
 90
13
 10
567355.8727
 20
5938014.2066
 10
567355.7477
 20
5938014.1731
 10
567355.6563
 20
5938014.0817
 10
567355.6228
 20
5938013.9567
 10
567355.6563
 20
5938013.8318
 10
567355.7477
 20
5938013.7403
 10
567355.8727
 20
5938013.7068
 10
567355.9976
 20
5938013.7403
 10
567356.0891
 20
5938013.8318
 10
567356.1226
 20
5938013.9567
 10
567356.0891
 20
5938014.0817
 10
567355.9976
 20
5938014.1731
 10
567355.8727
 20
5938014.2066
  0
LWPOLYLINE
  5
20177
  8
0
100
AcDbEntity
100
AcDbPolyline
 70
0
 90
4
 10
567334.3148
 20
5937993.4981
 10
567334.0524
 20
5937993.3503
 10
567333.7471
 20
5937993.8055
 10
567332.3007
 20
5937992.8356
  0
LWPOLYLINE
  5
20178
  8
0
100
AcDbEntity
100
AcDbPolyline
 70
0
 90
4
 10
567373.8461
 20
5937992.1605
 10
567374.0301
 20
5937990.1348
 10
567374.7514
 20
5937990.3391
 10
567373.8461
 20
5937992.1605
  0
LWPOLYLINE
  5
20179
  8
0
100
AcDbEntity
100
AcDbPolyline
 70
0
 90
4
 10
567349.8767
 20
5937987.3419
 10
567347.8457
 20
5937987.2321
 10
567348.0234
 20
5937986.5038
 10
567349.8767
 20
5937987.3419
  0
LWPOLYLINE
  5
2017A
  8
0
100
AcDbEntity
100
AcDbPolyline
 70
0
 90
5
 10
567350.1913
 20
5937992.4873
 10
567350.3937
 20
5937992.0303
 10
567350.1652
 20
5937991.9291
 10
567349.9628
 20
5937992.3861
 10
567350.1913
 20
5937992.4873
  0
LWPOLYLINE
  5
2017B
  8
0
100
AcDbEntity
100
AcDbPolyline
 70
0
 90
5
 10
567367.163
 20
5937980.5532
 10
567366.9957
 20
5937976.6889
 10
567367.2228
 20
5937976.156
 10
567367.3875
 20
5937979.9628
 10
567367.163
 20
5937980.5532
  0
LWPOLYLINE
  5
2017C
  8
0
100
AcDbEntity
100
AcDbPolyline
 70
0
 90
2
 10
567356.2224
 20
5938024.3706
 10
567354.9608
 20
5938027.091
  0
LWPOLYLINE
  5
2017D
  8
0
100
AcDbEntity
100
AcDbPolyline
 70
0
 90
5
 10
567357.6102
 20
5937986.3224
 10
567357.1479
 20
5937986.1324
 10
567357.0529
 20
5937986.3635
 10
567357.5151
 20
5937986.5536
 10
567357.6102
 20
5937986.3224
  0
LWPOLYLINE
  5
2017E
  8
0
100
AcDbEntity
100
AcDbPolyline
 70
0
 90
13
 10
567341.1988
 20
5937997.8673
 10
567341.0738
 20
5937997.8338
 10
567340.9824
 20
5937997.7423
 10
567340.9489
 20
5937997.6174
 10
567340.9824
 20
5937997.4924
 10
567341.0738
 20
5937997.401
 10
567341.1988
 20
5937997.3675
 10
567341.3237
 20
5937997.401
 10
567341.4152
 20
5937997.4924
 10
567341.4487
 20
5937997.6174
 10
567341.4152
 20
5937997.7423
 10
567341.3237
 20
5937997.8338
 10
567341.1988
 20
5937997.8673
  0
LWPOLYLINE
  5
2017F
  8
0
100
AcDbEntity
100
AcDbPolyline
 70
0
 90
4
 10
567350.6153
 20
5937987.6795
 10
567350.2455
 20
5937989.6797
 10
567349.5461
 20
5937989.4098
 10
567350.6153
 20
5937987.6795
  0
LWPOLYLINE
  5
20180
  8
0
100
AcDbEntity
100
AcDbPolyline
 70
0
 90
2
 10
567354.9784
 20
5938016.9599
 10
567354.667
 20
5938016.9022
  0
LWPOLYLINE
  5
20181
  8
0
100
AcDbEntity
100
AcDbPolyline
 70
0
 90
4
 10
567344.9359
 20
5938039.9741
 10
567344.8366
 20
5938039.0189
 10
567345.0348
 20
5938038.5098
 10
567345.1872
 20
5938039.9741
  0
LWPOLYLINE
  5
20182
  8
0
100
AcDbEntity
100
AcDbPolyline
 70
0
 90
2
 10
567338.9285
 20
5938036.4127
 10
567337.8423
 20
5938039.2079
  0
LWPOLYLINE
  5
20183
  8
0
100
AcDbEntity
100
AcDbPolyline
 70
0
 90
5
 10
567358.0893
 20
5938024.3307
 10
567358.0126
 20
5938024.4229
 10
567357.6285
 20
5938024.1031
 10
567357.7052
 20
5938024.011
 10
567358.0893
 20
5938024.3307
  0
LWPOLYLINE
  5
20184
  8
0
100
AcDbEntity
100
AcDbPolyline
 70
0
 90
5
 10
567353.9275
 20
5938013.9117
 10
567354.3117
 20
5938014.2314
 10
567354.4715
 20
5938014.0393
 10
567354.0874
 20
5938013.7196
 10
567353.9275
 20
5938013.9117
  0
LWPOLYLINE
  5
20185
  8
0
100
AcDbEntity
100
AcDbPolyline
 70
0
 90
5
 10
567371.3253
 20
5938009.4152
 10
567371.1129
 20
5938009.8676
 10
567371.3391
 20
5938009.9739
 10
567371.5515
 20
5938009.5215
 10
567371.3253
 20
5938009.4152
  0
LWPOLYLINE
  5
20186
  8
0
100
AcDbEntity
100
AcDbPolyline
 70
0
 90
5
 10
567371.2179
 20
5938006.0632
 10
567371.4205
 20
5938005.6063
 10
567371.1921
 20
5938005.505
 10
567370.9895
 20
5938005.9618
 10
567371.2179
 20
5938006.0632
  0
LWPOLYLINE
  5
20187
  8
0
100
AcDbEntity
100
AcDbPolyline
 70
0
 90
5
 10
567344.1905
 20
5938014.5232
 10
567344.3503
 20
5938014.3311
 10
567352.0235
 20
5938020.7166
 10
567351.7038
 20
5938021.1008
 10
567344.0952
 20
5938014.769
  0
LWPOLYLINE
  5
20188
  8
0
100
AcDbEntity
100
AcDbPolyline
 70
0
 90
2
 10
567357.4175
 20
5938003.6254
 10
567358.7434
 20
5938003.0013
  0
LWPOLYLINE
  5
20189
  8
0
100
AcDbEntity
100
AcDbPolyline
 70
0
 90
18
 10
567326.046
 20
5937983.0538
 10
567326.2252
 20
5937982.801
 10
567330.3026
 20
5937985.6915
 10
567330.1234
 20
5937985.9443
 10
567330.0364
 20
5937986.009
 10
567329.928
 20
5937986.01
 10
567329.4969
 20
5937985.8358
 10
567329.0979
 20
5937985.5971
 10
567328.4563
 20
5937985.1423
 10
567328.1903
 20
5937984.9301
 10
567327.9501
 20
5937984.6891
 10
567327.6431
 20
5937984.5422
 10
567327.3548
 20
5937984.3614
 10
567326.7132
 20
5937983.9066
 10
567326.3559
 20
5937983.6091
 10
567326.0488
 20
5937983.26
 10
567326.0138
 20
5937983.1573
 10
567326.046
 20
5937983.0538
  0
LWPOLYLINE
  5
2018A
  8
0
100
AcDbEntity
100
AcDbPolyline
 70
0
 90
4
 10
567357.4292
 20
5937982.6002
 10
567357.1321
 20
5937983.3634
 10
567356.7681
 20
5937984.0971
 10
567356.3402
 20
5937984.7954
  0
LWPOLYLINE
  5
2018B
  8
0
100
AcDbEntity
100
AcDbPolyline
 70
0
 90
17
 10
567340.4643
 20
5937997.3814
 10
567340.2986
 20
5937997.3484
 10
567340.1581
 20
5937997.2546
 10
567340.0643
 20
5937997.1141
 10
567340.0313
 20
5937996.9484
 10
567340.0643
 20
5937996.7827
 10
567340.1581
 20
5937996.6422
 10
567340.2986
 20
5937996.5484
 10
567340.4642
 20
5937996.5154
 10
567340.6299
 20
5937996.5484
 10
567340.7704
 20
5937996.6422
 10
567340.8643
 20
5937996.7827
 10
567340.8972
 20
5937996.9484
 10
567340.8643
 20
5937997.1141
 10
567340.7704
 20
5937997.2546
 10
567340.63
 20
5937997.3484
 10
567340.4643
 20
5937997.3814
  0
LWPOLYLINE
  5
2018C
  8
0
100
AcDbEntity
100
AcDbPolyline
 70
0
 90
5
 10
567347.4702
 20
5937994.3064
 10
567347.6724
 20
5937993.8493
 10
567347.4439
 20
5937993.7482
 10
567347.2417
 20
5937994.2053
 10
567347.4702
 20
5937994.3064
  0
LWPOLYLINE
  5
2018D
  8
0
100
AcDbEntity
100
AcDbPolyline
 70
0
 90
5
 10
567348.0554
 20
5938033.9866
 10
567347.7899
 20
5938031.4357
 10
567347.9882
 20
5938030.9266
 10
567348.2608
 20
5938033.5466
 10
567348.0554
 20
5938033.9866
  0
LWPOLYLINE
  5
2018E
  8
0
100
AcDbEntity
100
AcDbPolyline
 70
0
 90
5
 10
567346.5251
 20
5938037.263
 10
567346.3133
 20
5938035.2273
 10
567346.5115
 20
5938034.7182
 10
567346.7305
 20
5938036.8231
 10
567346.5251
 20
5938037.263
  0
LWPOLYLINE
  5
2018F
  8
0
100
AcDbEntity
100
AcDbPolyline
 70
0
 90
5
 10
567350.9625
 20
5937998.2111
 10
567350.7316
 20
5937998.1154
 10
567351.306
 20
5937996.7304
 10
567351.5369
 20
5937996.8261
 10
567350.9625
 20
5937998.2111
  0
LWPOLYLINE
  5
20190
  8
0
100
AcDbEntity
100
AcDbPolyline
 70
0
 90
8
 10
567345.7273
 20
5938023.5208
 10
567344.7433
 20
5938025.2789
 10
567344.9169
 20
5938025.3494
 10
567343.7303
 20
5938028.1042
 10
567343.9618
 20
5938028.1982
 10
567345.0327
 20
5938025.3965
 10
567345.2063
 20
5938025.467
 10
567345.7273
 20
5938023.5208
  0
LWPOLYLINE
  5
20191
  8
0
100
AcDbEntity
100
AcDbPolyline
 70
0
 90
4
 10
567368.1221
 20
5938018.0422
 10
567368.5794
 20
5938016.0602
 10
567369.2663
 20
5938016.3605
 10
567368.1221
 20
5938018.0422
  0
LWPOLYLINE
  5
20192
  8
0
100
AcDbEntity
100
AcDbPolyline
 70
0
 90
2
 10
567388.8698
 20
5938027.3817
 10
567387.2732
 20
5938026.4107
  0
LWPOLYLINE
  5
20193
  8
0
100
AcDbEntity
100
AcDbPolyline
 70
0
 90
2
 10
567333.3613
 20
5938034.4482
 10
567334.0791
 20
5938032.5789
  0
LWPOLYLINE
  5
20194
  8
0
100
AcDbEntity
100
AcDbPolyline
 70
0
 90
5
 10
567347.7532
 20
5937993.6665
 10
567347.9554
 20
5937993.2094
 10
567347.7269
 20
5937993.1083
 10
567347.5247
 20
5937993.5653
 10
567347.7532
 20
5937993.6665
  0
LWPOLYLINE
  5
20195
  8
0
100
AcDbEntity
100
AcDbPolyline
 70
0
 90
5
 10
567358.0118
 20
5938017.2099
 10
567358.396
 20
5938017.5297
 10
567358.5558
 20
5938017.3376
 10
567358.1717
 20
5938017.0178
 10
567358.0118
 20
5938017.2099
  0
LWPOLYLINE
  5
20196
  8
0
100
AcDbEntity
100
AcDbPolyline
 70
0
 90
5
 10
567358.6436
 20
5938010.8664
 10
567358.8717
 20
5938010.9684
 10
567359.484
 20
5938009.5998
 10
567359.2559
 20
5938009.4977
 10
567358.6436
 20
5938010.8664
  0
LWPOLYLINE
  5
20197
  8
0
100
AcDbEntity
100
AcDbPolyline
 70
0
 90
5
 10
567350.6259
 20
5938013.4834
 10
567351.0101
 20
5938013.8031
 10
567351.17
 20
5938013.611
 10
567350.7858
 20
5938013.2913
 10
567350.6259
 20
5938013.4834
  0
LWPOLYLINE
  5
20198
  8
0
100
AcDbEntity
100
AcDbPolyline
 70
0
 90
5
 10
567373.8826
 20
5937988.7109
 10
567373.8379
 20
5937988.8222
 10
567373.3741
 20
5937988.6359
 10
567373.4188
 20
5937988.5246
 10
567373.8826
 20
5937988.7109
  0
LWPOLYLINE
  5
20199
  8
0
100
AcDbEntity
100
AcDbPolyline
 70
0
 90
5
 10
567371.9347
 20
5937987.9285
 10
567371.89
 20
5937988.0398
 10
567371.4262
 20
5937987.8535
 10
567371.4709
 20
5937987.7422
 10
567371.9347
 20
5937987.9285
  0
LWPOLYLINE
  5
2019A
  8
0
100
AcDbEntity
100
AcDbPolyline
 70
0
 90
2
 10
567381.2729
 20
5937970.0048
 10
567384.7607
 20
5937971.766
  0
LWPOLYLINE
  5
2019B
  8
0
100
AcDbEntity
100
AcDbPolyline
 70
0
 90
5
 10
567351.2383
 20
5938011.6738
 10
567351.6225
 20
5938011.9935
 10
567351.7823
 20
5938011.8014
 10
567351.3981
 20
5938011.4817
 10
567351.2383
 20
5938011.6738
  0
LWPOLYLINE
  5
2019C
  8
0
100
AcDbEntity
100
AcDbPolyline
 70
0
 90
5
 10
567367.3897
 20
5937986.1028
 10
567367.345
 20
5937986.2141
 10
567366.8812
 20
5937986.0278
 10
567366.9259
 20
5937985.9165
 10
567367.3897
 20
5937986.1028
  0
LWPOLYLINE
  5
2019D
  8
0
100
AcDbEntity
100
AcDbPolyline
 70
0
 90
2
 10
567355.1567
 20
5938005.5206
 10
567356.1616
 20
5938004.5481
  0
LWPOLYLINE
  5
2019E
  8
0
100
AcDbEntity
100
AcDbPolyline
 70
0
 90
4
 10
567364.2153
 20
5938024.9105
 10
567362.4219
 20
5938023.9508
 10
567362.8913
 20
5938023.3663
 10
567364.2153
 20
5938024.9105
  0
LWPOLYLINE
  5
2019F
  8
0
100
AcDbEntity
100
AcDbPolyline
 70
0
 90
4
 10
567343.0313
 20
5937985.6102
 10
567345.2218
 20
5937987.0803
 10
567345.8435
 20
5937987.4569
 10
567346.4968
 20
5937987.7755
  0
LWPOLYLINE
  5
201A0
  8
0
100
AcDbEntity
100
AcDbPolyline
 70
0
 90
2
 10
567332.3007
 20
5937992.8356
 10
567333.3632
 20
5937991.2285
  0
LWPOLYLINE
  5
201A1
  8
0
100
AcDbEntity
100
AcDbPolyline
 70
0
 90
9
 10
567378.3039
 20
5937985.6246
 10
567378.2428
 20
5937985.5993
 10
567378.2174
 20
5937985.5381
 10
567378.2428
 20
5937985.477
 10
567378.3039
 20
5937985.4516
 10
567378.3651
 20
5937985.477
 10
567378.3904
 20
5937985.5381
 10
567378.3651
 20
5937985.5993
 10
567378.3039
 20
5937985.6246
  0
LWPOLYLINE
  5
201A2
  8
0
100
AcDbEntity
100
AcDbPolyline
 70
0
 90
5
 10
567348.4913
 20
5937996.326
 10
567348.6936
 20
5937995.869
 10
567348.4652
 20
5937995.7678
 10
567348.2628
 20
5937996.2248
 10
567348.4913
 20
5937996.326
  0
LWPOLYLINE
  5
201A3
  8
0
100
AcDbEntity
100
AcDbPolyline
 70
0
 90
5
 10
567346.2246
 20
5938001.4442
 10
567346.4269
 20
5938000.9872
 10
567346.1985
 20
5938000.886
 10
567345.9961
 20
5938001.343
 10
567346.2246
 20
5938001.4442
  0
LWPOLYLINE
  5
201A4
  8
0
100
AcDbEntity
100
AcDbPolyline
 70
0
 90
5
 10
567358.2683
 20
5938019.7182
 10
567358.6525
 20
5938020.038
 10
567358.8123
 20
5938019.8459
 10
567358.4282
 20
5938019.5261
 10
567358.2683
 20
5938019.7182
  0
LWPOLYLINE
  5
201A5
  8
0
100
AcDbEntity
100
AcDbPolyline
 70
0
 90
5
 10
567368.0162
 20
5937990.7718
 10
567368.48
 20
5937990.9581
 10
567368.5731
 20
5937990.7262
 10
567368.1093
 20
5937990.5399
 10
567368.0162
 20
5937990.7718
  0
LWPOLYLINE
  5
201A6
  8
0
100
AcDbEntity
100
AcDbPolyline
 70
0
 90
4
 10
567362.9848
 20
5937968.202
 10
567362.8003
 20
5937968.6882
 10
567362.5229
 20
5937969.4213
 10
567361.9072
 20
5937971.1332
  0
LWPOLYLINE
  5
201A7
  8
0
100
AcDbEntity
100
AcDbPolyline
 70
0
 90
5
 10
567337.8571
 20
5938023.3107
 10
567337.8739
 20
5938023.3516
 10
567337.833
 20
5938023.3684
 10
567337.8162
 20
5938023.3275
 10
567337.8571
 20
5938023.3107
  0
LWPOLYLINE
  5
201A8
  8
0
100
AcDbEntity
100
AcDbPolyline
 70
0
 90
2
 10
567360.3257
 20
5938002.3975
 10
567361.7769
 20
5938002.1384
  0
LWPOLYLINE
  5
201A9
  8
0
100
AcDbEntity
100
AcDbPolyline
 70
0
 90
2
 10
567333.3156
 20
5937991.9796
 10
567334.9244
 20
5937989.6894
  0
LWPOLYLINE
  5
201AA
  8
0
100
AcDbEntity
100
AcDbPolyline
 70
0
 90
3
 10
567346.6457
 20
5938008.2666
 10
567346.1702
 20
5938009.654
 10
567345.6497
 20
5938011.025
  0
LWPOLYLINE
  5
201AB
  8
0
100
AcDbEntity
100
AcDbPolyline
 70
0
 90
2
 10
567340.2559
 20
5937995.7767
 10
567342.1506
 20
5937997.0538
  0
LWPOLYLINE
  5
201AC
  8
0
100
AcDbEntity
100
AcDbPolyline
 70
0
 90
4
 10
567344.3368
 20
5938011.1808
 10
567344.037
 20
5938013.1926
 10
567343.3285
 20
5938012.9473
 10
567344.3368
 20
5938011.1808
  0
LWPOLYLINE
  5
201AD
  8
0
100
AcDbEntity
100
AcDbPolyline
 70
0
 90
5
 10
567355.3247
 20
5938004.4538
 10
567355.094
 20
5938004.3577
 10
567355.6707
 20
5938002.9737
 10
567355.9014
 20
5938003.0698
 10
567355.3247
 20
5938004.4538
  0
LWPOLYLINE
  5
201AE
  8
0
100
AcDbEntity
100
AcDbPolyline
 70
0
 90
4
 10
567335.7788
 20
5937992.6312
 10
567334.5773
 20
5937994.3622
 10
567340.8022
 20
5937998.5366
 10
567341.0991
 20
5937998.1073
  0
LWPOLYLINE
  5
201AF
  8
0
100
AcDbEntity
100
AcDbPolyline
 70
0
 90
11
 10
567355.4468
 20
5938035.5208
 10
567355.1067
 20
5938036.2383
 10
567354.9638
 20
5938036.45
 10
567354.923
 20
5938036.4728
 10
567354.8766
 20
5938036.4669
 10
567354.7772
 20
5938036.4198
 10
567355.3821
 20
5938035.144
 10
567355.4814
 20
5938035.1911
 10
567355.5154
 20
5938035.2233
 10
567355.5236
 20
5938035.2694
 10
567355.4501
 20
5938035.5139
  0
LWPOLYLINE
  5
201B0
  8
0
100
AcDbEntity
100
AcDbPolyline
 70
0
 90
57
 10
567328.0736
 20
5937986.2433
 10
567328.2053
 20
5937986.3367
 10
567328.424
 20
5937986.5075
 10
567328.626
 20
5937986.6978
 10
567328.6462
 20
5937986.7615
 10
567328.6076
 20
5937986.816
 10
567328.5408
 20
5937986.818
 10
567328.2944
 20
5937986.6904
 10
567328.0608
 20
5937986.5406
 10
567327.7473
 20
5937986.3183
 10
567327.5895
 20
5937986.1675
 10
567327.4818
 20
5937985.9776
 10
567327.4317
 20
5937985.8483
 10
567327.3004
 20
5937985.5879
 10
567327.1211
 20
5937985.3578
 10
567326.9007
 20
5937985.1668
 10
567326.2184
 20
5937984.6831
 10
567325.9417
 20
5937984.5088
 10
567325.6477
 20
5937984.3657
 10
567325.3398
 20
5937984.2554
 10
567325.2328
 20
5937984.2577
 10
567325.1472
 20
5937984.3219
 10
567325.1149
 20
5937984.4239
 10
567325.1482
 20
5937984.5257
 10
567325.3542
 20
5937984.7797
 10
567325.5866
 20
5937985.0098
 10
567325.8427
 20
5937985.2132
 10
567326.1825
 20
5937985.4541
 10
567326.2981
 20
5937985.291
 10
567326.1664
 20
5937985.1976
 10
567325.9477
 20
5937985.0268
 10
567325.7457
 20
5937984.8365
 10
567325.7255
 20
5937984.7728
 10
567325.7641
 20
5937984.7183
 10
567325.8309
 20
5937984.7163
 10
567326.0774
 20
5937984.8439
 10
567326.3109
 20
5937984.9938
 10
567326.6244
 20
5937985.216
 10
567326.7822
 20
5937985.3668
 10
567326.8899
 20
5937985.5567
 10
567326.94
 20
5937985.6861
 10
567327.0714
 20
5937985.9465
 10
567327.2506
 20
5937986.1765
 10
567327.471
 20
5937986.3675
 10
567328.1533
 20
5937986.8512
 10
567328.43
 20
5937987.0255
 10
567328.724
 20
5937987.1686
 10
567329.0319
 20
5937987.2789
 10
567329.1389
 20
5937987.2766
 10
567329.2245
 20
5937987.2124
 10
567329.2568
 20
5937987.1104
 10
567329.2235
 20
5937987.0086
 10
567329.0175
 20
5937986.7546
 10
567328.7851
 20
5937986.5245
 10
567328.529
 20
5937986.3211
 10
567328.1892
 20
5937986.0802
 10
567328.0736
 20
5937986.2433
  0
LWPOLYLINE
  5
201B1
  8
0
100
AcDbEntity
100
AcDbPolyline
 70
0
 90
2
 10
567344.5595
 20
5938011.6885
 10
567344.3368
 20
5938011.1808
  0
LWPOLYLINE
  5
201B2
  8
0
100
AcDbEntity
100
AcDbPolyline
 70
0
 90
3
 10
567377.2964
 20
5938010.5682
 10
567399.751
 20
5938028.7073
 10
567405.1249
 20
5938033.1045
  0
LWPOLYLINE
  5
201B3
  8
0
100
AcDbEntity
100
AcDbPolyline
 70
0
 90
9
 10
567334.9279
 20
5938030.451
 10
567334.8667
 20
5938030.4257
 10
567334.8414
 20
5938030.3645
 10
567334.8667
 20
5938030.3034
 10
567334.9279
 20
5938030.278
 10
567334.989
 20
5938030.3034
 10
567335.0144
 20
5938030.3645
 10
567334.989
 20
5938030.4257
 10
567334.9279
 20
5938030.451
  0
LWPOLYLINE
  5
201B4
  8
0
100
AcDbEntity
100
AcDbPolyline
 70
0
 90
5
 10
567362.8518
 20
5938021.239
 10
567363.236
 20
5938021.5587
 10
567363.3958
 20
5938021.3667
 10
567363.0117
 20
5938021.0469
 10
567362.8518
 20
5938021.239
  0
LWPOLYLINE
  5
201B5
  8
0
100
AcDbEntity
100
AcDbPolyline
 70
0
 90
2
 10
567378.1316
 20
5937969.4455
 10
567378.6047
 20
5937968.2019
  0
LWPOLYLINE
  5
201B6
  8
0
100
AcDbEntity
100
AcDbPolyline
 70
0
 90
5
 10
567375.9867
 20
5938011.2537
 10
567376.0961
 20
5938011.3027
 10
567376.3003
 20
5938010.8465
 10
567376.1908
 20
5938010.7975
 10
567375.9867
 20
5938011.2537
  0
LWPOLYLINE
  5
201B7
  8
0
100
AcDbEntity
100
AcDbPolyline
 70
0
 90
5
 10
567368.6883
 20
5937986.6244
 10
567368.6436
 20
5937986.7357
 10
567368.1798
 20
5937986.5494
 10
567368.2245
 20
5937986.4381
 10
567368.6883
 20
5937986.6244
  0
LWPOLYLINE
  5
201B8
  8
0
100
AcDbEntity
100
AcDbPolyline
 70
0
 90
5
 10
567359.4958
 20
5937989.3716
 10
567359.958
 20
5937989.5617
 10
567360.053
 20
5937989.3306
 10
567359.5908
 20
5937989.1405
 10
567359.4958
 20
5937989.3716
  0
LWPOLYLINE
  5
201B9
  8
0
100
AcDbEntity
100
AcDbPolyline
 70
0
 90
23
 10
567369.0759
 20
5937979.8618
 10
567369.4443
 20
5937978.879
 10
567369.5185
 20
5937978.892
 10
567369.6174
 20
5937978.8701
 10
567369.7261
 20
5937978.7861
 10
567369.8036
 20
5937978.6985
 10
567369.9025
 20
5937978.5584
 10
567370.0054
 20
5937978.3724
 10
567370.1069
 20
5937978.1132
 10
567371.2178
 20
5937975.3271
 10
567371.1008
 20
5937975.2832
 10
567370.9838
 20
5937975.2394
 10
567370.4869
 20
5937976.6544
 10
567369.9899
 20
5937978.0694
 10
567369.9345
 20
5937978.1815
 10
567369.8769
 20
5937978.2687
 10
567369.8088
 20
5937978.3476
 10
567369.7327
 20
5937978.4052
 10
567369.6569
 20
5937978.4199
 10
567369.6197
 20
5937978.411
 10
567369.9178
 20
5937977.6153
 10
567369.2687
 20
5937978.4929
 10
567369.0759
 20
5937979.8618
  0
LWPOLYLINE
  5
201BA
  8
0
100
AcDbEntity
100
AcDbPolyline
 70
0
 90
20
 10
567354.6263
 20
5938039.5149
 10
567356.3229
 20
5938035.9362
 10
567356.489
 20
5938035.5019
 10
567356.5858
 20
5938035.0472
 10
567356.5661
 20
5938034.9405
 10
567356.4874
 20
5938034.866
 10
567356.3798
 20
5938034.8522
 10
567356.2848
 20
5938034.9044
 10
567355.9941
 20
5938035.2673
 10
567355.7629
 20
5938035.6707
 10
567354.0663
 20
5938039.2494
 10
567354.247
 20
5938039.335
 10
567355.9468
 20
5938035.7495
 10
567356.0897
 20
5938035.5378
 10
567356.1463
 20
5938035.5136
 10
567356.2019
 20
5938035.54
 10
567356.219
 20
5938035.5991
 10
567356.1455
 20
5938035.8437
 10
567354.4457
 20
5938039.4292
 10
567354.6263
 20
5938039.5149
  0
LWPOLYLINE
  5
201BB
  8
0
100
AcDbEntity
100
AcDbPolyline
 70
0
 90
11
 10
567381.4272
 20
5937978.1192
 10
567381.3096
 20
5937978.081
 10
567381.237
 20
5937977.9811
 10
567381.237
 20
5937977.8575
 10
567381.3096
 20
5937977.7576
 10
567381.4271
 20
5937977.7194
 10
567381.5446
 20
5937977.7576
 10
567381.6173
 20
5937977.8575
 10
567381.6173
 20
5937977.9811
 10
567381.5447
 20
5937978.081
 10
567381.4272
 20
5937978.1192
  0
LWPOLYLINE
  5
201BC
  8
0
100
AcDbEntity
100
AcDbPolyline
 70
0
 90
2
 10
567376.4325
 20
5937988.1572
 10
567374.5764
 20
5937987.4139
  0
LWPOLYLINE
  5
201BD
  8
0
100
AcDbEntity
100
AcDbPolyline
 70
0
 90
5
 10
567341.1074
 20
5937988.3074
 10
567342.9506
 20
5937985.5597
 10
567342.5356
 20
5937985.2812
 10
567340.6924
 20
5937988.0289
 10
567341.1074
 20
5937988.3074
  0
LWPOLYLINE
  5
201BE
  8
0
100
AcDbEntity
100
AcDbPolyline
 70
0
 90
5
 10
567360.0717
 20
5938008.2157
 10
567359.8402
 20
5938008.1216
 10
567360.4048
 20
5938006.7326
 10
567360.6363
 20
5938006.8267
 10
567360.0717
 20
5938008.2157
  0
LWPOLYLINE
  5
201BF
  8
0
100
AcDbEntity
100
AcDbPolyline
 70
0
 90
5
 10
567368.3816
 20
5938012.4597
 10
567368.5842
 20
5938012.0028
 10
567368.3557
 20
5938011.9015
 10
567368.1531
 20
5938012.3583
 10
567368.3816
 20
5938012.4597
  0
LWPOLYLINE
  5
201C0
  8
0
100
AcDbEntity
100
AcDbPolyline
 70
0
 90
5
 10
567369.9869
 20
5937987.146
 10
567369.9422
 20
5937987.2573
 10
567369.4784
 20
5937987.071
 10
567369.5231
 20
5937986.9597
 10
567369.9869
 20
5937987.146
  0
LWPOLYLINE
  5
201C1
  8
0
100
AcDbEntity
100
AcDbPolyline
 70
0
 90
2
 10
567373.7896
 20
5937992.1652
 10
567369.9642
 20
5937991.0291
  0
LWPOLYLINE
  5
201C2
  8
0
100
AcDbEntity
100
AcDbPolyline
 70
0
 90
2
 10
567332.3007
 20
5937992.8356
 10
567329.8596
 20
5937991.1623
  0
LWPOLYLINE
  5
201C3
  8
0
100
AcDbEntity
100
AcDbPolyline
 70
0
 90
5
 10
567313.8433
 20
5937980.673
 10
567317.683
 20
5937983.1021
 10
567318.7956
 20
5937981.4868
 10
567314.7646
 20
5937978.6572
 10
567313.8433
 20
5937980.1136
  0
LWPOLYLINE
  5
201C4
  8
0
100
AcDbEntity
100
AcDbPolyline
 70
0
 90
5
 10
567365.5252
 20
5937994.2468
 10
567365.2922
 20
5937994.1565
 10
567365.8341
 20
5937992.7584
 10
567366.0671
 20
5937992.8487
 10
567365.5252
 20
5937994.2468
  0
LWPOLYLINE
  5
201C5
  8
0
100
AcDbEntity
100
AcDbPolyline
 70
0
 90
5
 10
567363.3896
 20
5938021.6866
 10
567363.7737
 20
5938022.0064
 10
567363.9336
 20
5938021.8143
 10
567363.5495
 20
5938021.4945
 10
567363.3896
 20
5938021.6866
  0
LWPOLYLINE
  5
201C6
  8
0
100
AcDbEntity
100
AcDbPolyline
 70
0
 90
5
 10
567356.3159
 20
5937985.7902
 10
567355.8536
 20
5937985.6002
 10
567355.7586
 20
5937985.8313
 10
567356.2209
 20
5937986.0214
 10
567356.3159
 20
5937985.7902
  0
LWPOLYLINE
  5
201C7
  8
0
100
AcDbEntity
100
AcDbPolyline
 70
0
 90
5
 10
567339.3726
 20
5938019.6344
 10
567339.3894
 20
5938019.6753
 10
567339.3486
 20
5938019.6921
 10
567339.3317
 20
5938019.6513
 10
567339.3726
 20
5938019.6344
  0
LWPOLYLINE
  5
201C8
  8
0
100
AcDbEntity
100
AcDbPolyline
 70
0
 90
13
 10
567362.1082
 20
5937991.5657
 10
567361.9832
 20
5937991.5323
 10
567361.8917
 20
5937991.4408
 10
567361.8583
 20
5937991.3158
 10
567361.8917
 20
5937991.1909
 10
567361.9832
 20
5937991.0994
 10
567362.1081
 20
5937991.0659
 10
567362.2331
 20
5937991.0994
 10
567362.3245
 20
5937991.1909
 10
567362.358
 20
5937991.3158
 10
567362.3246
 20
5937991.4408
 10
567362.2331
 20
5937991.5323
 10
567362.1082
 20
5937991.5657
  0
LWPOLYLINE
  5
201C9
  8
0
100
AcDbEntity
100
AcDbPolyline
 70
0
 90
2
 10
567362.3277
 20
5937988.9105
 10
567363.9704
 20
5937988.3093
  0
LWPOLYLINE
  5
201CA
  8
0
100
AcDbEntity
100
AcDbPolyline
 70
0
 90
2
 10
567363.3098
 20
5938023.6646
 10
567366.2213
 20
5938017.4873
  0
LWPOLYLINE
  5
201CB
  8
0
100
AcDbEntity
100
AcDbPolyline
 70
0
 90
2
 10
567379.9079
 20
5937981.393
 10
567380.6257
 20
5937979.5236
  0
LWPOLYLINE
  5
201CC
  8
0
100
AcDbEntity
100
AcDbPolyline
 70
0
 90
4
 10
567354.667
 20
5938016.9022
 10
567354.2018
 20
5938018.8823
 10
567353.5161
 20
5938018.5792
 10
567354.667
 20
5938016.9022
  0
LWPOLYLINE
  5
201CD
  8
0
100
AcDbEntity
100
AcDbPolyline
 70
0
 90
5
 10
567363.2809
 20
5938016.8122
 10
567363.8574
 20
5938015.4281
 10
567363.6267
 20
5938015.332
 10
567363.0503
 20
5938016.7162
 10
567363.2809
 20
5938016.8122
  0
LWPOLYLINE
  5
201CE
  8
0
100
AcDbEntity
100
AcDbPolyline
 70
0
 90
5
 10
567368.8356
 20
5937976.1563
 10
567368.6869
 20
5937972.7199
 10
567368.9139
 20
5937972.187
 10
567369.0602
 20
5937975.5659
 10
567368.8356
 20
5937976.1563
  0
LWPOLYLINE
  5
201CF
  8
0
100
AcDbEntity
100
AcDbPolyline
 70
0
 90
5
 10
567376.7597
 20
5938018.7659
 10
567377.0173
 20
5938018.8841
 10
567378.5199
 20
5938015.6065
 10
567378.0655
 20
5938015.3982
 10
567376.5829
 20
5938018.6324
  0
LWPOLYLINE
  5
201D0
  8
0
100
AcDbEntity
100
AcDbPolyline
 70
0
 90
5
 10
567354.3992
 20
5937989.8967
 10
567354.1681
 20
5937989.8016
 10
567354.7386
 20
5937988.415
 10
567354.9697
 20
5937988.5101
 10
567354.3992
 20
5937989.8967
  0
LWPOLYLINE
  5
201D1
  8
0
100
AcDbEntity
100
AcDbPolyline
 70
0
 90
2
 10
567354.7359
 20
5937980.9367
 10
567355.4747
 20
5937981.2428
  0
LWPOLYLINE
  5
201D2
  8
0
100
AcDbEntity
100
AcDbPolyline
 70
0
 90
2
 10
567348.1646
 20
5938012.3089
 10
567344.5075
 20
5938010.7121
  0
LWPOLYLINE
  5
201D3
  8
0
100
AcDbEntity
100
AcDbPolyline
 70
0
 90
9
 10
567379.0218
 20
5937983.7553
 10
567378.9606
 20
5937983.7299
 10
567378.9353
 20
5937983.6688
 10
567378.9606
 20
5937983.6076
 10
567379.0218
 20
5937983.5823
 10
567379.0829
 20
5937983.6076
 10
567379.1083
 20
5937983.6688
 10
567379.083
 20
5937983.7299
 10
567379.0218
 20
5937983.7553
  0
LWPOLYLINE
  5
201D4
  8
0
100
AcDbEntity
100
AcDbPolyline
 70
0
 90
2
 10
567365.1778
 20
5937980.4961
 10
567370.4155
 20
5937968.2019
  0
LWPOLYLINE
  5
201D5
  8
0
100
AcDbEntity
100
AcDbPolyline
 70
0
 90
5
 10
567367.8143
 20
5938013.7389
 10
567368.0169
 20
5938013.2821
 10
567367.7885
 20
5938013.1808
 10
567367.5859
 20
5938013.6376
 10
567367.8143
 20
5938013.7389
  0
LWPOLYLINE
  5
201D6
  8
0
100
AcDbEntity
100
AcDbPolyline
 70
0
 90
5
 10
567357.5543
 20
5937988.5733
 10
567358.0166
 20
5937988.7634
 10
567358.1116
 20
5937988.5323
 10
567357.6494
 20
5937988.3422
 10
567357.5543
 20
5937988.5733
  0
LWPOLYLINE
  5
201D7
  8
0
100
AcDbEntity
100
AcDbPolyline
 70
0
 90
5
 10
567339.9425
 20
5938018.2308
 10
567339.9602
 20
5938018.2712
 10
567339.9198
 20
5938018.289
 10
567339.902
 20
5938018.2485
 10
567339.9425
 20
5938018.2308
  0
LWPOLYLINE
  5
201D8
  8
0
100
AcDbEntity
100
AcDbPolyline
 70
0
 90
2
 10
567368.2458
 20
5938018.6741
 10
567368.3811
 20
5938017.886
  0
LWPOLYLINE
  5
201D9
  8
0
100
AcDbEntity
100
AcDbPolyline
 70
0
 90
2
 10
567361.6498
 20
5937991.4645
 10
567362.3886
 20
5937991.7706
  0
LWPOLYLINE
  5
201DA
  8
0
100
AcDbEntity
100
AcDbPolyline
 70
0
 90
2
 10
567354.5489
 20
5938016.6397
 10
567354.667
 20
5938016.9022
  0
LWPOLYLINE
  5
201DB
  8
0
100
AcDbEntity
100
AcDbPolyline
 70
0
 90
4
 10
567350.7251
 20
5937987.5398
 10
567350.8112
 20
5937987.3453
 10
567353.1582
 20
5937981.3768
 10
567353.2811
 20
5937981.0692
  0
LWPOLYLINE
  5
201DC
  8
0
100
AcDbEntity
100
AcDbPolyline
 70
0
 90
9
 10
567333.3613
 20
5938034.5347
 10
567333.3001
 20
5938034.5094
 10
567333.2748
 20
5938034.4482
 10
567333.3001
 20
5938034.3871
 10
567333.3612
 20
5938034.3617
 10
567333.4224
 20
5938034.3871
 10
567333.4477
 20
5938034.4482
 10
567333.4224
 20
5938034.5094
 10
567333.3613
 20
5938034.5347
  0
LWPOLYLINE
  5
201DD
  8
0
100
AcDbEntity
100
AcDbPolyline
 70
0
 90
3
 10
567376.4325
 20
5937988.1572
 10
567381.0162
 20
5937976.2464
 10
567381.8862
 20
5937973.987
  0
LWPOLYLINE
  5
201DE
  8
0
100
AcDbEntity
100
AcDbPolyline
 70
0
 90
5
 10
567351.1638
 20
5938013.931
 10
567351.548
 20
5938014.2507
 10
567351.7078
 20
5938014.0586
 10
567351.3236
 20
5938013.7389
 10
567351.1638
 20
5938013.931
  0
LWPOLYLINE
  5
201DF
  8
0
100
AcDbEntity
100
AcDbPolyline
 70
0
 90
58
 10
567379.1928
 20
5938024.2187
 10
567379.1607
 20
5938024.1987
 10
567379.1258
 20
5938024.1762
 10
567379.0351
 20
5938024.1159
 10
567379.0082
 20
5938024.0976
 10
567378.9005
 20
5938024.0228
 10
567378.8808
 20
5938024.0088
 10
567378.7547
 20
5938023.918
 10
567378.7434
 20
5938023.9098
 10
567378.5946
 20
5938023.8005
 10
567378.434
 20
5938023.6815
 10
567378.2614
 20
5938023.5533
 10
567378.0783
 20
5938023.4177
 10
567377.8866
 20
5938023.2767
 10
567377.6876
 20
5938023.1321
 10
567377.483
 20
5938022.9857
 10
567377.2744
 20
5938022.8393
 10
567377.0609
 20
5938022.6932
 10
567376.8409
 20
5938022.5471
 10
567376.6124
 20
5938022.4005
 10
567376.3736
 20
5938022.2531
 10
567376.1224
 20
5938022.1045
 10
567375.857
 20
5938021.9542
 10
567375.5752
 20
5938021.802
 10
567375.2748
 20
5938021.6472
 10
567374.9592
 20
5938021.4913
 10
567374.6347
 20
5938021.3371
 10
567374.3079
 20
5938021.1875
 10
567373.9853
 20
5938021.0453
 10
567373.6735
 20
5938020.913
 10
567373.3795
 20
5938020.7935
 10
567373.1106
 20
5938020.6895
 10
567372.8719
 20
5938020.603
 10
567372.661
 20
5938020.5323
 10
567372.4729
 20
5938020.475
 10
567372.3017
 20
5938020.4286
 10
567372.1408
 20
5938020.3904
 10
567371.9827
 20
5938020.358
 10
567371.8201
 20
5938020.3294
 10
567371.647
 20
5938020.3031
 10
567371.4632
 20
5938020.2784
 10
567371.2729
 20
5938020.2562
 10
567371.0781
 20
5938020.2369
 10
567370.8801
 20
5938020.221
 10
567370.6801
 20
5938020.2089
 10
567370.4791
 20
5938020.2009
 10
567370.2785
 20
5938020.1973
 10
567370.0791
 20
5938020.1984
 10
567369.8799
 20
5938020.2044
 10
567369.6812
 20
5938020.2151
 10
567369.4852
 20
5938020.2302
 10
567369.2947
 20
5938020.249
 10
567369.1124
 20
5938020.2712
 10
567368.9414
 20
5938020.296
 10
567368.7849
 20
5938020.3225
 10
567368.6459
 20
5938020.35
 10
567368.5232
 20
5938020.378
 10
567366.4588
 20
5938020.9124
  0
LWPOLYLINE
  5
201E0
  8
0
100
AcDbEntity
100
AcDbPolyline
 70
0
 90
5
 10
567369.2947
 20
5937993.3546
 10
567369.7585
 20
5937993.5409
 10
567369.8516
 20
5937993.309
 10
567369.3879
 20
5937993.1227
 10
567369.2947
 20
5937993.3546
  0
LWPOLYLINE
  5
201E1
  8
0
100
AcDbEntity
100
AcDbPolyline
 70
0
 90
5
 10
567367.3669
 20
5937990.511
 10
567367.8306
 20
5937990.6973
 10
567367.9238
 20
5937990.4654
 10
567367.46
 20
5937990.2791
 10
567367.3669
 20
5937990.511
  0
LWPOLYLINE
  5
201E2
  8
0
100
AcDbEntity
100
AcDbPolyline
 70
0
 90
5
 10
567368.039
 20
5937986.3636
 10
567367.9943
 20
5937986.4749
 10
567367.5305
 20
5937986.2886
 10
567367.5752
 20
5937986.1773
 10
567368.039
 20
5937986.3636
  0
LWPOLYLINE
  5
201E3
  8
0
100
AcDbEntity
100
AcDbPolyline
 70
0
 90
2
 10
567343.2732
 20
5938025.2321
 10
567342.1871
 20
5938028.0273
  0
LWPOLYLINE
  5
201E4
  8
0
100
AcDbEntity
100
AcDbPolyline
 70
0
 90
2
 10
567366.4778
 20
5937981.1027
 10
567365.7454
 20
5937980.7817
  0
LWPOLYLINE
  5
201E5
  8
0
100
AcDbEntity
100
AcDbPolyline
 70
0
 90
2
 10
567353.7968
 20
5938016.9892
 10
567355.5373
 20
5938016.8151
  0
LWPOLYLINE
  5
201E6
  8
0
100
AcDbEntity
100
AcDbPolyline
 70
0
 90
3
 10
567349.904
 20
5937987.2842
 10
567346.6208
 20
5937992.2937
 10
567350.3096
 20
5937987.5749
  0
LWPOLYLINE
  5
201E7
  8
0
100
AcDbEntity
100
AcDbPolyline
 70
0
 90
23
 10
567363.149
 20
5937989.4846
 10
567362.9026
 20
5937989.4492
 10
567362.6762
 20
5937989.3457
 10
567362.488
 20
5937989.1827
 10
567362.3534
 20
5937988.9733
 10
567362.2833
 20
5937988.7344
 10
567362.2833
 20
5937988.4855
 10
567362.3534
 20
5937988.2466
 10
567362.488
 20
5937988.0372
 10
567362.6761
 20
5937987.8741
 10
567362.9026
 20
5937987.7707
 10
567363.149
 20
5937987.7353
 10
567363.3954
 20
5937987.7707
 10
567363.6218
 20
5937987.8741
 10
567363.81
 20
5937988.0371
 10
567363.9446
 20
5937988.2466
 10
567364.0147
 20
5937988.4854
 10
567364.0148
 20
5937988.7344
 10
567363.9446
 20
5937988.9733
 10
567363.81
 20
5937989.1827
 10
567363.6219
 20
5937989.3457
 10
567363.3955
 20
5937989.4492
 10
567363.149
 20
5937989.4846
  0
LWPOLYLINE
  5
201E8
  8
0
100
AcDbEntity
100
AcDbPolyline
 70
0
 90
2
 10
567355.7274
 20
5938016.9024
 10
567356.1103
 20
5938015.9855
  0
LWPOLYLINE
  5
201E9
  8
0
100
AcDbEntity
100
AcDbPolyline
 70
0
 90
5
 10
567350.6489
 20
5938018.1942
 10
567350.5722
 20
5938018.2864
 10
567350.188
 20
5938017.9667
 10
567350.2647
 20
5938017.8745
 10
567350.6489
 20
5938018.1942
  0
LWPOLYLINE
  5
201EA
  8
0
100
AcDbEntity
100
AcDbPolyline
 70
0
 90
5
 10
567348.549
 20
5938009.4358
 10
567348.9332
 20
5938009.7556
 10
567349.0931
 20
5938009.5635
 10
567348.7089
 20
5938009.2438
 10
567348.549
 20
5938009.4358
  0
LWPOLYLINE
  5
201EB
  8
0
100
AcDbEntity
100
AcDbPolyline
 70
0
 90
5
 10
567364.4338
 20
5938014.0439
 10
567365.0102
 20
5938012.6598
 10
567364.7796
 20
5938012.5637
 10
567364.2031
 20
5938013.9478
 10
567364.4338
 20
5938014.0439
  0
LWPOLYLINE
  5
201EC
  8
0
100
AcDbEntity
100
AcDbPolyline
 70
0
 90
5
 10
567373.9861
 20
5938015.7245
 10
567374.0956
 20
5938015.7735
 10
567374.2997
 20
5938015.3173
 10
567374.1902
 20
5938015.2683
 10
567373.9861
 20
5938015.7245
  0
LWPOLYLINE
  5
201ED
  8
0
100
AcDbEntity
100
AcDbPolyline
 70
0
 90
2
 10
567352.1457
 20
5938025.5447
 10
567345.4059
 20
5938039.9741
  0
LWPOLYLINE
  5
201EE
  8
0
100
AcDbEntity
100
AcDbPolyline
 70
0
 90
5
 10
567348.6618
 20
5938003.75
 10
567348.4311
 20
5938003.6541
 10
567349.0064
 20
5938002.2695
 10
567349.2372
 20
5938002.3653
 10
567348.6618
 20
5938003.75
  0
LWPOLYLINE
  5
201EF
  8
0
100
AcDbEntity
100
AcDbPolyline
 70
0
 90
5
 10
567360.79
 20
5937989.9038
 10
567361.2523
 20
5937990.0939
 10
567361.3473
 20
5937989.8628
 10
567360.8851
 20
5937989.6727
 10
567360.79
 20
5937989.9038
  0
LWPOLYLINE
  5
201F0
  8
0
100
AcDbEntity
100
AcDbPolyline
 70
0
 90
2
 10
567362.9042
 20
5937999.0416
 10
567361.8202
 20
5938000.1968
  0
LWPOLYLINE
  5
201F1
  8
0
100
AcDbEntity
100
AcDbPolyline
 70
0
 90
2
 10
567350.9761
 20
5938024.8306
 10
567351.7075
 20
5938025.154
  0
LWPOLYLINE
  5
201F2
  8
0
100
AcDbEntity
100
AcDbPolyline
 70
0
 90
6
 10
567357.5325
 20
5937982.2709
 10
567354.6743
 20
5937981.0622
 10
567353.9241
 20
5937982.9349
 10
567353.8336
 20
5937983.2216
 10
567353.7871
 20
5937983.5186
 10
567353.7857
 20
5937983.8193
  0
LWPOLYLINE
  5
201F3
  8
0
100
AcDbEntity
100
AcDbPolyline
 70
0
 90
4
 10
567342.5726
 20
5937997.3364
 10
567343.1026
 20
5937997.7169
 10
567343.6066
 20
5937998.1312
 10
567344.0825
 20
5937998.5774
  0
LWPOLYLINE
  5
201F4
  8
0
100
AcDbEntity
100
AcDbPolyline
 70
0
 90
5
 10
567365.5944
 20
5938021.6309
 10
567365.7631
 20
5938021.4002
 10
567365.9672
 20
5938021.2002
 10
567366.2012
 20
5938021.0361
 10
567366.4588
 20
5938020.9124
  0
LWPOLYLINE
  5
201F5
  8
0
100
AcDbEntity
100
AcDbPolyline
 70
0
 90
5
 10
567386.339
 20
5938025.8952
 10
567384.9329
 20
5938025.0486
 10
567383.567
 20
5938024.1386
 10
567382.2442
 20
5938023.1671
 10
567380.9672
 20
5938022.136
  0
LWPOLYLINE
  5
201F6
  8
0
100
AcDbEntity
100
AcDbPolyline
 70
0
 90
5
 10
567356.9363
 20
5938016.3145
 10
567357.3204
 20
5938016.6343
 10
567357.4803
 20
5938016.4422
 10
567357.0962
 20
5938016.1225
 10
567356.9363
 20
5938016.3145
  0
LWPOLYLINE
  5
201F7
  8
0
100
AcDbEntity
100
AcDbPolyline
 70
0
 90
5
 10
567362.314
 20
5938020.7913
 10
567362.6982
 20
5938021.111
 10
567362.858
 20
5938020.919
 10
567362.4739
 20
5938020.5992
 10
567362.314
 20
5938020.7913
  0
LWPOLYLINE
  5
201F8
  8
0
100
AcDbEntity
100
AcDbPolyline
 70
0
 90
5
 10
567375.7009
 20
5938011.8924
 10
567375.8103
 20
5938011.9414
 10
567376.0145
 20
5938011.4852
 10
567375.905
 20
5938011.4361
 10
567375.7009
 20
5938011.8924
  0
LWPOLYLINE
  5
201F9
  8
0
100
AcDbEntity
100
AcDbPolyline
 70
0
 90
5
 10
567346.3232
 20
5938009.9027
 10
567346.7073
 20
5938010.2224
 10
567346.8672
 20
5938010.0303
 10
567346.483
 20
5938009.7106
 10
567346.3232
 20
5938009.9027
  0
LWPOLYLINE
  5
201FA
  8
0
100
AcDbEntity
100
AcDbPolyline
 70
0
 90
2
 10
567349.8767
 20
5937987.3419
 10
567347.9345
 20
5937986.8679
  0
LWPOLYLINE
  5
201FB
  8
0
100
AcDbEntity
100
AcDbPolyline
 70
0
 90
9
 10
567374.9415
 20
5937987.3098
 10
567374.8804
 20
5937987.2845
 10
567374.855
 20
5937987.2233
 10
567374.8804
 20
5937987.1622
 10
567374.9415
 20
5937987.1368
 10
567375.0027
 20
5937987.1622
 10
567375.028
 20
5937987.2233
 10
567375.0027
 20
5937987.2845
 10
567374.9415
 20
5937987.3098
  0
LWPOLYLINE
  5
201FC
  8
0
100
AcDbEntity
100
AcDbPolyline
 70
0
 90
4
 10
567373.7765
 20
5938007.6476
 10
567373.0621
 20
5938007.4205
 10
567374.025
 20
5938005.6288
 10
567373.7765
 20
5938007.6476
  0
LWPOLYLINE
  5
201FD
  8
0
100
AcDbEntity
100
AcDbPolyline
 70
0
 90
9
 10
567379.9079
 20
5937981.4795
 10
567379.8467
 20
5937981.4541
 10
567379.8214
 20
5937981.393
 10
567379.8467
 20
5937981.3318
 10
567379.9079
 20
5937981.3065
 10
567379.969
 20
5937981.3318
 10
567379.9944
 20
5937981.393
 10
567379.969
 20
5937981.4541
 10
567379.9079
 20
5937981.4795
  0
LWPOLYLINE
  5
201FE
  8
0
100
AcDbEntity
100
AcDbPolyline
 70
0
 90
4
 10
567346.6222
 20
5937992.2935
 10
567344.7612
 20
5937991.4725
 10
567345.185
 20
5937990.8541
 10
567346.6222
 20
5937992.2935
  0
LWPOLYLINE
  5
201FF
  8
0
100
AcDbEntity
100
AcDbPolyline
 70
0
 90
5
 10
567375.4151
 20
5938012.531
 10
567375.5245
 20
5938012.5801
 10
567375.7287
 20
5938012.1238
 10
567375.6192
 20
5938012.0749
 10
567375.4151
 20
5938012.531
  0
LWPOLYLINE
  5
20200
  8
0
100
AcDbEntity
100
AcDbPolyline
 70
0
 90
5
 10
567370.4331
 20
5938011.3153
 10
567370.2207
 20
5938011.7677
 10
567370.4469
 20
5938011.874
 10
567370.6593
 20
5938011.4216
 10
567370.4331
 20
5938011.3153
  0
LWPOLYLINE
  5
20201
  8
0
100
AcDbEntity
100
AcDbPolyline
 70
0
 90
2
 10
567371.7356
 20
5937986.263
 10
567372.8015
 20
5937983.4601
  0
LWPOLYLINE
  5
20202
  8
0
100
AcDbEntity
100
AcDbPolyline
 70
0
 90
5
 10
567360.1595
 20
5937983.24
 10
567360.117
 20
5937983.3522
 10
567359.6496
 20
5937983.175
 10
567359.6921
 20
5937983.0628
 10
567360.1595
 20
5937983.24
  0
LWPOLYLINE
  5
20203
  8
0
100
AcDbEntity
100
AcDbPolyline
 70
0
 90
13
 10
567355.1942
 20
5937981.0379
 10
567355.0693
 20
5937981.0044
 10
567354.9778
 20
5937980.913
 10
567354.9443
 20
5937980.788
 10
567354.9778
 20
5937980.6631
 10
567355.0693
 20
5937980.5716
 10
567355.1942
 20
5937980.5381
 10
567355.3191
 20
5937980.5716
 10
567355.4106
 20
5937980.6631
 10
567355.4441
 20
5937980.788
 10
567355.4106
 20
5937980.913
 10
567355.3192
 20
5937981.0044
 10
567355.1942
 20
5937981.0379
  0
LWPOLYLINE
  5
20204
  8
0
100
AcDbEntity
100
AcDbPolyline
 70
0
 90
13
 10
567351.4377
 20
5938024.9427
 10
567351.3128
 20
5938024.9092
 10
567351.2213
 20
5938024.8177
 10
567351.1878
 20
5938024.6928
 10
567351.2213
 20
5938024.5678
 10
567351.3128
 20
5938024.4764
 10
567351.4377
 20
5938024.4429
 10
567351.5627
 20
5938024.4764
 10
567351.6541
 20
5938024.5678
 10
567351.6876
 20
5938024.6928
 10
567351.6542
 20
5938024.8177
 10
567351.5627
 20
5938024.9092
 10
567351.4377
 20
5938024.9427
  0
LWPOLYLINE
  5
20205
  8
0
100
AcDbEntity
100
AcDbPolyline
 70
0
 90
9
 10
567346.0075
 20
5938001.2856
 10
567346.353
 20
5938002.0863
 10
567346.6274
 20
5938002.9142
 10
567346.8286
 20
5938003.7628
 10
567346.9551
 20
5938004.6257
 10
567347.0059
 20
5938005.4963
 10
567346.9806
 20
5938006.3681
 10
567346.8794
 20
5938007.2343
 10
567346.7031
 20
5938008.0884
  0
LWPOLYLINE
  5
20206
  8
0
100
AcDbEntity
100
AcDbPolyline
 70
0
 90
5
 10
567343.711
 20
5937993.5334
 10
567343.914
 20
5937993.0767
 10
567343.8044
 20
5937993.028
 10
567343.6014
 20
5937993.4847
 10
567343.711
 20
5937993.5334
  0
LWPOLYLINE
  5
20207
  8
0
100
AcDbEntity
100
AcDbPolyline
 70
0
 90
5
 10
567352.2395
 20
5938014.8262
 10
567352.6237
 20
5938015.1459
 10
567352.7835
 20
5938014.9538
 10
567352.3993
 20
5938014.6341
 10
567352.2395
 20
5938014.8262
  0
LWPOLYLINE
  5
20208
  8
0
100
AcDbEntity
100
AcDbPolyline
 70
0
 90
2
 10
567353.3331
 20
5938000.4507
 10
567354.4834
 20
5937997.6813
  0
LWPOLYLINE
  5
20209
  8
0
100
AcDbEntity
100
AcDbPolyline
 70
0
 90
5
 10
567361.4681
 20
5937983.736
 10
567361.4256
 20
5937983.8482
 10
567360.9582
 20
5937983.671
 10
567361.0007
 20
5937983.5589
 10
567361.4681
 20
5937983.736
  0
LWPOLYLINE
  5
2020A
  8
0
100
AcDbEntity
100
AcDbPolyline
 70
0
 90
2
 10
567357.7502
 20
5938002.8699
 10
567356.3805
 20
5938003.13
  0
LWPOLYLINE
  5
2020B
  8
0
100
AcDbEntity
100
AcDbPolyline
 70
0
 90
23
 10
567341.2966
 20
5938024.87
 10
567341.1017
 20
5938025.3748
 10
567341.0919
 20
5938024.5674
 10
567341.6776
 20
5938023.8828
 10
567341.4389
 20
5938024.5014
 10
567341.4736
 20
5938024.5167
 10
567341.5473
 20
5938024.57
 10
567341.6038
 20
5938024.6451
 10
567341.6251
 20
5938024.6989
 10
567341.6647
 20
5938024.7948
 10
567342.0463
 20
5938023.8644
 10
567341.8715
 20
5938023.7969
 10
567342.8245
 20
5938022.0218
 10
567342.3378
 20
5938023.9769
 10
567342.1629
 20
5938023.9094
 10
567341.1413
 20
5938026.7295
 10
567340.9082
 20
5938026.6395
 10
567341.4189
 20
5938025.3942
 10
567341.4503
 20
5938025.168
 10
567341.4496
 20
5938025.0464
 10
567341.4068
 20
5938024.9497
 10
567341.3189
 20
5938024.8796
 10
567341.2966
 20
5938024.87
  0
LWPOLYLINE
  5
2020C
  8
0
100
AcDbEntity
100
AcDbPolyline
 70
0
 90
17
 10
567334.7881
 20
5938037.5292
 10
567335.5888
 20
5938037.8811
 10
567335.7253
 20
5938037.9073
 10
567335.8597
 20
5938037.8717
 10
567335.9653
 20
5938037.7813
 10
567336.0212
 20
5938037.654
 10
567336.0164
 20
5938037.5151
 10
567335.9518
 20
5938037.392
 10
567335.8401
 20
5938037.3092
 10
567335.0394
 20
5938036.9573
 10
567334.9029
 20
5938036.931
 10
567334.7685
 20
5938036.9667
 10
567334.6629
 20
5938037.0571
 10
567334.607
 20
5938037.1843
 10
567334.6118
 20
5938037.3233
 10
567334.6764
 20
5938037.4463
 10
567334.7881
 20
5938037.5292
  0
LWPOLYLINE
  5
2020D
  8
0
100
AcDbEntity
100
AcDbPolyline
 70
0
 90
2
 10
567357.7768
 20
5938039.974
 10
567364.0252
 20
5938024.9973
  0
LWPOLYLINE
  5
2020E
  8
0
100
AcDbEntity
100
AcDbPolyline
 70
0
 90
5
 10
567347.2902
 20
5938035.6248
 10
567347.0516
 20
5938033.3315
 10
567347.2499
 20
5938032.8224
 10
567347.4957
 20
5938035.1849
 10
567347.2902
 20
5938035.6248
  0
LWPOLYLINE
  5
2020F
  8
0
100
AcDbEntity
100
AcDbPolyline
 70
0
 90
5
 10
567359.3439
 20
5938020.6135
 10
567359.728
 20
5938020.9333
 10
567359.8879
 20
5938020.7412
 10
567359.5038
 20
5938020.4215
 10
567359.3439
 20
5938020.6135
  0
LWPOLYLINE
  5
20210
  8
0
100
AcDbEntity
100
AcDbPolyline
 70
0
 90
5
 10
567347.9424
 20
5938011.2468
 10
567348.3266
 20
5938011.5665
 10
567348.4864
 20
5938011.3744
 10
567348.1022
 20
5938011.0547
 10
567347.9424
 20
5938011.2468
  0
LWPOLYLINE
  5
20211
  8
0
100
AcDbEntity
100
AcDbPolyline
 70
0
 90
5
 10
567368.098
 20
5938013.0993
 10
567368.3005
 20
5938012.6424
 10
567368.0721
 20
5938012.5411
 10
567367.8695
 20
5938012.998
 10
567368.098
 20
5938013.0993
  0
LWPOLYLINE
  5
20212
  8
0
100
AcDbEntity
100
AcDbPolyline
 70
0
 90
5
 10
567369.944
 20
5937993.6154
 10
567370.4078
 20
5937993.8017
 10
567370.5009
 20
5937993.5698
 10
567370.0372
 20
5937993.3835
 10
567369.944
 20
5937993.6154
  0
LWPOLYLINE
  5
20213
  8
0
100
AcDbEntity
100
AcDbPolyline
 70
0
 90
2
 10
567374.3887
 20
5937987.9016
 10
567365.8077
 20
5937984.4547
  0
LWPOLYLINE
  5
20214
  8
0
100
AcDbEntity
100
AcDbPolyline
 70
0
 90
5
 10
567362.8587
 20
5937984.2336
 10
567362.8162
 20
5937984.3458
 10
567362.3488
 20
5937984.1686
 10
567362.3913
 20
5937984.0564
 10
567362.8587
 20
5937984.2336
  0
LWPOLYLINE
  5
20215
  8
0
100
AcDbEntity
100
AcDbPolyline
 70
0
 90
5
 10
567355.6129
 20
5937987.775
 10
567356.0751
 20
5937987.9651
 10
567356.1702
 20
5937987.734
 10
567355.7079
 20
5937987.5439
 10
567355.6129
 20
5937987.775
  0
LWPOLYLINE
  5
20216
  8
0
100
AcDbEntity
100
AcDbPolyline
 70
0
 90
2
 10
567363.3837
 20
5937985.0535
 10
567362.2319
 20
5937987.9471
  0
LWPOLYLINE
  5
20217
  8
0
100
AcDbEntity
100
AcDbPolyline
 70
0
 90
2
 10
567359.5594
 20
5938025.5581
 10
567361.3137
 20
5938027.0186
  0
LWPOLYLINE
  5
20218
  8
0
100
AcDbEntity
100
AcDbPolyline
 70
0
 90
4
 10
567397.7633
 20
5938039.9734
 10
567390.794
 20
5938034.3432
 10
567385.1302
 20
5938029.837
 10
567388.8695
 20
5938027.382
  0
LWPOLYLINE
  5
20219
  8
0
100
AcDbEntity
100
AcDbPolyline
 70
0
 90
9
 10
567385.0026
 20
5937968.6813
 10
567384.9415
 20
5937968.6559
 10
567384.9162
 20
5937968.5948
 10
567384.9415
 20
5937968.5336
 10
567385.0026
 20
5937968.5083
 10
567385.0638
 20
5937968.5336
 10
567385.0891
 20
5937968.5948
 10
567385.0638
 20
5937968.6559
 10
567385.0026
 20
5937968.6813
  0
LWPOLYLINE
  5
2021A
  8
0
100
AcDbEntity
100
AcDbPolyline
 70
0
 90
119
 10
567371.4694
 20
5938005.5619
 10
567371.4254
 20
5938005.5119
 10
567371.3779
 20
5938005.4555
 10
567371.3279
 20
5938005.3936
 10
567371.2754
 20
5938005.3263
 10
567371.2206
 20
5938005.2535
 10
567371.1635
 20
5938005.1751
 10
567371.1042
 20
5938005.0912
 10
567371.0433
 20
5938005.0025
 10
567370.9812
 20
5938004.9095
 10
567370.9185
 20
5938004.813
 10
567370.8558
 20
5938004.7136
 10
567370.7935
 20
5938004.6121
 10
567370.7322
 20
5938004.509
 10
567370.6724
 20
5938004.4051
 10
567370.6146
 20
5938004.301
 10
567370.5588
 20
5938004.1964
 10
567370.5049
 20
5938004.0911
 10
567370.4531
 20
5938003.9847
 10
567370.4031
 20
5938003.877
 10
567370.355
 20
5938003.7678
 10
567370.3087
 20
5938003.6566
 10
567370.2642
 20
5938003.5432
 10
567370.2216
 20
5938003.4272
 10
567370.1808
 20
5938003.3083
 10
567370.142
 20
5938003.1859
 10
567370.1054
 20
5938003.0596
 10
567370.0711
 20
5938002.9289
 10
567370.0391
 20
5938002.7934
 10
567370.0096
 20
5938002.6525
 10
567369.9828
 20
5938002.5058
 10
567369.9588
 20
5938002.3531
 10
567369.9379
 20
5938002.1949
 10
567369.9204
 20
5938002.0322
 10
567369.9066
 20
5938001.8658
 10
567369.897
 20
5938001.6966
 10
567369.8917
 20
5938001.5255
 10
567369.8912
 20
5938001.3532
 10
567369.8958
 20
5938001.1807
 10
567369.9058
 20
5938001.0085
 10
567369.921
 20
5938000.8363
 10
567369.9415
 20
5938000.6634
 10
567369.9671
 20
5938000.4891
 10
567369.9977
 20
5938000.3128
 10
567370.0333
 20
5938000.1336
 10
567370.0736
 20
5937999.9511
 10
567370.1188
 20
5937999.7645
 10
567370.1685
 20
5937999.5733
 10
567370.2227
 20
5937999.3772
 10
567370.281
 20
5937999.1762
 10
567370.3432
 20
5937998.9703
 10
567370.409
 20
5937998.7595
 10
567370.4782
 20
5937998.5435
 10
567370.5506
 20
5937998.3224
 10
567370.6258
 20
5937998.0962
 10
567370.7052
 20
5937997.8609
 10
567370.7956
 20
5937997.5975
 10
567370.9056
 20
5937997.2832
 10
567371.0436
 20
5937996.8951
 10
567371.218
 20
5937996.4104
 10
567371.4373
 20
5937995.8063
 10
567371.71
 20
5937995.0598
 10
567372.0306
 20
5937994.1857
 10
567372.082
 20
5937994.2119
 10
567372.1717
 20
5937994.2574
 10
567372.2932
 20
5937994.3185
 10
567372.4403
 20
5937994.3919
 10
567372.6064
 20
5937994.4738
 10
567372.7852
 20
5937994.5608
 10
567372.9705
 20
5937994.6494
 10
567373.1556
 20
5937994.7359
 10
567373.3352
 20
5937994.8174
 10
567373.5077
 20
5937994.8937
 10
567373.6722
 20
5937994.9652
 10
567373.828
 20
5937995.0322
 10
567373.9743
 20
5937995.095
 10
567374.1105
 20
5937995.1541
 10
567374.2357
 20
5937995.2097
 10
567374.3492
 20
5937995.2624
 10
567374.4506
 20
5937995.3123
 10
567374.5403
 20
5937995.3604
 10
567374.6192
 20
5937995.4072
 10
567374.6881
 20
5937995.4535
 10
567374.7478
 20
5937995.4999
 10
567374.7991
 20
5937995.5473
 10
567374.8429
 20
5937995.5964
 10
567374.8799
 20
5937995.6478
 10
567374.9109
 20
5937995.7021
 10
567374.9363
 20
5937995.7587
 10
567374.9564
 20
5937995.8169
 10
567374.9714
 20
5937995.8761
 10
567374.9817
 20
5937995.9354
 10
567374.9876
 20
5937995.9942
 10
567374.9894
 20
5937996.0516
 10
567374.9873
 20
5937996.1071
 10
567374.9814
 20
5937996.1611
 10
567374.9699
 20
5937996.2192
 10
567374.951
 20
5937996.2884
 10
567374.9225
 20
5937996.3754
 10
567374.8824
 20
5937996.4871
 10
567374.8288
 20
5937996.6305
 10
567374.7596
 20
5937996.8124
 10
567374.6729
 20
5937997.0398
 10
567374.5671
 20
5937997.3179
 10
567374.4424
 20
5937997.6464
 10
567374.2993
 20
5937998.0235
 10
567374.1386
 20
5937998.4474
 10
567373.9608
 20
5937998.9161
 10
567373.7667
 20
5937999.428
 10
567373.5567
 20
5937999.9811
 10
567373.3316
 20
5938000.5736
 10
567373.0927
 20
5938001.2019
 10
567372.8447
 20
5938001.855
 10
567372.5929
 20
5938002.5201
 10
567372.3425
 20
5938003.1844
 10
567372.0991
 20
5938003.8353
 10
567371.8678
 20
5938004.4599
 10
567371.6541
 20
5938005.0454
 10
567371.4694
 20
5938005.5619
  0
LWPOLYLINE
  5
2021B
  8
0
100
AcDbEntity
100
AcDbPolyline
 70
0
 90
5
 10
567348.8205
 20
5938032.3483
 10
567348.5283
 20
5938029.5399
 10
567348.7265
 20
5938029.0308
 10
567349.026
 20
5938031.9084
 10
567348.8205
 20
5938032.3483
  0
LWPOLYLINE
  5
2021C
  8
0
100
AcDbEntity
100
AcDbPolyline
 70
0
 90
2
 10
567353.6991
 20
5938029.8115
 10
567352.4375
 20
5938032.5319
  0
LWPOLYLINE
  5
2021D
  8
0
100
AcDbEntity
100
AcDbPolyline
 70
0
 90
5
 10
567358.6271
 20
5938024.7784
 10
567358.5504
 20
5938024.8706
 10
567358.1663
 20
5938024.5508
 10
567358.243
 20
5938024.4587
 10
567358.6271
 20
5938024.7784
  0
LWPOLYLINE
  5
2021E
  8
0
100
AcDbEntity
100
AcDbPolyline
 70
0
 90
5
 10
567356.3985
 20
5938015.8669
 10
567356.7826
 20
5938016.1866
 10
567356.9425
 20
5938015.9946
 10
567356.5584
 20
5938015.6748
 10
567356.3985
 20
5938015.8669
  0
LWPOLYLINE
  5
2021F
  8
0
100
AcDbEntity
100
AcDbPolyline
 70
0
 90
5
 10
567347.5124
 20
5938006.5196
 10
567347.2815
 20
5938006.4239
 10
567347.8559
 20
5938005.0388
 10
567348.0867
 20
5938005.1346
 10
567347.5124
 20
5938006.5196
  0
LWPOLYLINE
  5
20220
  8
0
100
AcDbEntity
100
AcDbPolyline
 70
0
 90
17
 10
567346.1846
 20
5938009.4607
 10
567345.573
 20
5938008.9898
 10
567345.1458
 20
5938008.6506
 10
567344.0323
 20
5938007.6987
 10
567343.657
 20
5938007.4134
 10
567343.5317
 20
5938007.3658
 10
567343.4553
 20
5938007.3805
 10
567343.3783
 20
5938007.4529
 10
567343.2507
 20
5938007.6758
 10
567342.9408
 20
5938008.3544
 10
567342.5417
 20
5938009.2504
 10
567340.489
 20
5938013.9329
 10
567339.9257
 20
5938015.247
 10
567339.631
 20
5938015.956
 10
567336.1958
 20
5938024.3161
 10
567333.5919
 20
5938030.6016
 10
567329.664
 20
5938039.9743
  0
LWPOLYLINE
  5
20221
  8
0
100
AcDbEntity
100
AcDbPolyline
 70
0
 90
5
 10
567356.26
 20
5937988.0411
 10
567356.7223
 20
5937988.2312
 10
567356.8173
 20
5937988.0001
 10
567356.3551
 20
5937987.81
 10
567356.26
 20
5937988.0411
  0
LWPOLYLINE
  5
20222
  8
0
100
AcDbEntity
100
AcDbPolyline
 70
0
 90
5
 10
567349.0579
 20
5937995.0464
 10
567349.2603
 20
5937994.5894
 10
567349.0318
 20
5937994.4882
 10
567348.8294
 20
5937994.9452
 10
567349.0579
 20
5937995.0464
  0
LWPOLYLINE
  5
20223
  8
0
100
AcDbEntity
100
AcDbPolyline
 70
0
 90
5
 10
567346.3379
 20
5937996.8659
 10
567346.5401
 20
5937996.4089
 10
567346.3115
 20
5937996.3078
 10
567346.1093
 20
5937996.7648
 10
567346.3379
 20
5937996.8659
  0
LWPOLYLINE
  5
20224
  8
0
100
AcDbEntity
100
AcDbPolyline
 70
0
 90
2
 10
567366.9372
 20
5937981.514
 10
567372.0086
 20
5937968.2019
  0
LWPOLYLINE
  5
20225
  8
0
100
AcDbEntity
100
AcDbPolyline
 70
0
 90
5
 10
567350.7004
 20
5938011.2262
 10
567351.0846
 20
5938011.5459
 10
567351.2445
 20
5938011.3538
 10
567350.8603
 20
5938011.0341
 10
567350.7004
 20
5938011.2262
  0
LWPOLYLINE
  5
20226
  8
0
100
AcDbEntity
100
AcDbPolyline
 70
0
 90
5
 10
567371.2426
 20
5937994.1371
 10
567371.7064
 20
5937994.3234
 10
567371.7995
 20
5937994.0914
 10
567371.3357
 20
5937993.9051
 10
567371.2426
 20
5937994.1371
  0
LWPOLYLINE
  5
20227
  8
0
100
AcDbEntity
100
AcDbPolyline
 70
0
 90
5
 10
567373.2333
 20
5937988.4501
 10
567373.1886
 20
5937988.5614
 10
567372.7248
 20
5937988.3751
 10
567372.7695
 20
5937988.2638
 10
567373.2333
 20
5937988.4501
  0
LWPOLYLINE
  5
20228
  8
0
100
AcDbEntity
100
AcDbPolyline
 70
0
 90
6
 10
567345.2944
 20
5938011.7105
 10
567344.9059
 20
5938012.6894
 10
567344.6972
 20
5938013.2206
 10
567344.4888
 20
5938013.755
 10
567344.0507
 20
5938014.8837
 10
567343.2069
 20
5938017.0604
  0
LWPOLYLINE
  5
20229
  8
0
100
AcDbEntity
100
AcDbPolyline
 70
0
 90
5
 10
567357.6298
 20
5937998.917
 10
567357.3992
 20
5937998.8208
 10
567357.9762
 20
5937997.4369
 10
567358.2068
 20
5937997.5331
 10
567357.6298
 20
5937998.917
  0
LWPOLYLINE
  5
2022A
  8
0
100
AcDbEntity
100
AcDbPolyline
 70
0
 90
5
 10
567360.1429
 20
5937989.6377
 10
567360.6051
 20
5937989.8278
 10
567360.7002
 20
5937989.5967
 10
567360.2379
 20
5937989.4066
 10
567360.1429
 20
5937989.6377
  0
LWPOLYLINE
  5
2022B
  8
0
100
AcDbEntity
100
AcDbPolyline
 70
0
 90
8
 10
567372.1634
 20
5937981.0926
 10
567373.1172
 20
5937979.3179
 10
567372.9424
 20
5937979.2504
 10
567374.0817
 20
5937976.4757
 10
567373.8486
 20
5937976.3856
 10
567372.8258
 20
5937979.2053
 10
567372.651
 20
5937979.1377
 10
567372.1634
 20
5937981.0926
  0
LWPOLYLINE
  5
2022C
  8
0
100
AcDbEntity
100
AcDbPolyline
 70
0
 90
2
 10
567373.9542
 20
5938005.8484
 10
567374.651
 20
5938005.456
  0
LWPOLYLINE
  5
2022D
  8
0
100
AcDbEntity
100
AcDbPolyline
 70
0
 90
5
 10
567371.1775
 20
5937998.9139
 10
567371.7759
 20
5937997.3877
 10
567372.6414
 20
5937997.7271
 10
567372.043
 20
5937999.2533
 10
567371.1775
 20
5937998.9139
  0
LWPOLYLINE
  5
2022E
  8
0
100
AcDbEntity
100
AcDbPolyline
 70
0
 90
2
 10
567353.9961
 20
5938015.7104
 10
567354.3698
 20
5938014.8009
  0
LWPOLYLINE
  5
2022F
  8
0
100
AcDbEntity
100
AcDbPolyline
 70
0
 90
4
 10
567373.3903
 20
5937993.0876
 10
567371.6626
 20
5937992.0141
 10
567371.3911
 20
5937992.7129
 10
567373.3903
 20
5937993.0876
  0
LWPOLYLINE
  5
20230
  8
0
100
AcDbEntity
100
AcDbPolyline
 70
0
 90
4
 10
567341.5775
 20
5938015.6611
 10
567342.1729
 20
5938014.1767
 10
567342.6368
 20
5938014.3628
 10
567341.5775
 20
5938015.6611
  0
LWPOLYLINE
  5
20231
  8
0
100
AcDbEntity
100
AcDbPolyline
 70
0
 90
2
 10
567363.2126
 20
5937976.7806
 10
567364.387
 20
5937974.0213
  0
LWPOLYLINE
  5
20232
  8
0
100
AcDbEntity
100
AcDbPolyline
 70
0
 90
5
 10
567345.4887
 20
5937998.7856
 10
567345.6909
 20
5937998.3286
 10
567345.4623
 20
5937998.2275
 10
567345.2601
 20
5937998.6845
 10
567345.4887
 20
5937998.7856
  0
LWPOLYLINE
  5
20233
  8
0
100
AcDbEntity
100
AcDbPolyline
 70
0
 90
5
 10
567357.4741
 20
5938016.7622
 10
567357.8582
 20
5938017.082
 10
567358.018
 20
5938016.8899
 10
567357.6339
 20
5938016.5701
 10
567357.4741
 20
5938016.7622
  0
LWPOLYLINE
  5
20234
  8
0
100
AcDbEntity
100
AcDbPolyline
 70
0
 90
5
 10
567349.0354
 20
5938016.8515
 10
567348.9586
 20
5938016.9437
 10
567348.5745
 20
5938016.624
 10
567348.6512
 20
5938016.5318
 10
567349.0354
 20
5938016.8515
  0
LWPOLYLINE
  5
20235
  8
0
100
AcDbEntity
100
AcDbPolyline
 70
0
 90
5
 10
567354.172
 20
5938007.2222
 10
567353.9413
 20
5938007.1262
 10
567354.5174
 20
5938005.7419
 10
567354.7482
 20
5938005.8379
 10
567354.172
 20
5938007.2222
  0
LWPOLYLINE
  5
20236
  8
0
100
AcDbEntity
100
AcDbPolyline
 70
0
 90
5
 10
567370.1357
 20
5938011.9487
 10
567369.9233
 20
5938012.4011
 10
567370.1495
 20
5938012.5073
 10
567370.3619
 20
5938012.0549
 10
567370.1357
 20
5938011.9487
  0
LWPOLYLINE
  5
20237
  8
0
100
AcDbEntity
100
AcDbPolyline
 70
0
 90
5
 10
567366.0911
 20
5937985.5811
 10
567366.0464
 20
5937985.6924
 10
567365.5826
 20
5937985.5061
 10
567365.6273
 20
5937985.3948
 10
567366.0911
 20
5937985.5811
  0
LWPOLYLINE
  5
20238
  8
0
100
AcDbEntity
100
AcDbPolyline
 70
0
 90
5
 10
567347.4734
 20
5938008.5407
 10
567347.8575
 20
5938008.8604
 10
567348.0174
 20
5938008.6683
 10
567347.6332
 20
5938008.3486
 10
567347.4734
 20
5938008.5407
  0
LWPOLYLINE
  5
20239
  8
0
100
AcDbEntity
100
AcDbPolyline
 70
0
 90
5
 10
567359.4267
 20
5937982.9922
 10
567359.3842
 20
5937983.1044
 10
567358.9169
 20
5937982.9272
 10
567358.9594
 20
5937982.815
 10
567359.4267
 20
5937982.9922
  0
LWPOLYLINE
  5
2023A
  8
0
100
AcDbEntity
100
AcDbPolyline
 70
0
 90
4
 10
567364.9385
 20
5937990.0028
 10
567365.2322
 20
5937989.3131
 10
567363.2459
 20
5937988.8748
 10
567364.9385
 20
5937990.0028
  0
LWPOLYLINE
  5
2023B
  8
0
100
AcDbEntity
100
AcDbPolyline
 70
0
 90
4
 10
567362.8545
 20
5937988.7177
 10
567361.2059
 20
5937987.5263
 10
567360.8863
 20
5937988.2045
 10
567362.8545
 20
5937988.7177
  0
LWPOLYLINE
  5
2023C
  8
0
100
AcDbEntity
100
AcDbPolyline
 70
0
 90
67
 10
567341.658
 20
5937985.1466
 10
567342.0325
 20
5937984.7595
 10
567342.0679
 20
5937984.5054
 10
567341.6734
 20
5937984.1661
 10
567341.088
 20
5937983.8199
 10
567342.1981
 20
5937984.2973
 10
567342.487
 20
5937984.2246
 10
567342.7427
 20
5937983.7929
 10
567343.0083
 20
5937983.4374
 10
567343.2155
 20
5937982.8827
 10
567343.3857
 20
5937982.2228
 10
567343.3555
 20
5937981.518
 10
567342.468
 20
5937981.0674
 10
567343.4657
 20
5937981.126
 10
567343.3674
 20
5937979.9392
 10
567343.0695
 20
5937978.5838
 10
567342.6466
 20
5937977.6924
 10
567342.1033
 20
5937977.9139
 10
567342.3739
 20
5937977.4034
 10
567341.9152
 20
5937976.7347
 10
567340.9405
 20
5937975.91
 10
567340.0747
 20
5937975.3828
 10
567339.7542
 20
5937976.0532
 10
567338.8328
 20
5937978.1529
 10
567339.8068
 20
5937975.3251
 10
567338.8367
 20
5937974.9135
 10
567337.4855
 20
5937974.7666
 10
567336.1907
 20
5937974.8504
 10
567336.2844
 20
5937975.6151
 10
567335.871
 20
5937974.9841
 10
567335.1362
 20
5937975.1449
 10
567334.0777
 20
5937975.6775
 10
567332.9431
 20
5937976.4489
 10
567332.9542
 20
5937976.6419
 10
567333.3257
 20
5937977.1364
 10
567332.9564
 20
5937976.8395
 10
567332.7408
 20
5937976.8419
 10
567331.7928
 20
5937977.8336
 10
567331.1276
 20
5937980.0349
 10
567331.4376
 20
5937980.2539
 10
567332.2422
 20
5937980.3057
 10
567331.5173
 20
5937980.5584
 10
567331.2636
 20
5937981.1743
 10
567331.339
 20
5937981.901
 10
567331.5997
 20
5937983.1558
 10
567331.9055
 20
5937983.8037
 10
567331.9603
 20
5937983.8884
 10
567332.3118
 20
5937983.7925
 10
567333.7753
 20
5937982.7829
 10
567332.2982
 20
5937983.9835
 10
567332.3394
 20
5937984.2593
 10
567332.7527
 20
5937984.8836
 10
567333.3498
 20
5937985.4677
 10
567333.7129
 20
5937985.823
 10
567334.2821
 20
5937985.3047
 10
567334.045
 20
5937986.0035
 10
567334.4994
 20
5937986.2747
 10
567335.0705
 20
5937986.5514
 10
567335.1704
 20
5937986.6424
 10
567335.7951
 20
5937986.8893
 10
567336.338
 20
5937986.8385
 10
567336.566
 20
5937986.7439
 10
567336.6033
 20
5937986.4583
 10
567336.6677
 20
5937986.8034
 10
567337.0141
 20
5937987.0601
 10
567337.69
 20
5937987.0527
 10
567338.2336
 20
5937986.9552
  0
LWPOLYLINE
  5
2023D
  8
0
100
AcDbEntity
100
AcDbPolyline
 70
0
 90
2
 10
567351.4182
 20
5937978.7374
 10
567355.7907
 20
5937968.2021
  0
LWPOLYLINE
  5
2023E
  8
0
100
AcDbEntity
100
AcDbPolyline
 70
0
 90
2
 10
567361.882
 20
5937988.8262
 10
567361.6129
 20
5937989.5024
  0
LWPOLYLINE
  5
2023F
  8
0
100
AcDbEntity
100
AcDbPolyline
 70
0
 90
5
 10
567377.9825
 20
5938010.2564
 10
567377.6124
 20
5938010.2906
 10
567377.2426
 20
5938010.2532
 10
567376.8869
 20
5938010.1457
 10
567376.5583
 20
5938009.972
  0
LWPOLYLINE
  5
20240
  8
0
100
AcDbEntity
100
AcDbPolyline
 70
0
 90
9
 10
567384.6391
 20
5938029.6628
 10
567384.5779
 20
5938029.6375
 10
567384.5526
 20
5938029.5763
 10
567384.5779
 20
5938029.5152
 10
567384.6391
 20
5938029.4898
 10
567384.7003
 20
5938029.5152
 10
567384.7256
 20
5938029.5763
 10
567384.7003
 20
5938029.6375
 10
567384.6391
 20
5938029.6628
  0
LWPOLYLINE
  5
20241
  8
0
100
AcDbEntity
100
AcDbPolyline
 70
0
 90
5
 10
567345.2056
 20
5937999.4255
 10
567345.4078
 20
5937998.9685
 10
567345.1793
 20
5937998.8674
 10
567344.9771
 20
5937999.3244
 10
567345.2056
 20
5937999.4255
  0
ENDSEC
  0
SECTION
  2
OBJECTS
  0
DICTIONARY
  5
C
330
0
100
AcDbDictionary
281
     1
  3
ACAD_GROUP
350
D
  0
DICTIONARY
  5
D
102
{ACAD_REACTORS
330
C
102
}
330
C
100
AcDbDictionary
281
     1
  0
ENDSEC
  0
EOF
